<?xml version="1.0" standalone="no"?>
<!DOCTYPE svg PUBLIC "-//W3C//DTD SVG 20010904//EN"
 "http://www.w3.org/TR/2001/REC-SVG-20010904/DTD/svg10.dtd">
<svg version="1.0" xmlns="http://www.w3.org/2000/svg"
 width="503.000000pt" height="407.000000pt" viewBox="0 0 503.000000 407.000000"
 preserveAspectRatio="xMidYMid meet">

<g transform="translate(0.000000,407.000000) scale(0.100000,-0.100000)"
fill="#000000" stroke="none">
<path d="M3325 3874 c-114 -26 -399 -84 -435 -88 -14 -2 -86 -15 -160 -29 -74
-14 -151 -28 -170 -31 -19 -3 -46 -8 -60 -11 -14 -3 -140 -25 -280 -50 -140
-25 -286 -52 -325 -60 -38 -7 -88 -16 -110 -19 -22 -4 -114 -20 -205 -36 -183
-33 -344 -61 -525 -91 -126 -21 -143 -24 -400 -63 -363 -57 -430 -68 -437 -74
-3 -4 0 -25 7 -47 13 -38 45 -214 85 -470 31 -201 69 -435 125 -770 30 -176
63 -385 74 -465 12 -80 34 -239 51 -353 16 -115 34 -215 41 -223 8 -10 16 -11
31 -3 17 9 25 6 48 -17 67 -71 448 -483 573 -620 133 -148 137 -153 137 -197
0 -28 7 -53 18 -67 17 -22 19 -22 49 -6 30 15 31 18 27 68 -6 83 -23 315 -29
408 -3 47 -17 227 -30 400 -14 173 -27 333 -28 354 l-2 40 230 86 c127 47 295
110 375 140 80 29 232 86 338 127 106 40 197 73 202 73 6 0 10 -11 10 -24 0
-26 20 -39 45 -30 8 4 15 12 15 20 0 8 4 14 10 14 5 0 212 -122 460 -272 l452
-272 -6 -41 c-5 -33 -3 -42 14 -53 30 -18 60 4 60 44 0 17 6 36 13 41 14 11
670 303 680 303 4 0 7 -6 7 -14 0 -8 10 -18 22 -22 36 -11 54 24 67 133 12 90
28 212 97 713 14 102 52 372 85 600 91 637 93 649 88 655 -7 6 -283 -67 -402
-106 -48 -16 -156 -47 -240 -69 -84 -22 -183 -49 -222 -60 -38 -11 -83 -23
-98 -26 -37 -9 -28 -30 11 -26 18 2 32 -1 32 -7 0 -5 -15 -11 -32 -13 -23 -2
-38 3 -50 17 -15 19 -17 19 -23 3 -4 -10 -15 -18 -24 -19 -10 0 -12 -2 -3 -6
7 -3 20 1 29 9 14 11 16 11 12 -1 -3 -7 -23 -19 -44 -26 -63 -21 -593 -163
-770 -206 -174 -43 -190 -48 -184 -53 2 -2 35 4 74 14 l70 18 135 -48 c74 -27
191 -69 259 -94 69 -25 126 -46 128 -46 2 0 3 -16 3 -35 0 -41 -1 -41 -130
-79 -47 -14 -190 -57 -319 -96 -129 -38 -238 -70 -243 -70 -5 0 -7 96 -6 215
2 118 1 215 -2 215 -20 -1 -89 -27 -85 -32 4 -3 6 -100 6 -215 0 -114 -1 -359
-1 -543 l0 -335 -108 -39 c-155 -56 -320 -117 -1038 -383 -8 -3 -14 19 -18 64
-3 37 -22 244 -41 458 -31 340 -55 566 -68 642 -5 28 -24 21 357 118 165 41
302 78 305 80 9 10 -18 4 -160 -30 -79 -20 -155 -37 -169 -40 -47 -8 10 11
100 35 47 12 95 26 108 31 13 5 32 9 42 9 12 0 20 7 20 16 0 12 3 14 13 6 16
-13 59 -4 51 10 -4 6 1 8 13 4 27 -9 60 3 41 15 -9 6 -6 9 10 9 15 0 21 -4 17
-12 -4 -7 0 -5 9 6 8 10 27 20 41 22 14 1 32 8 40 14 8 6 19 9 25 5 5 -3 20 1
32 10 l23 16 -25 -5 c-14 -3 -54 -13 -90 -22 -36 -8 -75 -18 -87 -21 -13 -3
-23 -9 -23 -13 0 -4 -10 -5 -22 -3 -13 2 -48 -3 -78 -12 -30 -8 -67 -17 -82
-20 -15 -2 -44 -9 -65 -14 -21 -6 -123 -31 -228 -56 -104 -25 -211 -51 -237
-59 -52 -16 -58 -12 -58 44 l0 28 213 52 c116 28 383 93 592 145 209 51 427
104 485 118 184 43 774 195 800 206 42 16 14 12 -92 -14 -96 -24 -139 -27 -87
-6 13 5 17 10 9 10 -27 1 -95 -20 -105 -33 -16 -20 -53 -26 -59 -10 -3 9 1 14
11 14 11 0 14 3 7 10 -6 6 -22 6 -44 0 -19 -6 -67 -10 -107 -10 -39 0 -75 -4
-78 -10 -3 -5 -15 -10 -26 -10 -35 0 -11 18 41 31 77 20 61 32 -32 25 -79 -5
-86 3 -15 19 15 3 25 10 22 15 -3 6 -3 10 2 10 4 0 40 7 78 16 39 8 93 20 120
25 108 20 191 41 210 51 11 6 51 17 90 23 125 22 185 36 181 43 -2 4 6 8 17 9
70 6 396 79 482 108 22 8 61 17 87 20 27 3 49 12 52 20 3 8 11 15 18 15 9 0 9
-3 -2 -11 -12 -9 -12 -10 3 -5 10 3 26 6 35 6 11 0 13 3 6 8 -6 4 -13 15 -17
25 -7 18 -2 20 51 17 18 -1 32 3 32 10 0 8 15 9 48 6 26 -3 43 -4 37 -1 -8 4
-180 39 -295 61 -14 3 -41 9 -60 14 -85 22 -298 64 -330 64 -19 1 -37 4 -40 7
-8 9 -96 29 -122 28 -13 -1 -50 -7 -83 -15z m112 -10 c-3 -3 -12 -4 -19 -1 -8
3 -5 6 6 6 11 1 17 -2 13 -5z m78 -13 c-6 -6 -35 -12 -65 -15 -62 -7 -57 0 11
13 62 12 64 12 54 2z m115 -77 c-36 -8 -84 -18 -108 -24 -23 -5 -55 -10 -71
-10 -17 0 -42 -5 -58 -11 -38 -16 -113 -28 -118 -19 -4 6 45 18 220 52 127 26
244 36 135 12z m-505 -4 c-3 -5 -25 -9 -48 -9 -40 1 -40 2 -12 9 44 11 67 11
60 0z m318 3 c-7 -2 -19 -2 -25 0 -7 3 -2 5 12 5 14 0 19 -2 13 -5z m472 -3
c3 -5 24 -10 46 -10 24 0 38 -4 34 -10 -9 -15 25 -25 44 -14 9 6 30 7 46 4
l30 -6 -35 -8 c-19 -4 -73 -18 -120 -31 -47 -12 -110 -28 -140 -35 -30 -7 -93
-23 -140 -36 -47 -12 -98 -25 -115 -27 -59 -9 -233 -47 -375 -82 -80 -20 -164
-40 -187 -45 -23 -5 -51 -17 -63 -27 -11 -10 -25 -19 -30 -19 -6 -1 -11 -2
-12 -3 -2 -2 -21 -4 -43 -6 -39 -4 -38 -4 15 15 65 23 41 20 -97 -11 -57 -13
-103 -27 -103 -31 0 -11 15 -10 43 3 15 7 35 7 58 1 32 -8 29 -9 -41 -16 -41
-4 -90 -14 -109 -22 -18 -8 -43 -14 -56 -14 -52 0 -109 -50 -90 -80 4 -6 -13
-10 -44 -10 -35 0 -51 4 -51 13 0 10 -13 11 -57 6 -32 -4 -80 -7 -108 -7 -44
0 -46 1 -20 8 17 5 44 13 60 18 l30 10 -33 1 c-26 1 -33 5 -30 18 3 18 2 18
178 64 69 19 118 35 109 37 -9 1 -49 -7 -90 -19 -115 -33 -164 -39 -309 -38
-86 1 -146 -3 -165 -11 -46 -19 -135 -38 -135 -30 0 5 6 11 13 14 6 3 -1 4
-18 1 -16 -2 -57 -7 -90 -9 -50 -5 -55 -4 -30 5 17 5 68 12 115 14 86 5 157
16 178 29 6 3 46 9 89 12 55 4 84 11 98 23 11 10 74 33 140 50 159 43 157 42
151 48 -3 3 -78 -13 -168 -35 -276 -68 -570 -123 -643 -121 -30 1 -30 1 -5 9
21 7 22 8 5 10 -22 1 90 34 170 50 28 6 63 13 78 16 20 5 27 3 25 -6 -2 -7 4
-15 12 -17 13 -4 13 -3 0 6 -13 9 -13 10 0 15 40 12 81 15 74 5 -5 -8 7 -9 37
-4 115 18 439 106 439 118 0 6 -34 7 -82 4 -62 -4 -73 -3 -43 3 86 20 204 37
200 30 -8 -12 90 -23 127 -14 18 4 35 8 38 9 3 1 25 5 50 9 25 5 50 12 55 16
6 4 42 10 80 14 39 4 81 10 94 13 20 5 23 3 17 -12 -5 -14 -3 -15 6 -8 17 14
147 23 154 12 3 -5 -17 -9 -45 -9 -27 0 -52 -4 -55 -8 -5 -9 -78 -28 -156 -40
-25 -5 -66 -4 -92 1 -66 13 -117 2 -128 -29 -9 -22 -15 -24 -67 -24 -44 0 -54
-3 -45 -12 9 -9 26 -9 74 1 35 7 77 14 93 17 17 2 66 10 110 18 118 21 181 29
173 21 -10 -10 -194 -47 -553 -111 -55 -10 -93 -20 -84 -21 9 -2 79 7 155 21
76 14 162 27 189 30 46 5 45 5 -15 -9 -135 -32 -194 -49 -177 -53 21 -4 282
56 317 73 14 7 36 13 50 13 14 0 61 9 105 21 44 11 110 25 148 32 37 6 67 15
67 19 0 15 96 22 118 9 22 -14 57 -5 46 12 -5 9 2 10 27 6 20 -4 29 -3 21 2
-11 6 -9 10 7 14 12 3 19 1 15 -4 -9 -15 6 -10 23 7 12 12 18 13 24 3 5 -9 11
-8 24 4 15 15 37 21 73 20 14 -1 91 10 152 22 19 4 37 11 40 15 3 5 12 8 20 8
36 -2 61 3 56 11 -4 5 0 11 6 14 7 3 -25 3 -72 0 -66 -4 -82 -2 -70 7 12 9 8
10 -20 5 -19 -3 -71 -13 -115 -20 -44 -8 -134 -23 -200 -34 -209 -36 -236 -23
-50 24 82 21 138 29 220 30 61 2 137 10 170 18 55 15 94 22 137 26 9 0 20 -3
23 -9z m-545 -5 c0 -11 -52 -25 -63 -18 -7 5 2 10 23 14 19 4 36 7 38 8 1 0 2
-1 2 -4z m-380 -16 c0 -4 -19 -10 -42 -13 -24 -4 -60 -9 -80 -12 -48 -8 -51
12 -5 24 36 10 127 10 127 1z m146 -38 c-7 -11 -56 -21 -56 -10 0 6 13 11 53
18 5 0 6 -3 3 -8z m121 -7 c-3 -3 -12 -4 -19 -1 -8 3 -5 6 6 6 11 1 17 -2 13
-5z m412 2 c-2 -2 -74 -18 -159 -36 -85 -17 -175 -37 -200 -44 -80 -24 -217
-56 -236 -56 -49 1 31 24 263 74 136 30 257 57 268 59 27 6 69 8 64 3z m-604
-17 c-4 -6 -13 -8 -20 -6 -15 6 -106 -12 -120 -24 -6 -4 -46 -10 -90 -14 l-80
-5 94 24 c119 32 127 33 179 35 28 1 41 -3 37 -10z m-312 -26 c-7 -2 -21 -2
-30 0 -10 3 -4 5 12 5 17 0 24 -2 18 -5z m411 -3 c-5 -5 -32 -12 -59 -15 l-50
-4 44 9 c24 5 46 12 49 15 3 3 10 5 16 5 6 0 7 -3 0 -10z m64 -21 c-12 -7 -24
-7 -35 0 -15 9 -12 10 17 10 29 0 32 -1 18 -10z m-843 -14 c-16 -8 -42 -14
-56 -15 -14 0 -48 -7 -75 -15 -61 -18 -69 -19 -55 -1 6 7 32 16 59 20 26 4 67
10 92 15 64 12 69 11 35 -4z m320 -5 c-11 -5 -30 -9 -42 -9 -13 -1 -23 -5 -23
-10 0 -5 -9 -11 -20 -14 -11 -3 -18 0 -17 7 2 12 68 34 102 34 l20 1 -20 -9z
m10 -20 c-11 -5 -27 -9 -35 -9 -9 0 -8 4 5 9 11 5 27 9 35 9 9 0 8 -4 -5 -9z
m-312 -17 c-7 -2 -21 -2 -30 0 -10 3 -4 5 12 5 17 0 24 -2 18 -5z m-146 -49
c-3 -3 -12 -4 -19 -1 -8 3 -5 6 6 6 11 1 17 -2 13 -5z m-339 -26 c8 -10 5 -13
-11 -14 -12 -1 -51 -4 -87 -8 -43 -4 -56 -3 -40 3 14 5 37 9 53 10 15 1 27 6
27 11 0 14 46 12 58 -2z m1375 -15 c-7 -2 -19 -2 -25 0 -7 3 -2 5 12 5 14 0
19 -2 13 -5z m-1633 -7 c0 -3 -4 -8 -10 -11 -5 -3 -10 -1 -10 4 0 6 5 11 10
11 6 0 10 -2 10 -4z m390 -6 c-8 -5 -37 -9 -65 -8 l-50 1 40 7 c64 11 93 11
75 0z m1180 1 c0 -5 -16 -11 -35 -13 -40 -5 -44 -1 -12 12 29 12 47 12 47 1z
m1356 -48 c-10 -94 -48 -377 -51 -389 -2 -6 -54 -27 -117 -46 -346 -110 -666
-208 -676 -208 -7 0 -12 -5 -12 -11 0 -7 9 -9 23 -5 58 16 72 18 57 7 -12 -9
-7 -10 18 -6 22 4 31 2 27 -5 -12 -19 20 -11 315 81 161 49 298 91 304 92 6 1
10 -5 9 -13 -8 -73 -77 -576 -79 -578 -1 -2 -18 1 -38 6 -23 7 -36 7 -36 1 0
-6 -5 -7 -10 -4 -6 4 -8 10 -5 15 3 4 -1 10 -8 13 -6 3 -46 19 -88 36 l-77 31
-47 -21 c-25 -11 -56 -22 -68 -23 -12 -2 -30 -7 -40 -11 -10 -4 -21 -5 -24 -1
-10 10 28 34 65 41 17 3 32 11 32 17 0 5 -6 8 -14 5 -46 -18 -236 -61 -242
-55 -2 3 28 15 68 27 40 12 97 29 126 39 l54 17 -39 17 c-21 9 -45 16 -53 16
-8 0 -2 -5 14 -12 21 -10 24 -14 13 -19 -8 -3 -24 -3 -36 0 -14 3 -23 0 -27
-11 -4 -11 -10 -13 -18 -7 -13 11 -120 -4 -154 -21 -20 -11 -26 -9 -47 18 -24
28 -24 28 -25 6 0 -13 4 -20 10 -17 6 3 10 1 10 -4 0 -6 -5 -11 -11 -11 -5 0
-7 -5 -4 -10 4 -6 2 -16 -3 -23 -6 -7 -12 -30 -15 -52 l-4 -40 -1 46 c-1 26 2
91 7 145 5 55 20 228 32 387 13 158 26 287 31 287 4 0 8 -4 8 -8 0 -5 7 -9 15
-9 11 0 15 12 15 43 0 54 14 67 92 87 35 9 102 28 151 41 l87 25 14 -32 c7
-18 20 -38 29 -45 36 -30 113 22 158 105 14 26 28 33 100 52 46 12 104 28 129
36 25 7 49 13 54 14 5 1 6 -25 2 -56z m-3167 33 c-6 -6 -181 -36 -204 -35 -11
1 21 9 70 19 89 18 142 24 134 16z m161 -6 c0 -5 -15 -10 -32 -9 -28 0 -30 2
-13 9 28 12 45 12 45 0z m-89 -21 c-16 -6 -28 -6 -35 1 -7 7 1 10 25 9 32 0
33 -1 10 -10z m-86 -9 c-3 -5 -18 -9 -33 -9 l-27 1 30 8 c17 4 31 8 33 9 2 0
0 -3 -3 -9z m-255 -10 c-14 -4 -32 -8 -40 -9 -13 -1 -13 0 0 9 8 5 26 9 40 9
l25 -1 -25 -8z m600 6 c0 -2 -15 -6 -34 -8 -19 -2 -32 0 -30 4 5 8 64 12 64 4z
m-671 -20 c-4 -4 -306 -57 -639 -113 -52 -9 -96 -20 -98 -24 -4 -10 -32 1 -32
13 0 5 4 7 9 4 5 -3 28 1 52 9 24 7 91 21 149 30 58 9 143 23 190 31 204 37
380 61 369 50z m441 -64 c0 -10 -89 -32 -126 -32 -46 0 -157 -32 -142 -41 8
-6 -4 -9 -32 -9 -25 -1 -70 -3 -100 -6 -54 -4 -54 -4 -27 11 16 8 63 19 106
24 42 6 89 15 105 20 15 6 39 11 54 11 15 0 45 7 67 15 44 16 95 19 95 7z m83
1 c-7 -2 -21 -2 -30 0 -10 3 -4 5 12 5 17 0 24 -2 18 -5z m46 -27 c-11 -9 -69
-15 -64 -6 3 6 20 10 37 10 17 0 29 -2 27 -4z m136 -6 c-28 -12 -37 -12 -30 0
3 6 16 10 28 9 21 0 21 -1 2 -9z m400 0 c-28 -12 -37 -12 -30 0 3 6 16 10 28
9 21 0 21 -1 2 -9z m-65 -25 c0 -10 -11 -15 -33 -15 -18 0 -53 -6 -78 -14 -55
-18 -129 -27 -129 -16 0 5 -10 10 -22 12 -17 3 -7 8 32 20 73 23 84 25 163 26
53 1 67 -2 67 -13z m70 5 c-8 -5 -19 -10 -25 -10 -5 0 -3 5 5 10 8 5 20 10 25
10 6 0 3 -5 -5 -10z m-862 -17 c-10 -2 -26 -2 -35 0 -10 3 -2 5 17 5 19 0 27
-2 18 -5z m496 -32 c-5 -5 -34 -15 -64 -21 -30 -6 -75 -15 -100 -20 -25 -5
-110 -23 -190 -41 -80 -17 -156 -33 -170 -35 -62 -11 22 16 130 40 63 15 178
42 255 60 77 18 142 31 144 29 3 -2 0 -7 -5 -12z m529 12 c-7 -2 -19 -2 -25 0
-7 3 -2 5 12 5 14 0 19 -2 13 -5z m-1053 -13 c-8 -5 -23 -10 -33 -10 -10 0
-15 -4 -12 -10 11 -18 -71 -42 -264 -76 -107 -18 -196 -32 -198 -30 -5 4 53
18 157 36 36 6 101 21 145 32 44 11 95 22 113 25 53 8 36 24 -20 19 -51 -5
-51 -5 12 8 83 17 121 19 100 6z m1273 -1 c-25 -23 -243 -75 -353 -84 -30 -2
-47 -2 -37 1 9 3 17 10 17 15 0 6 4 8 9 4 12 -7 91 24 91 36 0 5 24 9 53 9 36
0 47 3 37 10 -10 6 5 10 50 12 104 6 141 5 133 -3z m-633 -25 c-25 -7 -59 -14
-75 -14 -17 0 -35 -4 -40 -8 -11 -10 -129 -32 -169 -32 -15 0 -25 4 -22 9 6 9
75 26 91 22 5 -2 37 4 70 13 93 24 217 33 145 10z m133 9 c-7 -2 -19 -2 -25 0
-7 3 -2 5 12 5 14 0 19 -2 13 -5z m532 -12 c-6 -4 -23 -11 -40 -15 l-30 -6 25
15 c27 16 60 21 45 6z m85 -31 c-16 -12 -41 -20 -67 -20 -50 0 -58 15 -10 18
17 2 34 7 35 12 2 6 18 10 35 10 l32 0 -25 -20z m-195 0 c-3 -5 -18 -10 -33
-9 -24 0 -25 1 -7 9 28 12 47 12 40 0z m-1696 -14 c-2 -2 -22 -6 -44 -10 -29
-5 -36 -4 -25 3 13 10 79 16 69 7z m1631 -46 c-19 -4 -55 -10 -80 -13 -41 -5
-43 -4 -26 9 13 9 42 14 80 13 54 -1 57 -2 26 -9z m-1891 -103 c91 -57 263
-164 381 -237 118 -73 221 -138 227 -144 8 -7 24 -121 43 -301 41 -389 90
-884 90 -916 0 -25 -11 -30 -302 -137 -167 -61 -310 -112 -318 -114 -11 -2
-20 35 -42 187 -15 105 -50 341 -78 525 -27 184 -70 475 -95 645 -25 171 -54
367 -65 436 -22 135 -24 159 -13 159 3 0 81 -47 172 -103z m848 87 c-3 -3 -12
-4 -19 -1 -8 3 -5 6 6 6 11 1 17 -2 13 -5z m1018 -23 c-16 -5 -104 -25 -195
-46 -140 -31 -274 -62 -355 -81 -52 -13 16 15 78 31 37 10 67 22 67 26 0 5 13
9 28 9 15 0 33 5 38 10 15 15 237 56 309 58 48 1 54 -1 30 -7z m-1215 -21
c-19 -13 -30 -13 -30 0 0 6 10 10 23 10 18 0 19 -2 7 -10z m570 -16 c0 -2 -14
-4 -31 -4 -16 0 -28 4 -25 9 5 8 56 3 56 -5z m-675 -4 c-3 -5 -16 -10 -28 -9
-20 1 -20 2 3 9 14 4 26 8 28 9 2 1 0 -3 -3 -9z m-335 -10 c0 -5 -2 -10 -4
-10 -3 0 -8 5 -11 10 -3 6 -1 10 4 10 6 0 11 -4 11 -10z m280 1 c0 -11 -25
-21 -51 -21 -29 0 -23 18 9 23 15 2 30 5 35 6 4 0 7 -3 7 -8z m-83 -17 c-3 -3
-12 -4 -19 -1 -8 3 -5 6 6 6 11 1 17 -2 13 -5z m663 -8 c0 -2 -11 -6 -25 -8
-14 -3 -25 -1 -25 3 0 5 11 9 25 9 14 0 25 -2 25 -4z m-67 -13 c-7 -2 -19 -2
-25 0 -7 3 -2 5 12 5 14 0 19 -2 13 -5z m-390 -60 c-7 -2 -19 -2 -25 0 -7 3
-2 5 12 5 14 0 19 -2 13 -5z m304 1 c-3 -3 -12 -4 -19 -1 -8 3 -5 6 6 6 11 1
17 -2 13 -5z m323 2 c0 -2 -11 -6 -25 -8 -13 -3 -22 -1 -19 3 5 9 44 13 44 5z
m-60 -11 c0 -2 -19 -9 -42 -15 -24 -6 -52 -14 -63 -17 -35 -10 -5 12 33 23 40
13 72 17 72 9z m-135 -35 c-3 -5 -12 -10 -18 -10 -7 0 -6 4 3 10 19 12 23 12
15 0z m-145 -39 c-8 -4 -35 -11 -60 -14 -43 -6 -44 -6 -16 6 34 15 100 22 76
8z m2607 3 c-3 -3 -12 -4 -19 -1 -8 3 -5 6 6 6 11 1 17 -2 13 -5z m-111 -34
c-26 -10 -62 -21 -80 -24 -17 -3 -2 5 34 18 36 14 72 25 80 25 8 0 -7 -8 -34
-19z m-2653 -7 c-7 -2 -21 -2 -30 0 -10 3 -4 5 12 5 17 0 24 -2 18 -5z m-118
-23 c3 -5 2 -10 -4 -10 -5 0 -13 5 -16 10 -3 6 -2 10 4 10 5 0 13 -4 16 -10z
m2349 -31 c113 -40 116 -42 116 -71 0 -28 -2 -30 -27 -23 -15 3 -45 14 -68 24
-22 10 -66 28 -97 41 -48 18 -58 26 -58 46 0 13 4 24 9 24 5 0 61 -19 125 -41z
m93 -221 c-3 -8 -6 -5 -6 6 -1 11 2 17 5 13 3 -3 4 -12 1 -19z m-32 -8 c3 -6
-4 -10 -17 -10 -18 0 -20 2 -8 10 19 12 18 12 25 0z m-425 -405 c8 -7 37 -22
64 -35 47 -22 48 -24 27 -34 -16 -7 -32 -6 -53 2 -16 6 -37 8 -46 5 -11 -4 -8
2 7 15 16 15 19 22 10 23 -27 2 -54 -3 -84 -16 -16 -8 -97 -41 -180 -73 -82
-33 -172 -70 -198 -81 -82 -36 -77 -51 -77 224 l0 246 258 -132 c141 -73 264
-137 272 -144z m781 255 c11 0 17 -4 14 -10 -3 -5 -14 -10 -24 -10 -10 0 -45
-12 -77 -26 -91 -40 -154 -63 -154 -55 0 10 58 37 120 57 80 24 96 34 79 46
-11 8 -10 8 4 4 10 -3 28 -6 38 -6z m336 4 c41 -11 16 -19 -49 -15 -44 2 -57
6 -43 12 25 9 63 11 92 3z m-152 -48 c8 -7 11 -16 8 -20 -11 -11 -91 -6 -120
7 -26 12 -25 12 32 18 33 3 61 6 63 7 2 1 10 -4 17 -12z m145 -16 c0 -5 -9
-10 -20 -10 -27 0 -64 -41 -48 -53 9 -6 6 -7 -7 -2 -47 15 -73 16 -115 0 -25
-9 -54 -19 -65 -22 -11 -4 -22 -9 -25 -12 -11 -13 -69 -41 -84 -41 -35 0 -13
18 47 39 34 12 94 35 132 51 156 63 185 71 185 50z m-1140 -9 c-8 -5 -31 -11
-50 -14 -35 -6 -35 -6 -10 8 14 8 36 14 50 14 19 0 21 -2 10 -8z m746 0 c-3
-4 -18 -11 -33 -14 -16 -3 -37 -8 -48 -11 -11 -4 -2 3 20 14 42 21 70 26 61
11z m-209 -78 c-2 -16 -4 -5 -4 22 0 28 2 40 4 28 2 -13 2 -35 0 -50z m783 44
c0 -16 -9 -28 -27 -36 -36 -17 -721 -281 -728 -281 -3 0 -5 17 -5 38 0 33 3
37 28 38 15 1 95 27 177 58 83 32 173 66 200 76 76 28 145 59 145 64 0 3 -7 3
-15 0 -11 -5 -13 -2 -9 10 8 20 20 21 31 1 8 -13 12 -13 32 1 13 9 37 18 55
19 17 1 47 9 66 18 47 21 50 21 50 -6z m-850 -31 c0 -7 -9 -16 -21 -19 -21 -6
-21 -5 -3 13 23 23 24 23 24 6z m-53 -32 c-3 -3 -12 -4 -19 -1 -8 3 -5 6 6 6
11 1 17 -2 13 -5z m53 -8 c0 -2 -7 -9 -15 -16 -13 -11 -14 -10 -9 4 5 14 24
23 24 12z m-204 -31 c-22 -13 -44 -21 -49 -18 -5 3 8 14 29 24 55 26 66 23 20
-6z m164 15 c0 -5 -7 -10 -16 -10 -8 0 -12 5 -9 10 3 6 10 10 16 10 5 0 9 -4
9 -10z m-50 -14 c0 -2 -7 -7 -16 -10 -8 -3 -12 -2 -9 4 6 10 25 14 25 6z m880
-3 c0 -18 -63 -488 -65 -491 -2 -2 -13 2 -25 8 -12 6 -28 9 -36 6 -8 -3 -13
-2 -10 3 8 13 -44 32 -68 26 -16 -5 -18 -4 -6 4 11 8 -12 23 -105 68 -109 52
-126 57 -185 57 -36 0 -54 1 -40 4 46 7 42 20 -14 46 -31 15 -56 31 -56 36 0
5 23 17 51 27 28 10 160 61 293 114 241 97 266 105 266 92z m-800 -113 c0 -5
-5 -10 -11 -10 -5 0 -7 5 -4 10 3 6 8 10 11 10 2 0 4 -4 4 -10z m-305 -10 c-3
-5 -12 -10 -18 -10 -7 0 -6 4 3 10 19 12 23 12 15 0z m-225 -20 c-20 -13 -33
-13 -25 0 3 6 14 10 23 10 15 0 15 -2 2 -10z m281 -8 c-7 -2 -18 1 -23 6 -8 8
-4 9 13 5 13 -4 18 -8 10 -11z m192 -92 c20 -8 37 -17 37 -21 0 -5 -16 -1 -35
7 -27 11 -35 11 -35 2 0 -9 -3 -8 -10 2 -12 18 -13 33 -2 28 4 -2 24 -10 45
-18z m225 -18 c9 -6 0 -14 -29 -25 -24 -9 -45 -14 -48 -11 -3 4 -1 9 5 11 6 2
20 10 30 18 22 17 25 17 42 7z m-323 -162 c-3 -5 -11 -10 -16 -10 -6 0 -7 5
-4 10 3 6 11 10 16 10 6 0 7 -4 4 -10z m125 -43 c0 -14 -93 -57 -122 -57 -9 0
-19 -5 -21 -10 -3 -6 -4 -5 -3 2 1 7 18 17 37 23 19 6 35 15 36 22 3 14 -37 4
-85 -21 -35 -18 -52 -20 -52 -7 0 9 6 12 95 40 73 23 115 26 115 8z m-313 -32
c0 -8 -4 -12 -8 -9 -5 3 -19 -1 -31 -8 -13 -7 -26 -11 -30 -10 -5 1 -8 -2 -8
-7 0 -5 -13 -11 -30 -13 -24 -4 -27 -2 -19 9 7 7 19 13 29 13 9 0 20 3 24 8 4
4 22 12 39 19 18 6 32 12 33 12 0 1 1 -6 1 -14z m433 5 c0 -5 -5 -10 -11 -10
-5 0 -7 5 -4 10 3 6 8 10 11 10 2 0 4 -4 4 -10z m13 -27 c7 -6 -21 -32 -35
-33 -5 0 -8 9 -8 20 0 19 28 28 43 13z m64 1 c-3 -3 -12 -4 -19 -1 -8 3 -5 6
6 6 11 1 17 -2 13 -5z m361 -8 c14 7 28 11 31 9 7 -7 -1 -13 -41 -29 -34 -15
-35 -15 -33 7 3 31 7 35 12 15 4 -14 7 -15 31 -2z m142 -7 c0 -6 9 -9 20 -6
46 12 5 -13 -63 -38 -39 -15 -102 -40 -140 -56 -71 -31 -116 -39 -57 -11 56
27 64 33 50 42 -8 5 -7 9 5 13 9 4 13 3 10 -2 -9 -15 8 -19 35 -8 l25 10 -25
6 c-22 6 -18 10 40 33 71 29 100 34 100 17z m-1006 -14 c-3 -8 -14 -17 -25
-20 -10 -4 -19 -11 -19 -17 0 -6 -11 -8 -25 -6 -14 3 -28 1 -32 -5 -3 -6 -1
-7 5 -3 7 4 12 2 12 -3 0 -14 -9 -14 -51 1 l-33 11 79 28 c97 33 96 33 89 14z
m306 -7 c0 -13 -4 -27 -8 -33 -12 -17 -141 -75 -167 -75 -14 0 -25 -3 -25 -8
0 -12 -60 -34 -77 -28 -14 6 -14 8 3 21 10 8 31 15 47 15 25 0 32 11 29 42 -2
8 167 86 191 88 4 0 7 -10 7 -22z m-470 -8 c-20 -13 -43 -13 -35 0 3 6 16 10
28 10 18 0 19 -2 7 -10z m215 0 c3 -5 1 -10 -4 -10 -6 0 -11 5 -11 10 0 6 2
10 4 10 3 0 8 -4 11 -10z m1055 1 c0 -23 -44 -53 -140 -96 -129 -59 -444 -198
-523 -232 -33 -13 -61 -23 -63 -20 -7 7 8 67 16 62 7 -5 83 27 470 198 216 96
240 105 240 88z m-600 -65 c0 -2 -7 -6 -15 -10 -8 -3 -15 -1 -15 4 0 6 7 10
15 10 8 0 15 -2 15 -4z m-510 -40 c-4 -4 -16 -4 -26 2 -16 9 -14 10 8 9 15 -1
23 -6 18 -11z m-1906 -658 c23 -255 40 -465 38 -468 -2 -3 -34 27 -71 66 -36
39 -189 200 -339 357 -151 158 -272 287 -270 287 2 1 136 52 298 114 162 62
297 112 299 110 2 -2 22 -211 45 -466z"/>
<path d="M3805 3740 c-7 -12 2 -12 30 0 19 8 19 9 -2 9 -12 1 -25 -3 -28 -9z"/>
<path d="M3945 3740 c-18 -8 -17 -9 8 -9 16 -1 26 3 22 9 -3 6 -7 10 -8 9 -1
0 -11 -4 -22 -9z"/>
<path d="M3488 3713 c6 -2 18 -2 25 0 6 3 1 5 -13 5 -14 0 -19 -2 -12 -5z"/>
<path d="M3448 3703 c7 -3 16 -2 19 1 4 3 -2 6 -13 5 -11 0 -14 -3 -6 -6z"/>
<path d="M2935 3610 l-40 -7 42 -2 c23 0 45 4 48 9 3 6 3 9 -2 9 -4 -1 -26 -5
-48 -9z"/>
<path d="M2505 3570 c3 -5 8 -10 11 -10 2 0 4 5 4 10 0 6 -5 10 -11 10 -5 0
-7 -4 -4 -10z"/>
<path d="M1870 3410 c0 -5 4 -10 9 -10 6 0 13 5 16 10 3 6 -1 10 -9 10 -9 0
-16 -4 -16 -10z"/>
<path d="M2188 3393 c6 -2 18 -2 25 0 6 3 1 5 -13 5 -14 0 -19 -2 -12 -5z"/>
<path d="M2432 3373 c-56 -14 -100 -28 -98 -31 6 -5 236 47 236 54 0 8 -38 2
-138 -23z"/>
<path d="M2550 3365 c-22 -8 -28 -13 -15 -13 11 0 36 6 55 13 22 8 28 13 15
13 -11 0 -36 -6 -55 -13z"/>
<path d="M2400 3276 c0 -9 5 -16 10 -16 6 0 10 4 10 9 0 6 -4 13 -10 16 -5 3
-10 -1 -10 -9z"/>
<path d="M3746 3098 c-8 -68 -16 -261 -10 -255 7 7 26 288 20 294 -2 3 -7 -15
-10 -39z"/>
<path d="M3720 2731 c0 -12 5 -21 10 -21 6 0 10 6 10 14 0 8 -4 18 -10 21 -5
3 -10 -3 -10 -14z"/>
<path d="M3708 2562 c-2 -31 -3 -60 -1 -64 2 -5 21 1 41 11 20 10 56 25 80 32
49 14 47 17 -52 54 l-64 24 -4 -57z"/>
<path d="M3898 2533 c7 -3 16 -2 19 1 4 3 -2 6 -13 5 -11 0 -14 -3 -6 -6z"/>
<path d="M4080 2460 c-8 -5 -11 -12 -7 -16 4 -4 13 -2 19 4 15 15 7 24 -12 12z"/>
<path d="M4283 3703 c9 -2 23 -2 30 0 6 3 -1 5 -18 5 -16 0 -22 -2 -12 -5z"/>
<path d="M4178 3673 c7 -3 16 -2 19 1 4 3 -2 6 -13 5 -11 0 -14 -3 -6 -6z"/>
<path d="M4438 3673 c7 -3 16 -2 19 1 4 3 -2 6 -13 5 -11 0 -14 -3 -6 -6z"/>
<path d="M4128 3663 c6 -2 18 -2 25 0 6 3 1 5 -13 5 -14 0 -19 -2 -12 -5z"/>
<path d="M4479 3662 c11 -8 11 -10 0 -15 -8 -2 14 -4 48 -4 74 1 70 13 -7 22
-35 4 -50 2 -41 -3z"/>
<path d="M4590 3630 c-12 -8 -11 -10 5 -9 11 1 31 5 45 9 24 8 24 8 -5 9 -16
0 -37 -4 -45 -9z"/>
<path d="M4305 3610 c-13 -5 -14 -9 -5 -9 8 0 24 4 35 9 13 5 14 9 5 9 -8 0
-24 -4 -35 -9z"/>
<path d="M4548 3613 c7 -3 16 -2 19 1 4 3 -2 6 -13 5 -11 0 -14 -3 -6 -6z"/>
<path d="M4285 3554 l-40 -14 40 6 c42 6 85 24 55 23 -8 -1 -33 -7 -55 -15z"/>
<path d="M4198 3533 c7 -3 16 -2 19 1 4 3 -2 6 -13 5 -11 0 -14 -3 -6 -6z"/>
<path d="M4130 3521 c-20 -4 -40 -10 -46 -14 -6 -3 -24 -9 -40 -12 -47 -8
-310 -84 -296 -84 6 -1 90 20 185 45 94 25 187 50 205 54 19 5 36 11 39 14 7
7 2 6 -47 -3z"/>
<path d="M3851 3511 c-8 -6 -9 -11 -3 -15 6 -3 14 -1 17 5 9 14 2 20 -14 10z"/>
<path d="M3535 3430 c-27 -7 -27 -8 -5 -8 14 0 36 4 50 8 20 6 21 8 5 8 -11 0
-33 -4 -50 -8z"/>
<path d="M3665 3395 c-39 -14 -40 -14 -5 -8 41 7 82 22 60 22 -8 0 -33 -7 -55
-14z"/>
<path d="M3028 3373 c6 -2 18 -2 25 0 6 3 1 5 -13 5 -14 0 -19 -2 -12 -5z"/>
<path d="M3173 3367 c-24 -5 -43 -13 -43 -17 0 -4 -12 -5 -26 -2 -20 4 -25 2
-19 -8 6 -9 4 -11 -5 -5 -7 4 -15 3 -19 -2 -3 -6 -24 -15 -46 -21 l-40 -11 55
3 c30 2 63 7 72 11 10 4 29 8 42 9 17 1 22 4 15 11 -6 6 7 16 38 27 53 18 41
21 -24 5z"/>
<path d="M3438 3333 c7 -3 16 -2 19 1 4 3 -2 6 -13 5 -11 0 -14 -3 -6 -6z"/>
<path d="M3370 3320 c-20 -6 -21 -8 -5 -8 11 0 29 3 40 8 25 11 -1 11 -35 0z"/>
<path d="M3318 3303 c7 -3 16 -2 19 1 4 3 -2 6 -13 5 -11 0 -14 -3 -6 -6z"/>
<path d="M3510 3260 c-13 -9 -13 -10 0 -9 8 0 24 4 35 9 l20 9 -20 0 c-11 0
-27 -4 -35 -9z"/>
<path d="M2838 3083 c7 -3 16 -2 19 1 4 3 -2 6 -13 5 -11 0 -14 -3 -6 -6z"/>
<path d="M2568 3013 c7 -3 16 -2 19 1 4 3 -2 6 -13 5 -11 0 -14 -3 -6 -6z"/>
<path d="M2505 3000 c-7 -12 2 -12 30 0 19 8 19 9 -2 9 -12 1 -25 -3 -28 -9z"/>
<path d="M2448 2983 c7 -3 16 -2 19 1 4 3 -2 6 -13 5 -11 0 -14 -3 -6 -6z"/>
<path d="M2498 2943 c7 -3 16 -2 19 1 4 3 -2 6 -13 5 -11 0 -14 -3 -6 -6z"/>
<path d="M2378 2913 c7 -3 16 -2 19 1 4 3 -2 6 -13 5 -11 0 -14 -3 -6 -6z"/>
<path d="M2137 2857 c-109 -29 -194 -53 -189 -55 10 -3 358 83 395 98 49 19
-18 6 -206 -43z"/>
</g>
</svg>
