<?xml version="1.0" standalone="no"?>
<!DOCTYPE svg PUBLIC "-//W3C//DTD SVG 20010904//EN"
 "http://www.w3.org/TR/2001/REC-SVG-20010904/DTD/svg10.dtd">
<svg version="1.0" xmlns="http://www.w3.org/2000/svg"
 width="728.000000pt" height="511.000000pt" viewBox="0 0 728.000000 511.000000"
 preserveAspectRatio="xMidYMid meet">

<g transform="translate(0.000000,511.000000) scale(0.100000,-0.100000)"
fill="#000000" stroke="none">
<path d="M6818 4492 l24 -18 -23 -43 c-16 -31 -26 -40 -38 -36 -13 5 -14 4 -3
-6 9 -10 15 -10 24 -1 14 14 28 16 28 3 0 -13 -68 -29 -1690 -401 -267 -61
-640 -147 -830 -190 -190 -44 -415 -95 -500 -114 -85 -19 -333 -75 -550 -125
-217 -49 -577 -130 -800 -181 -223 -50 -471 -107 -553 -126 -81 -19 -154 -34
-162 -34 -9 0 -196 100 -418 221 -530 292 -560 308 -576 302 -8 -3 -11 -1 -8
4 6 9 -121 88 -129 80 -2 -2 16 -15 40 -28 25 -13 42 -27 39 -33 -3 -5 -1 -6
5 -2 6 3 19 -4 29 -17 10 -13 25 -24 33 -24 8 0 32 -8 53 -18 27 -12 35 -20
25 -26 -15 -10 -16 -9 47 -44 28 -16 58 -35 67 -43 9 -8 23 -11 30 -7 10 6 10
5 2 -4 -10 -11 -64 13 -154 70 -8 5 -35 19 -60 31 -25 12 -49 24 -55 26 -5 3
-7 2 -3 -3 4 -4 2 -15 -5 -23 -10 -13 -9 -14 10 -8 18 6 21 4 16 -15 -5 -20
-3 -21 28 -14 l34 7 -32 -30 c-32 -30 -44 -62 -23 -62 6 0 10 -18 10 -40 0
-22 5 -40 10 -40 6 0 10 -18 10 -40 0 -29 4 -40 15 -40 11 0 15 -11 15 -40 0
-22 5 -40 10 -40 6 0 10 -18 10 -40 0 -22 5 -40 10 -40 6 0 10 -18 10 -40 0
-22 4 -40 9 -40 5 0 12 -36 16 -80 6 -69 10 -80 26 -80 17 0 19 -8 19 -80 0
-47 4 -80 10 -80 6 0 10 -18 10 -40 0 -29 4 -40 15 -40 11 0 15 -11 15 -40 0
-23 5 -40 11 -40 8 0 9 -24 4 -80 -7 -77 -6 -80 14 -80 18 0 21 -6 21 -40 0
-22 5 -40 10 -40 6 0 10 -18 10 -40 0 -33 3 -40 20 -40 18 0 20 -7 20 -80 0
-47 4 -80 10 -80 6 0 10 -11 10 -24 0 -35 10 -56 26 -56 11 0 14 -18 14 -80 0
-60 3 -80 13 -80 11 0 16 -30 20 -122 12 -205 9 -278 -8 -278 -10 0 -15 -10
-15 -30 0 -16 -4 -30 -10 -30 -5 0 -10 -9 -10 -20 0 -11 -5 -20 -11 -20 -13 0
-39 -25 -39 -38 0 -5 -14 -15 -30 -22 -17 -7 -30 -15 -30 -19 0 -4 -16 -13
-36 -20 -20 -7 -44 -21 -53 -30 -11 -11 -41 -20 -78 -24 -33 -4 -73 -12 -89
-18 -16 -7 -35 -11 -42 -10 -6 1 -20 -2 -30 -8 -16 -9 -16 -10 1 -16 14 -6 15
-10 6 -21 -16 -19 6 -44 38 -44 18 0 57 -30 137 -102 61 -57 116 -107 122
-113 6 -5 62 -58 125 -116 63 -58 233 -215 379 -350 146 -134 284 -261 308
-283 27 -26 40 -45 37 -56 -7 -21 20 -45 60 -54 17 -4 37 -14 46 -22 12 -11
21 -11 47 -2 39 15 39 -2 12 385 -35 511 -105 1567 -128 1926 l-7 108 50 14
c98 27 856 229 1920 510 242 64 635 168 873 231 239 64 436 114 438 111 4 -4
-21 -494 -32 -609 l-6 -67 49 -23 c62 -29 60 -28 43 -38 -18 -11 -5 -25 32
-34 19 -4 27 -2 30 8 2 11 101 -28 378 -150 206 -90 516 -226 688 -301 258
-113 311 -139 298 -149 -20 -14 -5 -29 42 -39 25 -5 32 -3 32 9 0 13 4 13 36
0 47 -20 72 -11 78 29 3 18 44 347 92 732 80 653 199 1590 211 1661 l5 31
-109 26 c-102 24 -133 31 -193 42 l-25 4 23 -17z"/>
<path d="M600 3760 c20 -13 33 -13 25 0 -3 6 -14 10 -23 10 -15 0 -15 -2 -2
-10z"/>
<path d="M640 3744 c0 -11 34 -33 50 -33 10 -1 6 6 -10 19 -26 20 -40 25 -40
14z"/>
</g>
</svg>
