<?xml version="1.0" standalone="no"?>
<!DOCTYPE svg PUBLIC "-//W3C//DTD SVG 20010904//EN"
 "http://www.w3.org/TR/2001/REC-SVG-20010904/DTD/svg10.dtd">
<svg version="1.0" xmlns="http://www.w3.org/2000/svg"
 width="476.000000pt" height="470.000000pt" viewBox="0 0 476.000000 470.000000"
 preserveAspectRatio="xMidYMid meet">

<g transform="translate(0.000000,470.000000) scale(0.100000,-0.100000)"
fill="#000000" stroke="none">
<path d="M3590 4614 c-96 -24 -483 -120 -860 -214 -721 -178 -695 -174 -712
-130 -5 12 -78 19 -107 10 -33 -10 -132 -36 -188 -50 -34 -9 -43 -15 -43 -33
-1 -58 -6 -59 -1054 -308 -88 -21 -101 -27 -118 -54 -22 -37 -23 -88 -3 -105
12 -10 24 -10 53 -2 21 7 243 57 493 112 250 55 514 114 587 131 73 17 136 29
139 25 4 -3 -1 -6 -11 -6 -9 0 -14 -5 -11 -10 4 -6 15 -8 26 -5 14 5 19 2 19
-12 0 -11 5 -24 12 -31 6 -6 10 -13 7 -15 -2 -3 -78 -21 -169 -40 -1104 -242
-1124 -247 -1150 -273 l-25 -24 -6 -353 c-4 -193 -7 -648 -8 -1010 l-1 -658
63 6 c34 3 388 26 787 50 399 25 1052 65 1451 90 400 25 738 45 752 45 23 0
17 -8 -53 -79 -143 -145 -207 -316 -197 -525 8 -187 68 -319 206 -456 97 -97
201 -155 328 -185 111 -27 282 -17 388 21 225 82 403 285 451 514 21 98 14
249 -16 345 -71 229 -256 408 -485 470 l-64 18 -5 61 c-3 33 -12 302 -21 596
-9 294 -20 657 -25 805 -6 149 -15 421 -20 606 -10 340 -16 391 -50 409 -43
23 -71 18 -924 -171 -297 -65 -552 -119 -567 -119 -17 0 -29 6 -31 16 -3 14
-20 16 -118 16 -63 0 -106 2 -95 5 327 79 1552 343 1578 341 47 -5 54 18 34
105 -17 70 -40 118 -55 116 -4 0 -86 -20 -182 -45z m-1403 -530 c-3 -3 -12 -4
-19 -1 -8 3 -5 6 6 6 11 1 17 -2 13 -5z m-50 -10 c-3 -3 -12 -4 -19 -1 -8 3
-5 6 6 6 11 1 17 -2 13 -5z m-44 -11 c-7 -2 -19 -2 -25 0 -7 3 -2 5 12 5 14 0
19 -2 13 -5z m1037 -39 c0 -14 -3 -15 -17 -3 -10 7 -15 9 -11 5 4 -5 0 -15
-10 -22 -22 -17 -29 -17 -36 1 -4 10 2 19 17 25 35 14 57 12 57 -6z m-1230 -4
c-14 -4 -34 -8 -45 -8 -16 0 -15 2 5 8 14 4 34 8 45 8 16 0 15 -2 -5 -8z
m1000 -41 c0 -6 9 -9 20 -6 11 3 27 -2 36 -10 10 -11 25 -13 49 -9 34 7 35 6
25 -19 -12 -32 -12 -56 -1 -74 8 -12 15 -12 45 3 39 18 71 22 179 18 48 -1 67
-6 67 -15 0 -21 92 -39 132 -25 18 6 38 14 43 18 21 15 114 21 134 8 16 -10
27 -10 52 -1 69 27 52 -18 -21 -53 -23 -11 -41 -28 -45 -42 -9 -37 4 -44 39
-22 36 21 66 26 66 10 0 -5 -7 -10 -15 -10 -8 0 -15 -4 -15 -8 0 -5 -18 -17
-40 -28 -40 -19 -55 -47 -22 -43 38 3 44 -1 38 -25 -5 -20 -1 -25 20 -30 20
-5 34 1 66 29 23 19 42 34 43 32 7 -8 12 -317 6 -313 -5 3 -21 10 -37 16 l-29
12 25 13 25 13 -27 11 c-20 8 -28 17 -28 36 0 14 6 25 13 25 6 0 4 5 -6 11
-15 9 -21 7 -32 -8 -13 -17 -30 -12 -30 9 0 6 -6 13 -14 16 -11 4 -12 -2 -7
-24 4 -16 7 -39 7 -51 -1 -13 3 -23 8 -23 12 0 19 -54 9 -79 -5 -15 -3 -21 7
-21 31 0 1 -29 -41 -39 -24 -6 -44 -15 -44 -20 0 -9 43 -7 59 4 6 3 11 -1 11
-9 0 -9 8 -16 18 -17 9 0 12 -3 5 -5 -8 -4 -10 -16 -6 -36 4 -22 2 -33 -10
-40 -23 -12 -21 -28 3 -28 11 0 20 -4 20 -10 0 -9 -13 -14 -35 -11 -5 0 0 -6
13 -15 22 -16 31 -64 12 -64 -5 0 -7 7 -4 15 5 11 2 13 -10 9 -21 -8 -20 -17
2 -30 13 -8 20 -8 29 1 7 7 11 15 10 17 -1 2 3 -2 9 -9 11 -13 10 -65 -1 -84
-4 -5 -15 -9 -25 -9 -19 0 -36 -17 -27 -26 3 -3 14 -1 25 5 16 8 21 7 26 -5 4
-9 13 -14 21 -10 14 5 17 0 14 -21 0 -4 15 -15 35 -25 26 -13 34 -23 29 -35
-6 -15 -7 -15 -13 2 -4 10 -9 14 -12 9 -6 -10 8 -54 17 -54 4 0 3 5 -1 12 -4
6 -3 8 4 4 6 -3 10 -39 10 -83 l0 -78 -15 38 c-12 30 -23 39 -57 49 -22 7 -47
12 -53 11 -18 -1 -16 7 5 24 16 13 15 14 -7 9 -30 -6 -49 12 -43 41 4 23 22
33 22 12 0 -5 5 -7 12 -3 9 6 9 9 0 12 -7 2 -9 9 -5 15 4 6 0 8 -10 4 -12 -5
-17 -1 -17 13 0 14 5 18 18 13 13 -5 14 -3 6 6 -9 10 -18 9 -44 -4 -36 -19
-53 -12 -24 10 15 11 16 17 6 23 -10 7 -10 11 2 21 8 7 20 10 26 6 5 -3 10 -1
10 4 0 14 -16 14 -41 1 -11 -6 -18 -7 -17 -3 1 4 -9 21 -24 36 l-26 28 4 -40
c2 -24 -1 -43 -8 -47 -7 -5 -9 -2 -6 7 3 9 -2 26 -12 40 l-19 24 3 -58 c2 -32
1 -55 -3 -52 -3 4 -6 12 -7 18 -2 25 -17 57 -25 57 -5 0 -9 -12 -10 -27 0 -25
-1 -26 -9 -8 -5 11 -9 32 -9 47 -1 15 -5 30 -11 33 -10 6 -6 -59 6 -97 6 -21
-12 -24 -30 -5 -7 7 -21 29 -31 50 -22 47 -38 38 -31 -19 2 -24 0 -44 -5 -44
-5 0 -9 -7 -9 -17 0 -9 -3 -13 -7 -10 -3 4 -12 2 -20 -4 -13 -12 -14 -10 -17
24 -1 6 -9 20 -18 30 -10 9 -19 32 -19 50 l-2 32 -6 -35 c-3 -19 -3 -36 1 -38
12 -6 9 -40 -4 -44 -10 -4 -15 -20 -20 -70 -1 -9 -6 -14 -10 -12 -5 3 -6 16
-4 29 3 14 -1 26 -9 29 -8 3 -12 0 -10 -7 3 -7 1 -25 -3 -42 l-8 -29 -17 34
c-14 27 -15 35 -5 43 8 5 1 7 -19 4 -22 -2 -33 1 -33 9 0 7 4 14 9 16 5 2 1
19 -9 38 l-18 34 -3 -48 c-3 -37 0 -52 16 -69 16 -17 17 -20 2 -14 -9 3 -17 3
-17 -2 0 -5 -11 -8 -25 -8 -14 0 -25 3 -25 7 0 4 -10 11 -22 14 -22 7 -22 8
-4 15 19 7 19 8 0 15 -18 7 -17 9 6 18 17 7 21 12 11 16 -28 10 -69 54 -64 68
3 8 1 14 -5 14 -6 0 -9 11 -8 25 2 13 -1 22 -5 19 -14 -8 -10 9 6 33 14 20 13
21 -7 15 -14 -3 -19 -1 -14 6 4 7 2 12 -3 12 -6 0 -11 5 -11 11 0 6 -9 23 -21
37 l-21 27 3 -38 c2 -24 -1 -41 -10 -46 -10 -6 -9 -10 4 -14 14 -6 14 -9 -5
-29 -12 -13 -16 -24 -10 -26 6 -2 3 -10 -7 -18 -11 -8 -13 -13 -5 -14 6 0 12
-5 12 -11 0 -5 -3 -8 -7 -6 -5 3 -9 -5 -9 -18 -2 -21 0 -22 24 -9 33 17 43 9
14 -12 -12 -8 -22 -23 -22 -32 1 -16 2 -16 14 1 7 9 19 17 27 17 11 0 11 -2
-1 -10 -14 -9 -7 -14 15 -11 6 1 0 -7 -11 -17 -12 -10 -29 -32 -37 -49 -9 -17
-23 -33 -32 -36 -25 -10 -18 -36 10 -33 13 2 22 -1 19 -5 -3 -5 10 -9 28 -8
18 0 27 3 20 6 -13 5 -7 23 9 23 15 0 10 -20 -12 -48 -19 -25 -19 -27 -2 -33
10 -3 21 -1 25 5 6 8 8 7 8 -1 0 -7 -9 -22 -20 -33 -11 -11 -20 -25 -20 -31 0
-6 9 -13 20 -16 18 -5 24 -15 21 -35 0 -5 4 -8 9 -8 6 0 10 -10 10 -21 0 -17
4 -20 23 -15 12 3 28 6 35 6 7 0 10 5 7 10 -4 6 -16 8 -27 4 -17 -5 -20 -3
-15 10 4 10 3 15 -3 11 -6 -3 -10 -1 -10 4 0 6 7 11 15 11 8 0 15 -5 15 -11 0
-5 5 -7 10 -4 6 4 8 10 5 15 -3 4 2 10 10 14 8 3 17 1 20 -4 3 -5 12 -7 20 -3
10 3 15 -2 15 -16 0 -24 22 -28 42 -8 19 19 98 31 98 15 0 -7 5 -6 13 4 6 9
30 18 52 22 27 4 35 2 25 -4 -33 -21 59 -2 103 21 11 6 17 6 17 -1 0 -6 12 -8
28 -5 129 23 203 37 233 45 20 6 48 10 63 10 14 0 26 6 26 13 1 6 10 -6 21
-28 10 -22 24 -44 29 -49 13 -13 13 -253 0 -261 -6 -4 -5 -16 4 -33 8 -16 14
-59 15 -100 0 -61 -2 -72 -17 -73 -16 0 -16 -1 0 -7 32 -13 3 -31 -72 -45 -80
-16 -79 -17 17 -20 48 -2 63 1 67 13 2 8 4 -6 5 -32 l1 -48 -125 4 c-69 3
-127 1 -130 -3 -4 -8 122 -21 208 -21 26 0 47 -4 47 -10 0 -10 -56 -16 -112
-12 -16 1 -28 -3 -28 -9 0 -8 -26 -10 -80 -7 -44 2 -81 0 -82 -4 -2 -3 -68
-11 -148 -17 -282 -22 -1945 -143 -2345 -171 -159 -12 -336 -24 -393 -28
l-102 -8 0 187 0 187 50 9 c28 4 50 12 50 17 -1 5 4 13 12 17 10 7 8 9 -7 9
-15 1 -13 4 10 14 17 7 33 11 38 9 4 -2 7 1 7 8 0 15 30 49 43 49 6 0 2 -10
-9 -22 l-19 -21 30 19 c24 15 28 16 17 2 -11 -14 -10 -17 3 -20 14 -2 13 -8
-9 -31 -27 -29 -34 -43 -16 -32 6 3 13 -1 16 -9 9 -23 29 -20 42 7 11 22 11
22 11 -4 1 -15 -6 -29 -14 -33 -8 -3 -15 -14 -15 -25 0 -11 -5 -23 -11 -27
-23 -14 18 -25 48 -12 15 6 35 10 42 9 12 -2 12 0 4 11 -8 9 -9 26 -4 50 5 21
6 39 4 42 -3 3 7 4 23 3 26 -2 29 1 30 28 0 17 -4 36 -10 43 -15 21 -18 52 -3
52 7 1 5 6 -6 14 -10 8 -15 20 -11 29 3 8 1 18 -5 22 -17 10 -13 25 4 19 8 -4
15 -1 15 5 0 6 -7 11 -15 11 -19 0 -19 14 -2 32 8 7 12 18 10 25 -2 6 1 14 7
18 8 5 7 11 -2 23 -7 9 -8 13 -3 10 6 -3 16 0 23 8 8 9 9 14 2 14 -8 0 -9 11
-5 30 4 19 2 37 -6 46 -10 12 -9 13 6 8 13 -5 16 -4 11 5 -4 6 -2 19 5 27 10
12 9 13 -4 8 -12 -4 -14 -1 -10 18 4 13 14 29 22 36 9 8 11 11 4 8 -6 -4 -14
-2 -17 3 -3 5 1 11 9 15 17 6 21 56 4 56 -6 0 -9 7 -5 15 3 8 1 15 -4 15 -5 0
-7 7 -3 16 4 11 9 12 16 5 6 -6 18 -11 26 -10 12 0 10 4 -7 16 -25 18 -32 69
-7 59 8 -3 15 -4 15 -3 0 1 -6 20 -13 43 -12 40 -12 40 -31 22 -19 -18 -19
-18 2 -18 12 0 22 -4 22 -10 0 -5 -7 -7 -15 -4 -8 4 -15 1 -15 -6 0 -6 -5 -8
-10 -5 -6 3 -10 4 -10 1 0 -2 -3 -12 -6 -20 -5 -13 -2 -15 12 -9 17 6 17 5 6
-10 -8 -8 -23 -18 -35 -20 -12 -2 -7 -3 12 -3 33 2 33 2 12 -15 -21 -17 -30
-36 -11 -24 6 3 10 -1 10 -10 0 -9 -5 -13 -11 -9 -8 5 -8 1 0 -14 14 -26 14
-32 0 -32 -5 0 -7 5 -4 10 3 6 0 10 -8 10 -10 0 -13 -7 -10 -20 3 -11 9 -17
14 -14 5 3 6 -2 3 -10 -5 -12 -10 -13 -26 -5 -19 10 -20 9 -14 -14 3 -14 2
-29 -4 -32 -18 -11 -11 -27 9 -20 16 5 19 1 18 -15 -1 -22 -16 -28 -18 -7 0 6
-5 -1 -9 -16 -11 -37 -3 -57 18 -50 18 7 17 5 -12 -17 -13 -10 -17 -10 -12 -2
4 6 3 12 -2 12 -5 0 -15 -18 -22 -40 -13 -40 -23 -49 -35 -30 -10 15 -19 12
-34 -12 -10 -18 -11 -20 0 -10 17 16 39 15 39 -2 0 -14 -29 -26 -68 -26 -22 0
-22 1 -8 22 9 12 16 29 16 37 0 9 12 25 28 38 21 18 23 22 9 23 -20 0 -19 18
3 40 9 8 14 14 11 13 -2 -2 -10 5 -18 15 -14 16 -14 16 -9 -2 6 -19 -9 -46
-25 -46 -5 0 -9 6 -9 14 0 9 -7 12 -20 9 -11 -3 -26 0 -34 6 -9 8 -21 8 -37 2
-25 -10 -21 -13 21 -15 14 -1 24 -7 22 -14 -1 -7 4 -12 12 -12 8 0 18 -5 22
-12 4 -7 3 -8 -4 -4 -7 4 -12 3 -12 -2 0 -6 7 -13 16 -16 24 -9 11 -30 -22
-33 -17 -1 -24 1 -16 6 7 4 10 15 7 24 -7 18 -35 31 -35 17 0 -6 -4 -10 -9
-10 -5 0 -7 9 -4 20 5 19 -4 24 -44 23 -6 0 -9 6 -5 15 4 12 1 14 -12 9 -16
-6 -17 9 -12 261 3 147 5 331 5 409 l1 143 25 -10 c24 -9 54 -4 65 10 3 4 13
11 24 17 17 9 17 12 -10 37 -16 14 -37 26 -47 26 -11 0 -21 9 -24 20 -7 27
-21 25 -26 -2 -4 -20 -4 -20 -6 4 -1 28 -1 28 90 44 31 5 37 3 42 -16 4 -16
12 -21 29 -18 14 1 35 -4 49 -13 36 -24 160 -5 144 22 -4 5 -15 9 -26 9 -31 0
-25 46 9 64 51 26 236 50 259 33 6 -4 14 -3 18 3 3 5 27 10 53 10 41 1 45 2
30 14 -16 12 -14 14 20 24 68 20 763 161 807 163 17 1 39 -2 50 -6 14 -5 16
-4 7 3 -25 17 47 36 152 38 121 3 141 6 141 25 0 8 11 17 25 22 65 20 320 66
334 61 9 -3 16 -1 16 4 0 10 23 18 63 21 9 0 17 -4 17 -10z m-2150 -471 c0
-13 -23 -5 -28 10 -2 7 2 10 12 6 9 -3 16 -11 16 -16z m3020 -167 c0 -5 -7
-12 -16 -15 -24 -9 -28 -7 -14 9 14 17 30 20 30 6z m11 -41 c18 0 29 -5 29
-14 0 -8 -10 -13 -25 -13 -14 0 -25 4 -25 9 0 6 -9 8 -20 5 -13 -3 -20 0 -20
10 0 10 6 13 16 9 9 -3 29 -6 45 -6z m17 -53 c6 0 13 -7 13 -16 1 -9 3 -26 4
-38 1 -13 -1 -23 -5 -23 -5 0 -6 -10 -2 -22 4 -17 2 -20 -12 -15 -10 4 -15 3
-11 -3 12 -19 14 -53 5 -70 -7 -13 -4 -24 10 -40 11 -13 20 -38 20 -56 0 -27
-3 -31 -20 -27 -11 3 -17 9 -14 14 3 5 1 9 -3 9 -5 0 -14 14 -20 30 -6 17 -7
28 -2 24 5 -3 9 2 9 10 0 9 -4 16 -9 16 -5 0 -23 14 -41 30 -18 17 -28 30 -23
30 5 0 14 -5 21 -12 9 -9 12 -8 13 8 1 10 1 23 0 27 -1 4 6 10 14 13 8 4 15
10 15 14 0 8 -38 23 -52 21 -15 -2 -8 11 17 31 14 11 25 29 25 40 0 15 4 18
18 13 9 -4 23 -8 30 -8z m-78 -27 c-8 -5 -19 -10 -25 -10 -5 0 -3 5 5 10 8 5
20 10 25 10 6 0 3 -5 -5 -10z m95 -170 c-3 -5 -12 -10 -18 -10 -7 0 -6 4 3 10
19 12 23 12 15 0z m-865 -130 c-19 -13 -30 -13 -30 0 0 6 10 10 23 10 18 0 19
-2 7 -10z m686 -82 c-18 -26 -22 -17 -5 14 6 11 13 17 16 15 3 -3 -2 -16 -11
-29z m-646 18 c0 -2 -7 -6 -15 -10 -8 -3 -15 -1 -15 4 0 6 7 10 15 10 8 0 15
-2 15 -4z m525 -6 c3 -5 1 -10 -4 -10 -6 0 -11 5 -11 10 0 6 2 10 4 10 3 0 8
-4 11 -10z m-405 -85 c0 -8 -4 -15 -9 -15 -13 0 -22 16 -14 24 11 11 23 6 23
-9z m-115 -21 c19 -15 19 -15 -9 -12 -16 2 -31 9 -34 16 -5 17 19 15 43 -4z
m115 -13 c0 -5 3 -16 6 -25 3 -9 1 -16 -5 -16 -6 0 -11 7 -11 16 0 9 -6 14
-12 11 -7 -2 -12 -14 -11 -26 2 -11 -2 -21 -8 -21 -5 0 -8 4 -5 8 2 4 1 14 -4
22 -6 10 -2 18 13 26 28 15 37 16 37 5z m140 -106 c0 -7 -36 -20 -77 -30 -27
-5 -33 -3 -33 10 0 12 9 15 40 13 22 -1 43 1 46 5 9 8 24 9 24 2z m-130 -35
c0 -5 -2 -10 -4 -10 -3 0 -8 5 -11 10 -3 6 -1 10 4 10 6 0 11 -4 11 -10z
m-2500 -64 c0 -11 -19 -15 -25 -6 -3 5 1 10 9 10 9 0 16 -2 16 -4z m130 -10
c0 -3 -4 -8 -10 -11 -5 -3 -10 -1 -10 4 0 6 5 11 10 11 6 0 10 -2 10 -4z m134
-42 c3 -9 6 -23 6 -32 0 -13 -3 -12 -19 4 -10 10 -16 25 -13 32 6 17 19 15 26
-4z m-34 -74 c0 -5 -2 -10 -4 -10 -3 0 -8 5 -11 10 -3 6 -1 10 4 10 6 0 11 -4
11 -10z m-160 -31 c-6 -11 -8 -24 -5 -29 3 -5 0 -12 -7 -16 -7 -4 -10 -4 -6 1
4 4 0 14 -10 22 -9 8 -12 12 -6 9 7 -3 15 5 18 19 4 14 11 23 16 20 7 -4 6
-13 0 -26z m181 -23 c-7 -8 -10 -20 -6 -26 3 -5 -1 -10 -10 -10 -15 0 -14 3 1
30 10 16 20 27 22 25 3 -3 -1 -11 -7 -19z m-122 5 c9 -6 10 -10 2 -16 -16 -9
-44 2 -36 15 8 12 16 12 34 1z m45 -17 c3 -8 2 -12 -4 -9 -6 3 -10 1 -10 -4 0
-6 6 -11 13 -12 6 0 1 -5 -12 -10 -17 -7 -28 -6 -35 2 -8 9 -8 10 2 5 6 -4 12
-2 12 4 0 8 19 38 26 40 1 0 5 -7 8 -16z m-24 -85 c0 -11 -4 -18 -9 -15 -5 4
-11 0 -14 -6 -7 -21 -17 -4 -10 20 7 28 33 29 33 1z m-72 -39 c-2 -18 -10 -26
-28 -28 -25 -3 -25 -2 -5 14 14 11 16 18 8 21 -20 7 -15 19 7 19 16 0 20 -6
18 -26z m3427 -366 c33 -9 93 -31 133 -51 l72 -35 0 -113 c0 -77 -4 -115 -12
-117 -6 -2 -13 -29 -16 -61 -4 -46 -11 -64 -39 -96 l-34 -40 135 -3 c147 -3
142 -6 87 54 -19 22 -26 42 -29 88 -3 42 -8 60 -18 60 -11 0 -14 20 -14 86 0
64 3 85 13 82 6 -3 38 -36 70 -74 65 -77 117 -176 143 -274 23 -87 23 -244 1
-330 -81 -312 -371 -532 -682 -518 -68 3 -70 4 -73 31 -2 15 1 27 7 27 6 0 11
7 11 15 0 9 11 20 24 27 26 11 53 64 80 157 13 44 16 102 15 290 0 130 -4 299
-8 376 -7 125 -11 149 -42 224 -23 59 -41 89 -59 99 -29 17 -50 54 -50 88 0
19 6 23 43 27 63 6 174 -3 242 -19z m-345 -23 c0 -10 -20 -39 -43 -63 -28 -27
-54 -68 -72 -113 -29 -70 -29 -71 -33 -320 -2 -137 1 -315 6 -395 8 -127 13
-155 42 -229 25 -63 39 -87 61 -100 16 -9 29 -22 29 -28 0 -7 5 -13 10 -13 6
0 10 -9 10 -21 0 -16 -4 -19 -22 -13 -251 76 -435 279 -484 531 -18 97 -18
166 2 260 46 223 202 413 410 498 72 30 84 31 84 6z m85 -326 c17 -16 25 -35
25 -60 l0 -35 -64 0 c-35 0 -72 -3 -82 -7 -15 -6 -16 -1 -11 42 9 82 79 114
132 60z m25 -184 c0 -48 -24 -79 -67 -87 -45 -9 -93 38 -93 90 l0 36 80 0 80
0 0 -39z m-26 -172 c21 -17 26 -29 26 -65 l0 -44 -75 0 -75 0 0 44 c0 36 5 48
26 65 15 12 37 21 49 21 12 0 34 -9 49 -21z m26 -201 c0 -54 -22 -78 -72 -78
-51 0 -78 27 -78 80 l0 40 75 0 75 0 0 -42z"/>
<path d="M3635 3430 c3 -5 8 -10 11 -10 2 0 4 5 4 10 0 6 -5 10 -11 10 -5 0
-7 -4 -4 -10z"/>
<path d="M3606 3313 c-6 -14 -5 -15 5 -6 7 7 10 15 7 18 -3 3 -9 -2 -12 -12z"/>
<path d="M587 3173 c-4 -3 -7 -13 -7 -22 1 -13 3 -13 11 2 11 19 8 33 -4 20z"/>
<path d="M3620 3075 c0 -8 7 -15 15 -15 8 0 15 7 15 15 0 8 -7 15 -15 15 -8 0
-15 -7 -15 -15z"/>
<path d="M3242 3050 c0 -14 2 -19 5 -12 2 6 2 18 0 25 -3 6 -5 1 -5 -13z"/>
<path d="M2482 2940 c0 -14 2 -19 5 -12 2 6 2 18 0 25 -3 6 -5 1 -5 -13z"/>
<path d="M2480 2890 c0 -5 7 -7 15 -4 8 4 15 8 15 10 0 2 -7 4 -15 4 -8 0 -15
-4 -15 -10z"/>
<path d="M2487 2816 c1 -30 -1 -66 -7 -80 -6 -17 -6 -26 3 -29 9 -3 9 -8 -2
-20 -8 -11 -9 -17 -2 -17 7 0 9 -18 5 -52 -3 -29 -6 -63 -7 -75 -1 -12 -5 -25
-9 -29 -5 -4 -8 -15 -8 -24 0 -10 -7 -23 -15 -30 -8 -7 -15 -16 -15 -21 0 -5
7 -6 15 -3 10 4 15 0 15 -10 0 -13 6 -15 27 -10 15 4 37 8 48 8 11 1 26 5 33
9 6 5 17 5 22 2 6 -4 10 -3 9 2 -1 4 -1 22 0 39 1 27 5 31 25 29 28 -3 40 4
49 29 6 15 10 16 22 6 24 -20 31 -2 7 18 -12 11 -19 22 -15 26 3 3 1 6 -6 6
-7 0 -10 4 -6 10 3 5 12 7 20 3 11 -3 13 -1 9 10 -3 8 -1 18 5 22 14 8 14 45
1 45 -5 0 -10 7 -10 15 0 8 -5 15 -11 15 -5 0 -7 -5 -4 -10 3 -6 -1 -13 -9
-16 -9 -3 -13 -10 -10 -15 3 -5 -2 -9 -10 -9 -8 0 -18 5 -22 11 -4 8 -9 7 -15
-2 -8 -12 -11 -11 -19 1 -9 13 -10 13 -10 0 0 -13 -1 -13 -10 0 -5 8 -10 11
-10 6 0 -5 -6 -3 -14 4 -8 6 -12 18 -9 26 3 8 -1 14 -10 14 -8 0 -18 7 -21 16
-3 8 -2 13 2 10 4 -2 14 -1 22 5 13 7 12 9 -2 9 -10 0 -18 7 -18 15 0 8 -4 15
-8 15 -5 0 -9 14 -9 30 0 17 -4 35 -10 41 -6 6 -9 -9 -6 -45z m101 -220 c-1
-14 -5 -23 -9 -20 -7 4 0 44 7 44 2 0 3 -11 2 -24z m32 14 c0 -5 -4 -10 -10
-10 -5 0 -10 5 -10 10 0 6 5 10 10 10 6 0 10 -4 10 -10z"/>
<path d="M2811 2834 c0 -11 3 -14 6 -6 3 7 2 16 -1 19 -3 4 -6 -2 -5 -13z"/>
<path d="M580 2828 c0 -4 7 -8 15 -8 8 0 15 4 15 8 0 5 -7 9 -15 9 -8 0 -15
-4 -15 -9z"/>
<path d="M3750 2833 c-8 -3 -25 -16 -39 -29 l-24 -23 42 3 c47 3 75 21 48 32
-9 3 -14 10 -11 15 6 10 5 10 -16 2z"/>
<path d="M2810 2800 c0 -5 5 -10 10 -10 6 0 10 5 10 10 0 6 -4 10 -10 10 -5 0
-10 -4 -10 -10z"/>
<path d="M2601 2771 c-24 -7 -35 -39 -23 -70 4 -11 8 -10 18 3 8 11 14 13 19
7 3 -6 16 -11 28 -11 l22 1 -23 12 c-12 7 -19 16 -16 20 4 4 -1 7 -11 7 -17 0
-17 1 0 20 10 11 16 20 14 19 -2 -1 -15 -4 -28 -8z"/>
<path d="M3730 2766 c0 -9 5 -16 10 -16 6 0 10 4 10 9 0 6 -4 13 -10 16 -5 3
-10 -1 -10 -9z"/>
<path d="M2759 2702 c-7 -15 -15 -30 -17 -34 -1 -4 3 -5 10 -3 9 4 14 -3 15
-17 2 -18 0 -20 -7 -8 -7 11 -10 3 -10 -28 0 -29 5 -44 15 -48 22 -9 75 16 75
34 0 9 12 28 27 44 22 23 24 28 10 34 -9 3 -13 12 -10 20 7 18 -11 18 -26 1
-13 -17 5 -38 25 -30 26 10 14 -6 -16 -22 -28 -14 -31 -14 -36 0 -4 9 -2 27 5
41 11 26 12 24 -33 38 -7 3 -19 -8 -27 -22z m41 -116 c0 -2 -9 -6 -20 -9 -11
-3 -20 -1 -20 4 0 5 9 9 20 9 11 0 20 -2 20 -4z"/>
<path d="M671 2604 c0 -11 3 -14 6 -6 3 7 2 16 -1 19 -3 4 -6 -2 -5 -13z"/>
<path d="M2410 2596 c0 -12 -5 -16 -15 -12 -20 7 -19 -8 1 -28 14 -15 14 -16
-5 -16 -14 0 -19 5 -15 15 4 8 1 15 -5 15 -6 0 -11 7 -11 16 0 14 -3 14 -15 4
-17 -14 -20 -50 -5 -50 6 0 10 -8 9 -17 0 -13 -2 -14 -6 -4 -4 10 -7 11 -13 1
-12 -20 -32 0 -26 25 3 13 2 27 -4 30 -5 3 -10 0 -10 -8 0 -10 -7 -13 -19 -10
-13 3 -20 -1 -23 -13 -1 -9 -13 -18 -25 -19 -16 -1 -23 6 -29 29 -7 27 -9 24
-12 -28 -3 -58 -3 -59 -20 -35 -9 13 -17 30 -19 37 -3 24 -13 26 -13 4 0 -12
-4 -22 -9 -22 -4 0 -15 -17 -24 -37 l-15 -38 -1 47 c-1 44 -19 80 -21 41 0
-10 -3 -40 -6 -67 -6 -46 -5 -49 14 -44 12 3 23 1 26 -6 2 -6 5 -2 6 9 1 18 2
18 11 -4 l9 -23 27 26 c18 18 29 23 34 15 5 -9 15 -8 38 4 17 9 33 11 37 6 10
-16 36 -9 41 11 4 13 11 19 22 15 9 -2 28 1 43 9 19 10 29 11 37 3 8 -8 11 -8
11 1 0 7 6 12 14 12 7 0 19 7 26 15 9 10 9 15 1 15 -14 0 -14 35 0 62 9 17 9
20 -4 15 -8 -3 -20 0 -26 6 -8 8 -11 6 -11 -7z m-127 -96 c3 -11 1 -18 -4 -14
-5 3 -9 12 -9 20 0 20 7 17 13 -6z m-129 -21 c-3 -6 0 -16 7 -21 12 -8 11 -9
-1 -5 -18 4 -27 37 -10 37 6 0 8 -5 4 -11z"/>
<path d="M2857 2579 c-9 -10 -17 -23 -17 -28 0 -4 -11 -6 -25 -3 -14 2 -25 0
-25 -4 1 -42 70 -40 70 2 0 12 7 27 16 32 9 5 12 12 7 15 -5 3 -17 -3 -26 -14z"/>
<path d="M3030 2570 c0 -5 5 -10 11 -10 5 0 7 5 4 10 -3 6 -8 10 -11 10 -2 0
-4 -4 -4 -10z"/>
<path d="M3410 2569 c0 -6 5 -19 10 -29 7 -12 7 -28 0 -44 -8 -22 -7 -26 8
-26 26 0 62 44 51 61 -8 12 -11 12 -19 -1 -9 -13 -11 -13 -20 0 -5 8 -10 23
-10 33 0 9 -4 17 -10 17 -5 0 -10 -5 -10 -11z"/>
<path d="M2718 2563 c7 -3 16 -2 19 1 4 3 -2 6 -13 5 -11 0 -14 -3 -6 -6z"/>
<path d="M2890 2519 c0 -5 5 -7 10 -4 6 3 10 8 10 11 0 2 -4 4 -10 4 -5 0 -10
-5 -10 -11z"/>
<path d="M1965 2502 c-5 -14 -13 -21 -22 -18 -18 7 -30 -23 -13 -34 13 -8 5
-50 -10 -50 -6 0 -12 12 -16 28 -3 15 -7 32 -9 37 -1 6 -6 -11 -10 -37 -4 -27
-12 -48 -17 -48 -5 0 -6 -4 -3 -10 9 -15 45 -12 45 4 0 9 7 12 20 9 17 -5 20
0 20 26 0 17 5 31 10 31 6 0 10 -11 10 -25 0 -28 9 -31 29 -12 11 10 14 10 18
0 9 -24 23 -13 23 17 0 28 -2 30 -21 19 -27 -14 -37 -4 -42 46 -3 35 -5 37
-12 17z"/>
<path d="M2010 2470 c0 -5 5 -10 10 -10 6 0 10 5 10 10 0 6 -4 10 -10 10 -5 0
-10 -4 -10 -10z"/>
<path d="M3428 2452 c-37 -4 -36 -22 1 -22 16 0 31 -6 34 -12 2 -7 6 -11 9 -8
3 3 0 14 -6 25 -8 14 -19 19 -38 17z"/>
<path d="M1834 2428 c-4 -13 -7 -31 -8 -41 -1 -9 -4 -17 -8 -17 -5 0 -12 0
-16 0 -5 0 -13 12 -19 28 -11 26 -11 26 -12 -15 -1 -24 4 -43 9 -43 6 0 10 5
10 10 0 7 7 7 20 0 26 -14 43 -4 35 21 -4 13 -2 19 9 19 18 0 22 25 6 35 -6 4
-8 11 -5 16 4 5 2 9 -4 9 -5 0 -13 -10 -17 -22z"/>
<path d="M2670 2435 c0 -8 4 -15 10 -15 5 0 7 7 4 15 -4 8 -8 15 -10 15 -2 0
-4 -7 -4 -15z"/>
<path d="M1516 2391 c-3 -5 0 -12 6 -15 10 -5 10 -7 -1 -12 -11 -5 -8 -11 10
-25 22 -17 22 -19 5 -19 -11 0 -28 -8 -39 -17 -20 -17 -20 -17 -13 2 6 16 5
18 -6 7 -15 -15 -2 -41 28 -57 25 -13 28 -45 3 -45 -20 0 -35 -16 -16 -17 7
-1 33 -4 60 -6 26 -3 47 -3 47 1 0 12 -20 37 -20 26 0 -7 -7 -15 -16 -18 -14
-5 -15 -1 -10 26 3 18 7 39 8 46 1 7 12 15 25 18 13 4 23 10 23 15 0 5 -6 6
-14 3 -8 -3 -16 3 -19 16 -4 17 -3 19 9 9 11 -9 14 -8 14 4 0 8 -7 20 -15 27
-8 7 -13 16 -10 20 3 5 1 11 -4 14 -5 4 -13 2 -16 -4 -5 -8 -11 -8 -20 0 -8 7
-15 7 -19 1z m7 -117 c-4 -10 -9 -12 -15 -6 -12 12 -1 35 12 27 5 -3 6 -13 3
-21z"/>
<path d="M1671 2383 c-1 -13 -5 -23 -10 -23 -5 0 -11 -9 -14 -20 -4 -18 -2
-20 16 -14 12 3 23 7 24 8 1 1 -2 17 -7 36 -5 24 -8 28 -9 13z"/>
<path d="M3115 2360 c6 -32 14 -40 40 -40 19 0 23 4 18 18 -15 38 -65 57 -58
22z"/>
<path d="M1700 2345 c0 -8 4 -15 10 -15 5 0 7 7 4 15 -4 8 -8 15 -10 15 -2 0
-4 -7 -4 -15z"/>
<path d="M981 2343 c-1 -7 -8 -13 -16 -13 -8 0 -15 -9 -15 -20 0 -11 5 -20 11
-20 5 0 7 -5 4 -10 -4 -6 -10 -8 -15 -5 -4 3 -6 -4 -3 -15 3 -11 9 -17 14 -14
5 3 9 -2 9 -10 0 -9 -7 -16 -15 -16 -8 0 -15 -7 -15 -15 0 -8 4 -15 10 -15 13
0 44 49 37 57 -4 3 -1 15 4 26 9 15 13 17 20 6 4 -7 12 -10 16 -5 4 4 0 13 -9
20 -10 7 -22 24 -27 37 -5 13 -10 18 -10 12z"/>
<path d="M1430 2290 c0 -5 5 -10 11 -10 5 0 7 5 4 10 -3 6 -8 10 -11 10 -2 0
-4 -4 -4 -10z"/>
<path d="M1049 2256 c6 -8 20 -16 31 -19 16 -4 17 -2 7 14 -6 10 -20 19 -31
19 -15 0 -16 -3 -7 -14z"/>
<path d="M989 2193 c-3 -51 -6 -69 -18 -90 -21 -40 -14 -53 28 -53 25 0 41 5
45 15 3 10 -1 15 -13 15 -10 0 -21 8 -24 19 -4 16 1 18 27 17 40 -1 41 22 2
44 -31 17 -46 40 -26 40 6 0 8 -4 5 -10 -3 -5 1 -10 9 -10 21 0 20 10 -1 26
-26 20 -33 17 -34 -13z"/>
<path d="M1090 2174 c0 -8 5 -12 10 -9 6 4 8 11 5 16 -9 14 -15 11 -15 -7z"/>
<path d="M907 2103 c-4 -3 -7 -11 -7 -17 0 -6 5 -5 12 2 6 6 9 14 7 17 -3 3
-9 2 -12 -2z"/>
<path d="M3293 2003 c9 -2 23 -2 30 0 6 3 -1 5 -18 5 -16 0 -22 -2 -12 -5z"/>
<path d="M3538 2003 c6 -2 18 -2 25 0 6 3 1 5 -13 5 -14 0 -19 -2 -12 -5z"/>
<path d="M3775 3080 c-3 -5 -1 -10 4 -10 6 0 11 5 11 10 0 6 -2 10 -4 10 -3 0
-8 -4 -11 -10z"/>
<path d="M3783 2996 c0 -8 6 -12 14 -9 7 3 10 9 7 14 -8 14 -21 11 -21 -5z"/>
<path d="M4343 1013 c9 -2 23 -2 30 0 6 3 -1 5 -18 5 -16 0 -22 -2 -12 -5z"/>
<path d="M4280 950 c0 -14 7 -20 21 -20 15 0 19 4 15 16 -3 9 -6 18 -6 20 0 2
-7 4 -15 4 -8 0 -15 -9 -15 -20z"/>
<path d="M4397 950 c-4 -16 0 -20 19 -20 17 0 24 6 24 20 0 13 -7 20 -19 20
-10 0 -21 -9 -24 -20z"/>
<path d="M3820 1319 c0 -5 5 -7 10 -4 6 3 10 8 10 11 0 2 -4 4 -10 4 -5 0 -10
-5 -10 -11z"/>
<path d="M3790 1090 c0 -5 11 -10 24 -10 14 0 28 5 31 10 4 6 -7 10 -24 10
-17 0 -31 -4 -31 -10z"/>
<path d="M3799 942 c-12 -15 -12 -19 3 -34 14 -14 18 -15 18 -4 0 8 6 16 12
18 10 4 9 9 -3 20 -15 15 -17 15 -30 0z"/>
<path d="M2568 1303 c23 -2 59 -2 80 0 20 2 1 4 -43 4 -44 0 -61 -2 -37 -4z"/>
<path d="M2298 1293 c28 -2 76 -2 105 0 28 2 5 3 -53 3 -58 0 -81 -1 -52 -3z"/>
<path d="M2023 1283 c15 -2 37 -2 50 0 12 2 0 4 -28 4 -27 0 -38 -2 -22 -4z"/>
<path d="M1266 799 c55 -55 145 -57 194 -4 33 35 18 43 -20 11 -43 -36 -106
-36 -148 -1 -42 36 -63 31 -26 -6z"/>
<path d="M316 763 c-104 -35 -191 -149 -203 -268 -6 -60 16 -147 48 -185 11
-14 18 -20 15 -14 -9 19 93 113 158 146 l59 30 -6 -124 c-3 -67 -10 -135 -16
-150 -10 -26 -8 -28 23 -34 51 -9 140 13 193 49 170 115 190 334 44 477 -87
86 -199 111 -315 73z m198 -142 c8 -13 -102 -104 -115 -95 -7 4 7 25 37 55 47
48 67 58 78 40z"/>
<path d="M1020 771 c-90 -29 -165 -95 -202 -176 -26 -57 -31 -170 -10 -219
l13 -30 22 31 c21 30 151 103 182 103 17 0 19 -69 6 -219 -6 -82 -6 -83 19
-93 14 -5 50 -7 80 -4 110 13 207 83 254 185 30 66 29 188 -3 251 -55 107
-151 171 -266 176 -38 2 -81 0 -95 -5z m136 -132 c7 -12 -83 -98 -103 -99 -22
0 -15 13 34 62 50 51 58 55 69 37z"/>
<path d="M1700 771 c-140 -46 -224 -158 -225 -298 0 -39 3 -74 6 -77 3 -3 58
17 123 44 65 28 125 50 133 50 12 0 14 -25 12 -162 l-2 -163 58 2 c151 5 285
148 285 303 0 109 -73 226 -175 277 -53 28 -166 40 -215 24z m124 -183 c-70
-66 -90 -53 -28 19 38 44 49 51 64 43 17 -9 13 -15 -36 -62z"/>
</g>
</svg>
