<?xml version="1.0" standalone="no"?>
<!DOCTYPE svg PUBLIC "-//W3C//DTD SVG 20010904//EN"
 "http://www.w3.org/TR/2001/REC-SVG-20010904/DTD/svg10.dtd">
<svg version="1.0" xmlns="http://www.w3.org/2000/svg"
 width="501.000000pt" height="511.000000pt" viewBox="0 0 501.000000 511.000000"
 preserveAspectRatio="xMidYMid meet">

<g transform="translate(0.000000,511.000000) scale(0.100000,-0.100000)"
fill="#000000" stroke="none">
<path d="M2227 4846 c-51 -19 -101 -59 -128 -102 -12 -20 -48 -104 -79 -187
l-58 -150 -86 -29 c-153 -51 -273 -137 -374 -269 -10 -14 -5 -13 28 4 42 20
76 24 258 27 52 1 91 4 88 7 -3 3 -40 8 -83 12 -100 8 -106 24 -36 95 82 83
179 113 274 85 52 -16 72 -63 52 -123 -8 -22 -25 -51 -39 -64 -21 -20 -31 -22
-76 -17 -48 6 -44 3 47 -28 216 -73 324 -134 438 -245 112 -110 150 -215 108
-296 -27 -52 -20 -58 10 -9 23 36 24 47 23 193 0 108 -5 171 -16 207 -8 29
-11 50 -6 47 8 -5 18 -27 79 -161 17 -39 37 -66 53 -75 15 -7 105 -118 201
-247 143 -192 175 -240 175 -267 0 -25 5 -34 23 -40 36 -11 52 -29 210 -238
l150 -199 4 -71 c5 -70 15 -90 41 -81 7 3 17 -7 23 -22 8 -23 6 -31 -19 -57
-65 -70 -363 -395 -435 -475 -68 -75 -82 -86 -112 -86 -42 -1 -46 -4 -48 -49
-2 -36 -12 -47 -20 -23 -2 7 -61 -31 -151 -98 -81 -60 -168 -125 -192 -143
-43 -32 -53 -58 -23 -56 8 1 80 49 161 108 146 105 186 129 134 81 -14 -13
-26 -28 -26 -34 0 -5 -19 -23 -42 -41 -24 -17 -43 -36 -43 -42 0 -7 -20 -28
-45 -47 -25 -19 -44 -40 -44 -48 1 -7 -4 -13 -12 -13 -8 0 -14 -6 -14 -14 0
-22 -22 -24 -54 -5 -21 13 -34 15 -42 8 -8 -7 -24 -2 -50 16 -42 28 -67 29
-72 2 -5 -25 6 -50 18 -42 8 5 7 11 0 20 -16 20 -3 40 16 24 17 -14 18 -33 2
-59 -10 -16 -8 -26 10 -58 12 -22 22 -50 22 -63 -1 -27 -53 -86 -96 -109 -21
-11 -30 -24 -32 -47 -5 -48 43 -73 139 -73 41 0 91 -3 112 -6 37 -7 37 -7 37
-54 0 -39 -4 -49 -24 -59 -19 -11 -25 -24 -30 -73 -8 -64 -19 -105 -30 -100
-3 1 -70 1 -148 0 -96 -1 -128 -3 -98 -8 44 -7 44 -7 10 -10 -123 -10 -317 10
-305 31 11 16 -29 -4 -111 -57 -102 -65 -114 -89 -114 -211 0 -103 6 -112 100
-155 65 -30 123 -47 65 -19 -45 22 -32 27 26 9 40 -11 49 -23 27 -31 -20 -6
116 -34 232 -48 189 -21 500 0 659 47 80 23 164 68 195 104 25 31 26 35 20
113 -9 115 -31 151 -106 179 -40 14 -57 25 -54 35 3 7 -1 13 -9 13 -8 0 -15 6
-15 13 0 8 -26 22 -61 32 -50 16 -62 16 -69 5 -9 -14 -17 19 -22 89 -2 22 -10
38 -23 45 -11 6 -21 11 -22 11 0 0 5 69 12 153 l13 152 41 46 c22 26 38 50 36
55 -4 6 815 938 895 1019 9 9 28 32 44 53 16 20 36 37 45 37 9 0 31 18 49 40
l33 40 -26 27 c-14 16 -25 22 -23 14 2 -7 -3 -16 -11 -19 -8 -2 -11 0 -7 6 9
15 -14 26 -27 13 -8 -8 -7 -11 2 -11 11 0 11 -3 1 -15 -7 -8 -16 -12 -22 -9
-5 3 -15 0 -23 -6 -8 -6 -24 -10 -37 -8 -19 2 -23 9 -21 33 2 22 0 26 -7 15
-7 -11 -10 -12 -10 -2 0 8 9 16 19 19 20 5 35 49 17 51 -6 0 -21 4 -32 7 -17
5 -23 2 -28 -19 -3 -14 -11 -26 -16 -26 -5 0 5 28 24 62 23 42 41 64 55 66 11
2 21 8 21 13 0 5 17 6 41 3 39 -7 41 -6 31 13 -6 11 -7 25 -2 33 6 9 -3 24
-29 49 -21 20 -45 48 -55 64 -10 15 -23 27 -29 27 -6 0 -1 -10 11 -23 36 -39
25 -37 -45 5 -53 31 -79 56 -118 110 -27 39 -66 91 -85 117 -20 25 -58 78 -84
116 -27 39 -60 86 -74 105 -22 30 -20 29 17 -9 23 -24 53 -60 67 -80 16 -23
24 -30 24 -18 0 9 -4 17 -10 17 -5 0 -10 4 -10 10 0 9 -61 98 -107 158 -10 12
-17 27 -16 32 2 6 -1 10 -5 10 -5 0 -24 21 -42 47 -19 25 -27 43 -19 39 8 -4
5 0 -5 8 -11 9 -16 16 -11 16 5 0 -1 7 -13 16 -12 8 -22 21 -22 27 0 16 -69
113 -77 109 -4 -1 -8 5 -9 13 -1 9 -10 27 -19 41 -8 13 -15 30 -13 37 3 13
-83 148 -104 164 -17 13 -65 15 -86 4 -10 -5 -45 -4 -82 1 -36 5 -82 10 -102
12 -25 2 -56 17 -94 46 -30 23 -57 40 -59 38 -3 -2 18 -21 45 -41 48 -36 63
-68 39 -82 -15 -10 -1 -66 25 -94 l21 -24 -27 19 c-37 26 -53 66 -38 94 6 12
9 28 6 36 -8 20 -36 17 -36 -3 0 -15 -4 -14 -19 6 -51 67 -52 73 -20 120 16
25 29 58 29 75 0 17 14 69 30 116 33 96 38 165 15 231 -36 101 -115 159 -223
166 -42 2 -81 -2 -105 -11z m84 -26 c20 -11 25 -39 10 -55 -5 -6 -34 -84 -65
-175 l-57 -165 -52 2 c-81 4 -99 10 -87 31 23 40 110 288 110 313 0 42 93 74
141 49z m235 -216 c4 -14 2 -35 -4 -47 -12 -24 -59 -128 -75 -167 -11 -27 -13
-36 -15 -62 -1 -10 -6 -18 -12 -18 -8 0 -8 52 -1 133 1 5 5 6 10 3 5 -3 12 1
15 10 3 8 2 13 -3 10 -5 -4 -7 3 -4 13 3 13 10 18 20 14 13 -5 15 -1 11 22 -6
29 8 74 27 87 5 4 6 8 2 8 -11 0 2 20 13 20 5 0 13 -12 16 -26z m-400 -199
c16 -12 17 -14 2 -15 -23 0 -48 11 -48 21 0 14 24 11 46 -6z m548 -333 c-16
-24 -41 -26 -53 -4 -7 14 -6 25 6 41 l15 23 22 -21 c16 -17 18 -25 10 -39z
m192 32 c-5 -14 -4 -15 9 -4 12 10 18 10 30 0 19 -16 19 -44 0 -60 -13 -10
-19 -9 -38 6 -21 19 -21 19 -7 -1 8 -11 20 -23 25 -27 6 -4 6 -8 1 -8 -17 0
-46 33 -46 52 0 21 17 58 26 58 4 0 3 -7 0 -16z m-272 -60 c5 -14 4 -15 -9 -4
-17 14 -19 20 -6 20 5 0 12 -7 15 -16z m370 -44 l21 -25 -26 23 c-14 12 -28
22 -31 22 -4 0 -16 -16 -28 -35 l-22 -36 25 -37 c14 -20 147 -201 295 -402
149 -201 267 -366 262 -368 -4 -2 -23 6 -41 17 -38 23 -54 27 -43 9 4 -7 3 -8
-5 -4 -6 4 -9 11 -6 16 7 11 -71 53 -104 57 -13 1 -27 6 -30 10 -3 4 -23 17
-43 27 -21 10 -35 22 -33 26 6 9 -40 71 -48 65 -4 -3 -5 -2 -3 1 6 7 -25 52
-178 262 -65 89 -122 162 -127 162 -14 0 8 56 57 141 56 100 77 126 83 107 2
-7 13 -24 25 -38z m-497 -93 c33 -18 64 -63 79 -114 17 -55 13 -63 -11 -26
-10 15 -45 56 -78 91 -54 55 -58 62 -36 62 13 -1 34 -6 46 -13z m548 -63 c9
-15 12 -23 6 -20 -11 7 -35 46 -28 46 3 0 12 -12 22 -26z m-231 -7 c14 -22
-15 -53 -40 -43 -16 6 -16 9 -4 17 12 8 12 12 2 16 -10 4 -10 8 -1 19 14 17
29 14 43 -9z m324 -122 c-3 -3 -9 2 -12 12 -6 14 -5 15 5 6 7 -7 10 -15 7 -18z
m51 -69 c-2 -2 -13 8 -23 22 l-19 27 24 -22 c12 -12 21 -24 18 -27z m124 -441
c-8 -22 -22 -18 -16 5 3 11 9 17 14 15 4 -3 6 -12 2 -20z m-28 5 c-3 -5 -11
-10 -16 -10 -6 0 -7 5 -4 10 3 6 11 10 16 10 6 0 7 -4 4 -10z m171 -164 c2
-14 -4 -13 -34 5 -36 22 -72 53 -72 63 0 12 104 -55 106 -68z m104 4 c8 -5 11
-10 5 -10 -5 0 -21 10 -35 21 -24 20 -5 13 30 -11z m-50 -25 c0 -2 -7 -1 -17
2 -12 5 -14 3 -8 -8 5 -8 4 -11 0 -6 -5 4 -10 14 -11 22 -2 12 2 12 17 5 10
-6 19 -13 19 -15z m-10 -39 c41 -24 77 -42 80 -39 3 3 -3 10 -13 17 -40 24
-50 36 -19 21 18 -9 36 -14 40 -11 4 2 9 -7 10 -21 1 -14 7 -32 13 -39 8 -10
5 -25 -15 -60 -20 -35 -23 -50 -15 -60 6 -7 8 -18 4 -24 -8 -13 -55 26 -55 45
0 6 -13 24 -30 40 -16 15 -27 32 -24 37 3 4 1 8 -4 8 -9 0 -52 64 -52 77 0 3
8 -1 17 -8 12 -10 10 -4 -5 18 -40 57 -31 57 68 -1z m45 24 c3 -6 -1 -7 -9 -4
-18 7 -21 14 -7 14 6 0 13 -4 16 -10z m110 -309 c3 -10 2 -27 -2 -37 -6 -17
-5 -17 10 -5 11 9 17 10 17 2 0 -10 -14 -15 -34 -12 -5 1 -13 -4 -18 -11 -12
-18 -39 18 -31 40 15 43 47 56 58 23z m70 -61 c3 -5 1 -10 -4 -10 -6 0 -11 5
-11 10 0 6 2 10 4 10 3 0 8 -4 11 -10z m-36 -37 c16 -30 -21 -82 -45 -62 -18
15 3 79 27 79 4 0 12 -8 18 -17z m41 13 c0 -3 -4 -8 -10 -11 -5 -3 -10 -1 -10
4 0 6 5 11 10 11 6 0 10 -2 10 -4z m-1004 -1210 c8 -21 -15 -58 -34 -54 -9 2
-18 11 -20 21 -7 36 42 65 54 33z m-261 -156 c9 -15 -4 -47 -22 -54 -26 -10
-47 17 -34 43 12 22 45 28 56 11z m131 -358 c-14 -13 -17 12 -10 70 l9 63 3
-64 c2 -35 1 -66 -2 -69z m4 -32 c0 -5 -4 -10 -9 -10 -6 0 -13 5 -16 10 -3 6
1 10 9 10 9 0 16 -4 16 -10z m155 -10 c-3 -5 -11 -10 -16 -10 -6 0 -7 5 -4 10
3 6 11 10 16 10 6 0 7 -4 4 -10z m247 -185 c13 -13 -6 -53 -36 -73 -62 -42
-145 -20 -101 27 32 37 118 65 137 46z m-1012 -53 c82 -41 80 -86 -5 -95 -41
-4 -68 7 -112 47 -25 21 -31 71 -10 80 21 9 70 -3 127 -32z"/>
<path d="M2655 4089 c-4 -6 -4 -13 -1 -16 3 -4 6 -1 6 6 0 7 5 9 12 5 7 -4 8
-3 4 4 -9 15 -13 15 -21 1z"/>
<path d="M2417 1229 c7 -7 15 -10 18 -7 3 3 -2 9 -12 12 -14 6 -15 5 -6 -5z"/>
<path d="M1503 4081 c-54 -45 -74 -110 -52 -171 7 -21 8 -20 4 9 -8 52 13 112
52 148 36 35 34 45 -4 14z"/>
<path d="M3806 2923 c-6 -14 -5 -15 5 -6 7 7 10 15 7 18 -3 3 -9 -2 -12 -12z"/>
<path d="M3862 2758 c-6 -6 -12 -21 -11 -32 0 -20 0 -20 9 0 12 31 28 38 47
22 14 -11 16 -11 11 2 -6 19 -40 24 -56 8z"/>
<path d="M4087 2170 c-128 -9 -147 -20 -147 -87 l0 -43 184 0 c102 0 187 -4
190 -9 4 -5 2 -11 -4 -13 -5 -2 -13 -102 -19 -236 -5 -128 -12 -236 -15 -239
-3 -4 -6 2 -6 11 0 15 -8 11 -40 -18 -22 -20 -44 -36 -49 -36 -10 0 -20 86
-13 129 3 23 10 31 24 31 29 0 58 18 58 36 0 12 -5 14 -17 9 -10 -5 -34 -10
-53 -12 -30 -3 -32 -2 -12 7 37 16 26 20 -53 20 -57 0 -75 -3 -75 -14 0 -9 -8
-12 -25 -8 -18 3 -25 0 -25 -11 0 -9 14 -17 39 -21 33 -5 39 -10 36 -26 -2
-11 -1 -21 3 -24 4 -2 5 -37 2 -78 l-5 -73 -62 3 -63 4 0 -60 c0 -38 5 -64 13
-71 13 -10 55 -19 100 -20 18 -1 19 -13 15 -208 -2 -172 -5 -207 -18 -211 -8
-3 -30 -20 -47 -38 -56 -55 -39 -119 40 -154 l40 -18 -32 -16 c-37 -20 -41
-29 -6 -16 32 12 94 15 125 6 23 -6 23 -6 8 7 -24 19 -23 23 12 37 89 37 93
131 8 185 l-28 17 0 205 0 204 83 -1 c105 -1 194 12 214 33 9 8 19 33 22 54 6
38 6 38 61 43 53 5 54 6 62 41 4 19 4 57 0 85 -7 47 -8 49 -42 52 l-35 3 -2
97 c-1 53 -5 174 -8 268 l-6 171 -46 7 c-56 7 -239 6 -386 -4z m383 -365 c17
-9 30 -19 31 -23 8 -72 7 -77 -33 -97 -32 -16 -40 -14 -75 18 -36 32 -27 77
22 105 25 14 21 15 55 -3z"/>
<path d="M2631 1644 c-19 -13 -29 -24 -23 -24 6 0 24 11 39 25 35 31 28 31
-16 -1z"/>
<path d="M2023 911 c16 -5 70 -12 120 -15 64 -3 77 -2 42 3 -92 15 -192 22
-162 12z"/>
</g>
</svg>
