<?xml version="1.0" standalone="no"?>
<!DOCTYPE svg PUBLIC "-//W3C//DTD SVG 20010904//EN"
 "http://www.w3.org/TR/2001/REC-SVG-20010904/DTD/svg10.dtd">
<svg version="1.0" xmlns="http://www.w3.org/2000/svg"
 width="482.000000pt" height="602.000000pt" viewBox="0 0 482.000000 602.000000"
 preserveAspectRatio="xMidYMid meet">

<g transform="translate(0.000000,602.000000) scale(0.100000,-0.100000)"
fill="#000000" stroke="none">
<path d="M1745 5913 c-131 -15 -213 -45 -239 -86 -31 -48 -108 -332 -130 -482
-13 -86 -16 -91 -52 -120 -81 -62 -160 -151 -196 -221 -53 -101 -66 -185 -48
-311 21 -152 23 -229 9 -351 -12 -105 -11 -127 15 -345 15 -127 45 -326 67
-441 24 -130 37 -222 33 -245 -3 -20 2 -79 12 -131 9 -52 20 -113 23 -135 4
-28 11 -40 23 -40 40 0 26 -15 -21 -21 -40 -5 -51 -10 -49 -22 2 -9 17 -20 35
-25 27 -8 32 -15 40 -56 7 -35 13 -45 26 -43 22 4 22 -3 -7 -73 -14 -35 -33
-63 -45 -69 -21 -9 -21 -13 -17 -221 3 -175 7 -218 21 -249 10 -20 23 -39 29
-43 6 -4 67 -28 136 -54 l125 -46 3 -101 4 -101 -31 -16 c-17 -8 -31 -19 -31
-24 0 -5 -14 -14 -30 -20 -48 -16 -150 -99 -150 -122 0 -27 20 -33 86 -24 65
8 84 24 103 85 7 25 16 51 20 59 10 21 31 26 31 8 0 -36 155 -52 199 -21 15
11 86 25 200 40 l176 24 70 -25 c39 -14 88 -29 110 -33 27 -6 39 -13 36 -23
-2 -8 -7 -72 -12 -144 -14 -210 -30 -397 -36 -411 -4 -10 -19 -5 -60 18 -49
28 -60 30 -112 25 -86 -9 -91 -13 -91 -62 l0 -43 -77 -7 c-240 -21 -724 -137
-776 -185 -10 -9 -21 -36 -24 -59 -5 -37 -3 -43 16 -48 33 -8 21 -35 -19 -46
-38 -9 -94 -57 -116 -99 -49 -93 36 -217 139 -204 51 6 81 27 112 81 37 62 43
115 17 157 -11 18 -22 53 -24 78 l-5 45 73 33 c128 57 211 74 392 79 l162 5 0
-38 c0 -70 59 -134 125 -134 14 0 25 -3 25 -6 0 -4 -20 -34 -44 -68 -60 -85
-76 -119 -76 -165 0 -33 3 -40 23 -43 34 -5 26 -31 -13 -41 -68 -17 -116 -72
-141 -161 -28 -98 87 -204 192 -176 44 12 72 41 98 103 24 56 27 121 6 157
-20 36 -19 124 2 141 9 8 28 41 43 74 54 119 131 195 266 263 85 43 268 39
545 -13 133 -24 249 -67 249 -92 0 -28 64 -81 106 -88 53 -8 114 -27 120 -37
10 -16 -15 -44 -42 -46 -72 -6 -121 -68 -130 -164 -7 -70 17 -115 76 -145 53
-28 82 -28 136 -4 72 33 105 141 69 228 -8 19 -15 56 -15 82 0 38 4 48 23 56
48 21 23 101 -42 135 -42 21 -41 18 -57 177 -6 59 -5 61 17 65 26 3 37 41 20
66 -14 23 -150 62 -251 73 -52 5 -125 15 -162 21 -65 11 -375 5 -444 -8 -31
-6 -32 -4 -38 33 -3 21 -8 97 -12 168 l-6 130 83 1 c80 0 137 17 153 43 11 17
-16 183 -30 188 -22 8 -17 43 6 43 41 0 368 31 435 41 172 26 594 112 632 129
43 19 51 31 83 120 28 81 41 152 47 267 5 102 3 130 -11 167 -21 56 -71 101
-155 138 l-64 29 8 107 c3 59 10 109 13 112 4 3 7 14 7 25 0 14 15 28 48 46
39 21 68 27 149 33 55 3 108 11 118 16 53 28 -29 62 -230 95 -316 51 -372 57
-475 51 -110 -8 -155 -22 -155 -49 0 -21 24 -31 118 -47 57 -9 81 -19 113 -46
23 -19 44 -34 48 -34 4 0 17 -9 29 -20 21 -19 22 -30 22 -159 l0 -137 -57 -18
c-32 -10 -110 -44 -173 -75 -109 -53 -119 -56 -190 -55 -41 0 -101 6 -132 13
l-57 12 -20 57 c-12 31 -29 73 -39 92 l-19 35 28 39 c50 67 72 141 72 236 0
103 -12 149 -119 490 -103 322 -123 416 -131 588 -3 72 -9 132 -13 132 -4 0
-22 -11 -41 -25 -19 -14 -42 -28 -51 -31 -10 -4 -18 -11 -18 -16 0 -5 -5 -6
-10 -3 -6 4 -9 1 -8 -7 2 -8 -8 -14 -24 -16 -17 -2 -25 -8 -22 -16 3 -8 -4
-16 -15 -19 -14 -3 -18 -1 -15 12 2 9 -2 3 -9 -13 -11 -22 -16 -25 -23 -15 -6
10 -10 8 -15 -11 -5 -21 -7 -23 -14 -7 -4 9 -4 25 1 35 4 9 6 23 5 30 -1 6 2
12 7 12 13 0 11 34 -4 45 -6 6 -14 32 -17 59 -3 29 -12 55 -21 61 -9 7 -16 23
-15 36 0 13 3 18 6 11 4 -10 8 -10 19 -1 11 9 11 13 -1 26 -8 8 -15 29 -15 46
1 25 3 28 10 16 10 -18 59 -14 72 5 4 6 13 12 20 12 7 1 19 2 25 3 9 1 10 8 3
26 -6 15 -6 26 0 30 6 4 10 17 10 31 0 13 4 24 8 24 13 0 35 -47 29 -63 -3 -7
-1 -20 4 -28 7 -11 9 -11 9 4 0 9 4 17 8 17 5 0 7 -14 4 -31 -3 -20 -9 -29
-18 -25 -8 3 -14 1 -14 -4 0 -6 9 -10 20 -10 15 0 20 7 20 25 0 14 5 25 10 25
6 0 10 13 10 30 0 22 4 28 15 24 8 -4 15 -1 15 4 0 6 -9 13 -19 17 -10 3 -21
15 -25 27 -8 33 1 35 15 4 l13 -27 13 23 c7 13 12 33 13 44 0 12 7 27 15 34
18 15 20 57 3 63 -9 3 -10 10 -3 23 12 22 8 94 -5 94 -5 0 -11 -21 -13 -47
l-3 -48 -2 53 c-2 39 2 54 13 58 20 8 19 24 -2 24 -15 0 -15 2 2 14 16 12 17
16 6 29 -7 9 -11 28 -9 44 l3 28 23 -25 c43 -46 83 -113 73 -123 -6 -6 -2 -17
12 -29 15 -13 18 -21 10 -24 -7 -3 -13 -12 -13 -20 0 -9 5 -12 10 -9 6 4 10
-18 11 -57 0 -53 2 -59 11 -38 16 39 4 152 -22 206 -35 73 -167 199 -300 286
-63 42 -123 85 -134 97 -11 12 -38 95 -68 208 -86 332 -104 366 -210 398 -86
25 -244 39 -333 28z m225 -155 c0 -28 -3 -48 -7 -44 -5 4 -8 11 -9 14 0 4 -6
18 -12 32 -12 24 -12 23 -6 -7 3 -19 1 -33 -4 -33 -14 0 -21 74 -8 82 6 4 19
8 29 8 14 0 17 -9 17 -52z m-93 -10 c-3 -8 -6 -5 -6 6 -1 11 2 17 5 13 3 -3 4
-12 1 -19z m33 8 c0 -3 -4 -8 -10 -11 -5 -3 -10 -1 -10 4 0 6 5 11 10 11 6 0
10 -2 10 -4z m-63 -88 c-3 -8 -6 -5 -6 6 -1 11 2 17 5 13 3 -3 4 -12 1 -19z
m108 -278 c-3 -4 2 -22 11 -39 15 -30 12 -51 -7 -51 -5 0 -9 6 -9 14 0 23 -22
31 -32 12 -12 -21 -29 -11 -21 12 4 13 2 12 -10 -3 -8 -12 -17 -34 -20 -50 -3
-22 -4 -17 -6 16 -1 34 3 48 15 53 8 3 12 11 8 17 -4 7 -3 9 3 6 6 -4 13 -1
16 7 3 7 17 14 31 14 14 0 24 -4 21 -8z m119 -30 c3 -22 10 -40 15 -40 5 0 7
-10 3 -22 -5 -21 -4 -22 13 -8 16 13 18 13 13 0 -2 -8 -14 -19 -26 -25 -12 -5
-22 -17 -21 -25 3 -28 -1 -40 -12 -40 -8 0 -7 5 1 16 11 13 10 16 -8 21 -26 6
-30 53 -7 77 13 13 13 16 -2 31 -16 16 -16 18 0 27 10 5 15 13 12 19 -4 5 -2
9 3 9 5 0 12 -18 16 -40z m-236 -9 c1 -18 -3 -31 -13 -35 -12 -4 -14 0 -9 22
12 50 19 54 22 13z m-143 -51 c3 -5 1 -10 -4 -10 -6 0 -11 5 -11 10 0 6 2 10
4 10 3 0 8 -4 11 -10z m631 -17 c-6 -6 -36 9 -36 18 0 5 9 4 20 -3 10 -7 18
-14 16 -15z m-400 -13 c11 0 12 -5 6 -17 -5 -10 -7 -23 -5 -30 2 -6 -1 -14 -6
-18 -7 -4 -11 5 -11 24 0 16 -5 33 -10 36 -6 4 -7 11 -3 18 5 8 8 8 11 -1 2
-7 10 -12 18 -12z m253 -9 c-15 -5 -22 6 -14 19 6 9 10 9 16 -1 5 -8 4 -15 -2
-18z m-349 -6 c0 -8 -7 -15 -15 -15 -26 0 -18 20 13 29 1 1 2 -6 2 -14z m-10
-49 c0 -3 -4 -8 -10 -11 -5 -3 -10 -1 -10 4 0 6 5 11 10 11 6 0 10 -2 10 -4z
m620 -25 c0 -5 15 -14 33 -22 17 -7 34 -15 37 -18 3 -4 25 -19 50 -36 76 -49
100 -76 100 -109 0 -17 -5 -38 -10 -46 -8 -12 -10 -11 -10 8 0 24 -15 30 -23
10 -3 -7 -6 -3 -6 9 -1 16 -6 21 -16 17 -9 -4 -15 0 -15 10 0 9 -3 15 -7 15
-21 -3 -32 2 -27 15 3 8 -9 22 -28 35 -32 22 -32 22 -5 17 27 -6 33 -1 19 21
-11 17 -60 34 -67 23 -5 -8 -30 2 -64 27 -6 4 20 33 30 33 5 0 9 -4 9 -9z
m-1040 -11 c0 -5 -5 -10 -11 -10 -5 0 -7 5 -4 10 3 6 8 10 11 10 2 0 4 -4 4
-10z m520 -8 c0 -14 -2 -14 -9 -3 -8 12 -12 12 -25 2 -13 -11 -16 -11 -16 1 0
7 11 15 25 16 18 1 25 -3 25 -16z m60 8 c0 -5 -2 -10 -4 -10 -3 0 -8 5 -11 10
-3 6 -1 10 4 10 6 0 11 -4 11 -10z m-173 -22 c-3 -8 -6 -5 -6 6 -1 11 2 17 5
13 3 -3 4 -12 1 -19z m84 -31 c-10 -9 -11 -8 -5 6 3 10 9 15 12 12 3 -3 0 -11
-7 -18z m-493 -42 c3 -3 -2 -13 -12 -23 -16 -16 -18 -16 -32 2 -8 11 -14 17
-14 14 0 -4 -3 -13 -6 -22 -4 -11 -1 -16 11 -16 9 0 13 -4 10 -10 -10 -17 -33
-11 -40 10 -11 36 56 72 83 45z m-108 -50 c0 -8 -4 -15 -10 -15 -5 0 -7 7 -4
15 4 8 8 15 10 15 2 0 4 -7 4 -15z m186 -17 c-9 -45 -17 -114 -22 -183 -2 -38
-7 -78 -10 -87 -5 -17 -78 -38 -131 -38 -28 0 -28 3 -5 95 6 22 16 66 22 98
11 57 14 60 73 98 72 45 79 47 73 17z m-179 -75 c-3 -10 -5 -4 -5 12 0 17 2
24 5 18 2 -7 2 -21 0 -30z m1137 31 c8 -3 12 -12 9 -20 -7 -18 28 -207 40
-215 14 -10 -4 -16 -43 -15 -32 1 -35 4 -42 41 -9 50 -10 162 -2 193 7 23 13
26 38 16z m216 -54 c0 -5 -7 -10 -15 -10 -8 0 -15 5 -15 10 0 6 7 10 15 10 8
0 15 -4 15 -10z m-1370 -171 c0 -5 -4 -9 -10 -9 -5 0 -10 7 -10 16 0 8 5 12
10 9 6 -3 10 -10 10 -16z m-103 -41 c-3 -8 -6 -5 -6 6 -1 11 2 17 5 13 3 -3 4
-12 1 -19z m86 -75 c-10 -42 -23 -23 -21 30 1 28 4 57 7 62 8 15 20 -66 14
-92z m-86 35 c-3 -8 -6 -5 -6 6 -1 11 2 17 5 13 3 -3 4 -12 1 -19z m1247 -52
c-3 -15 -9 -25 -12 -22 -3 3 -12 0 -21 -7 -14 -10 -14 -10 -5 3 6 8 14 28 18
44 5 19 10 26 17 19 6 -6 7 -22 3 -37z m166 25 c0 -5 -7 -11 -15 -15 -15 -5
-20 5 -8 17 9 10 23 9 23 -2z m-1296 -16 c3 -8 1 -26 -4 -39 -5 -13 -6 -34 -3
-46 4 -16 -1 -28 -18 -41 -20 -15 -21 -19 -6 -19 15 0 20 -11 16 -37 -2 -13
35 -27 39 -15 5 17 22 15 22 -3 0 -8 -6 -15 -12 -16 -10 0 -10 -2 0 -6 14 -6
16 -43 2 -43 -5 0 -10 4 -10 10 0 5 -10 14 -22 21 -18 10 -20 9 -15 -5 10 -25
-10 -28 -27 -4 -9 12 -19 19 -22 15 -4 -4 1 -17 12 -29 10 -12 13 -18 6 -14
-7 4 -15 1 -18 -9 -9 -23 3 -30 23 -14 11 9 14 10 9 2 -4 -7 -3 -13 2 -13 5 0
14 11 22 24 11 22 15 23 27 10 17 -16 33 -18 33 -4 0 15 30 12 36 -4 3 -8 15
-17 27 -20 18 -5 19 -8 7 -15 -8 -5 -18 -7 -22 -5 -4 3 -8 -11 -8 -30 0 -20
-4 -36 -10 -36 -5 0 -10 -11 -10 -25 0 -15 -6 -25 -15 -25 -8 0 -12 -6 -9 -14
4 -11 0 -13 -15 -9 -21 5 -31 35 -10 31 6 -2 14 3 17 11 3 10 0 12 -12 8 -12
-5 -16 0 -17 16 0 12 -5 31 -10 42 -7 15 -8 10 -4 -20 2 -22 0 -47 -5 -55 -11
-17 -11 -15 -19 73 0 9 -7 17 -15 17 -8 0 -17 6 -19 13 -3 6 -6 -3 -6 -20 -1
-45 -18 -42 -25 5 -13 84 -7 157 14 157 9 0 14 8 12 20 -2 11 -3 31 -3 45 0
23 -1 24 -13 7 -12 -15 -13 -13 -13 23 0 41 16 58 18 18 0 -20 2 -19 16 10 9
17 20 32 25 32 4 0 8 9 8 20 0 23 15 27 24 5z m1236 -5 c0 -5 -2 -10 -4 -10
-3 0 -8 5 -11 10 -3 6 -1 10 4 10 6 0 11 -4 11 -10z m-490 -119 c0 -6 -11 -16
-25 -21 -28 -11 -33 -35 -10 -44 9 -3 15 0 15 10 0 8 5 12 10 9 6 -4 8 -11 5
-16 -4 -5 -2 -9 3 -9 12 0 22 24 22 53 0 21 1 21 13 -2 17 -33 28 -31 54 8
l23 34 0 -44 c1 -42 1 -43 13 -19 7 14 18 25 25 24 6 -1 17 -2 22 -3 6 0 10
-8 10 -16 0 -7 7 -18 16 -23 24 -13 13 -47 -16 -50 -24 -2 -24 -2 -6 13 17 13
18 15 3 15 -9 0 -18 -4 -18 -10 -1 -5 -3 -14 -4 -20 -1 -5 -3 -14 -4 -20 -2
-19 -21 -10 -21 9 0 11 -4 23 -10 26 -5 3 -10 1 -10 -5 0 -6 -5 -8 -10 -5 -8
5 -7 11 1 21 16 20 -5 18 -25 -2 -9 -8 -16 -22 -16 -30 0 -11 -6 -13 -21 -9
-14 5 -25 2 -30 -6 -6 -9 -7 -2 -4 19 5 29 3 32 -21 32 -26 0 -27 0 -9 -20 21
-24 21 -25 -25 -38 -25 -7 -29 -10 -12 -11 31 -1 28 -21 -4 -21 -14 0 -34 -5
-45 -11 -18 -9 -19 -12 -6 -22 9 -7 17 -21 20 -32 3 -14 5 -12 6 9 1 20 5 27
15 23 8 -3 17 -1 20 6 2 7 5 2 5 -10 1 -12 5 -24 10 -28 6 -3 6 -17 -1 -35
-11 -32 -5 -60 12 -60 6 0 8 10 4 26 -5 20 -3 25 7 22 13 -5 18 -45 8 -78 -3
-10 3 -15 18 -15 11 0 25 -3 29 -7 4 -5 0 -8 -8 -8 -27 0 -39 -24 -23 -46 20
-26 19 -29 -10 -42 -22 -10 -24 -15 -15 -32 12 -23 5 -44 -12 -34 -6 4 -14 1
-18 -6 -13 -21 -32 0 -26 29 4 17 3 21 -2 13 -5 -8 -13 -14 -18 -15 -16 -3
-43 -30 -38 -39 9 -15 -36 -8 -62 9 -21 13 -25 22 -20 45 3 16 2 27 -3 23 -5
-3 -11 0 -13 7 -2 6 -11 9 -19 6 -8 -3 -18 -6 -24 -6 -18 -1 -22 -46 -6 -59
14 -11 13 -12 -6 -13 -20 0 -23 5 -23 40 0 23 5 40 11 40 6 0 9 6 6 14 -3 8 3
22 14 32 15 13 16 19 7 25 -9 6 -8 10 5 15 10 3 21 4 24 0 4 -4 12 8 18 26 9
29 8 34 -9 43 -27 14 -45 46 -29 52 7 2 9 11 6 19 -3 8 0 14 6 14 6 0 11 -7
11 -15 0 -27 20 -15 21 13 0 15 3 21 6 15 2 -7 12 -13 21 -12 11 0 12 2 5 6
-18 7 -16 23 2 23 18 0 19 9 4 30 -9 13 -10 12 -5 -3 5 -15 1 -18 -17 -15 -15
2 -21 9 -19 23 2 18 2 18 -8 3 -6 -10 -18 -18 -25 -18 -18 0 -19 12 -4 27 9 9
8 18 -5 37 -19 30 -40 35 -31 7 3 -10 -1 -24 -10 -31 -8 -7 -15 -19 -15 -26 0
-16 -27 -19 -32 -4 -1 5 -15 11 -30 12 -24 2 -28 7 -28 35 0 22 -7 37 -22 47
-12 9 -17 16 -11 16 11 0 48 -40 55 -60 8 -21 31 -13 35 13 4 27 -11 38 -20
15 -3 -7 -6 -3 -6 10 -1 13 5 22 14 22 23 0 65 22 65 34 0 7 9 12 20 12 11 0
20 -6 20 -13 0 -7 9 -17 20 -23 16 -8 20 -8 18 2 -2 7 7 14 20 16 16 2 22 10
22 28 0 13 5 24 10 24 6 0 10 -4 10 -9 0 -5 10 -11 23 -15 19 -5 20 -8 7 -17
-12 -9 -10 -10 9 -5 14 3 31 0 38 -6 10 -8 13 -6 13 10 0 12 4 24 10 27 6 3 7
-1 4 -9 -8 -20 3 -20 22 -2 20 21 17 36 -7 36 -18 0 -19 2 -9 15 11 13 15 12
31 -9 11 -13 19 -29 19 -35z m-150 39 c0 -5 -2 -10 -4 -10 -3 0 -8 5 -11 10
-3 6 -1 10 4 10 6 0 11 -4 11 -10z m470 -15 c-7 -9 -15 -13 -17 -11 -7 7 7 26
19 26 6 0 6 -6 -2 -15z m-62 -30 c-3 -14 -1 -25 3 -25 20 0 7 -28 -15 -32 -19
-4 -23 -1 -19 16 6 25 25 66 31 66 2 0 2 -11 0 -25z m-754 -52 c-9 -36 -12
-39 -25 -26 -8 8 -7 17 3 32 18 29 30 26 22 -6z m809 -35 c7 -7 13 -38 15 -68
2 -48 1 -53 -11 -38 -16 20 -27 14 -28 -16 -1 -12 -6 -1 -11 24 -14 68 -14 74
2 75 9 0 14 8 12 18 -3 20 5 22 21 5z m-573 -52 c0 -2 -7 -7 -16 -10 -8 -3
-12 -2 -9 4 6 10 25 14 25 6z m406 -58 c3 -4 22 -4 42 -1 34 5 35 4 18 -9 -10
-8 -29 -13 -42 -10 -14 2 -24 0 -24 -7 0 -6 7 -11 15 -11 8 0 15 -5 15 -11 0
-6 -9 -8 -22 -3 -29 8 -25 4 -33 36 -5 21 -3 26 9 24 8 -1 18 -5 22 -8z m208
-20 c-4 -6 1 -17 11 -24 22 -16 20 -19 -19 -28 -24 -6 -27 -4 -22 9 3 9 9 28
12 41 3 13 10 21 15 18 5 -3 6 -10 3 -16z m-359 -8 c3 -5 1 -10 -4 -10 -6 0
-11 5 -11 10 0 6 2 10 4 10 3 0 8 -4 11 -10z m-610 -9 c3 -5 1 -12 -5 -16 -5
-3 -10 1 -10 9 0 18 6 21 15 7z m710 -41 c4 -6 4 -23 0 -38 -4 -18 -9 -22 -14
-13 -5 7 -17 11 -27 9 -16 -2 -19 3 -17 30 1 25 -2 32 -13 28 -9 -3 -14 2 -14
15 0 19 0 19 39 -1 22 -11 43 -25 46 -30z m-382 10 c7 0 0 -8 -16 -18 -15 -10
-25 -21 -21 -24 3 -3 1 -9 -5 -13 -6 -3 -11 1 -11 9 0 9 0 19 0 24 0 4 6 7 13
7 6 0 14 11 16 25 3 18 5 20 8 8 3 -10 10 -18 16 -18z m527 20 c0 -5 -4 -10
-10 -10 -5 0 -10 5 -10 10 0 6 5 10 10 10 6 0 10 -4 10 -10z m66 -35 c0 -14
-4 -25 -7 -25 -9 0 -18 37 -11 44 12 13 20 5 18 -19z m84 -4 c0 -6 -4 -13 -10
-16 -5 -3 -10 1 -10 9 0 9 5 16 10 16 6 0 10 -4 10 -9z m-1003 -23 c-3 -8 -6
-5 -6 6 -1 11 2 17 5 13 3 -3 4 -12 1 -19z m793 2 c0 -4 -7 -7 -16 -6 -9 0
-19 -5 -21 -11 -3 -8 4 -13 16 -13 14 0 19 -5 14 -15 -5 -14 -7 -14 -23 0 -24
22 -30 19 -30 -17 l0 -33 -13 25 c-12 22 -11 28 5 49 10 13 16 27 13 30 -2 4
9 5 26 3 16 -2 29 -8 29 -12z m-686 -11 c-6 -11 -24 -2 -24 11 0 5 7 7 15 4 8
-4 12 -10 9 -15z m-114 -14 c0 -1 -7 -8 -15 -15 -13 -10 -15 -9 -15 8 0 15 5
20 15 16 8 -4 15 -7 15 -9z m970 -6 c0 -6 -4 -7 -10 -4 -5 3 -10 11 -10 16 0
6 5 7 10 4 6 -3 10 -11 10 -16z m-593 -11 c-3 -8 -6 -5 -6 6 -1 11 2 17 5 13
3 -3 4 -12 1 -19z m533 -2 c0 -3 -4 -8 -10 -11 -5 -3 -10 -1 -10 4 0 6 5 11
10 11 6 0 10 -2 10 -4z m-630 -26 c0 -5 -5 -10 -11 -10 -5 0 -7 5 -4 10 3 6 8
10 11 10 2 0 4 -4 4 -10z m26 -38 c-11 -10 -15 4 -8 28 l7 25 3 -23 c2 -13 1
-26 -2 -30z m641 33 c0 -8 -4 -15 -9 -15 -10 0 -11 14 -1 23 9 10 10 9 10 -8z
m-267 -51 c0 -13 -4 -24 -9 -24 -10 0 -21 47 -13 54 10 11 22 -6 22 -30z m70
-4 c0 -5 -4 -10 -9 -10 -5 0 -12 -8 -14 -17 -3 -11 -5 -7 -6 10 -1 18 4 27 14
27 8 0 15 -4 15 -10z m107 -32 c-3 -8 -6 -5 -6 6 -1 11 2 17 5 13 3 -3 4 -12
1 -19z m-607 -35 c0 -20 -3 -33 -6 -30 -11 10 -13 67 -3 67 5 0 9 -16 9 -37z
m804 -5 c12 -37 15 -68 9 -67 -5 0 -19 14 -32 31 -20 24 -22 31 -10 39 19 12
29 11 33 -3z m-354 -18 c0 -5 -4 -10 -10 -10 -5 0 -10 5 -10 10 0 6 5 10 10
10 6 0 10 -4 10 -10z m400 0 c0 -5 -2 -10 -4 -10 -3 0 -8 5 -11 10 -3 6 -1 10
4 10 6 0 11 -4 11 -10z m-627 -80 c4 0 5 5 2 10 -9 15 4 12 21 -4 18 -19 18
-30 -1 -23 -17 7 -30 -9 -15 -18 5 -3 10 -19 10 -36 0 -22 5 -29 20 -29 11 0
20 -4 20 -10 0 -5 4 -10 9 -10 4 0 6 11 4 24 -3 14 -11 23 -21 22 -25 -2 -20
29 11 64 18 19 34 29 44 26 8 -3 23 -6 33 -6 16 0 17 -4 10 -31 -5 -17 -5 -40
0 -52 4 -12 11 -31 15 -41 5 -19 6 -18 21 3 15 20 15 24 0 40 -19 21 -23 82
-4 63 7 -7 13 -25 14 -40 0 -15 7 -27 15 -28 32 -2 39 -4 39 -13 0 -5 -6 -8
-12 -7 -7 0 -14 -3 -15 -9 -2 -5 13 -10 32 -9 25 0 32 -3 25 -11 -6 -8 -5 -18
5 -31 8 -10 15 -14 16 -9 6 44 5 76 -2 81 -5 3 -9 18 -9 35 0 34 -25 40 -35 9
-3 -11 -11 -20 -16 -20 -5 0 -9 9 -9 20 0 11 6 20 13 20 9 0 9 2 -1 9 -10 6
-10 10 2 20 11 10 19 9 35 -1 12 -7 21 -18 21 -24 0 -7 10 -9 25 -6 25 4 26 3
29 -40 1 -7 -4 -13 -11 -13 -19 0 -25 -12 -18 -35 4 -12 9 -19 12 -16 4 3 12
1 19 -5 9 -8 11 -5 7 10 -4 15 -1 21 11 21 9 0 13 -6 10 -14 -3 -8 -1 -17 5
-21 16 -9 13 -35 -3 -35 -11 0 -11 -10 -3 -52 14 -75 14 -91 0 -95 -7 -3 -13
2 -13 9 0 8 -7 23 -15 34 -9 12 -13 13 -10 4 4 -11 -4 -20 -22 -27 -15 -7 -21
-12 -13 -11 29 1 40 -2 40 -12 0 -5 -15 -10 -32 -11 -30 0 -31 -1 -10 -9 27
-11 28 -16 2 -23 -27 -7 -43 23 -50 93 -3 36 -9 54 -18 53 -6 -2 -12 2 -12 8
0 7 10 9 28 5 21 -5 23 -4 10 4 -10 6 -29 8 -43 4 -20 -5 -24 -11 -19 -27 5
-17 3 -19 -20 -13 -17 4 -34 1 -47 -7 -19 -14 -19 -15 -2 -22 35 -13 83 -16
83 -3 0 21 12 0 20 -36 9 -41 -1 -48 -18 -11 -16 34 -32 31 -32 -5 0 -16 -5
-30 -11 -30 -5 0 -7 5 -4 10 3 6 0 10 -8 10 -10 0 -13 -8 -9 -25 2 -13 1 -32
-2 -41 -6 -16 -7 -16 -19 -1 -11 15 -16 15 -52 3 -26 -9 -42 -11 -46 -4 -4 7
-9 6 -13 -1 -13 -21 -26 -11 -26 22 -1 19 -11 44 -25 62 l-25 30 0 -27 c0 -34
-25 -28 -34 7 -4 17 -14 25 -34 27 -19 2 -26 8 -24 20 1 9 -2 19 -8 23 -5 3
-10 14 -10 22 0 14 4 13 20 -5 12 -12 28 -21 38 -21 15 1 15 2 1 6 -16 4 -33
30 -44 70 -6 20 -3 22 22 17 23 -4 30 -1 40 21 10 23 10 25 -8 20 -10 -4 -19
-2 -19 3 0 5 -3 23 -6 39 -4 21 -1 35 11 46 20 21 35 22 35 2 0 -8 4 -15 9
-15 5 0 7 10 3 22 -3 14 -2 19 6 14 7 -4 12 -14 12 -22 0 -8 7 -14 15 -14 8 0
15 5 15 10 0 6 -4 10 -10 10 -5 0 -10 8 -10 17 0 13 3 14 12 5 7 -7 16 -12 21
-12z m-178 -21 c12 -19 -5 -23 -22 -6 -16 16 -16 17 -1 17 9 0 20 -5 23 -11z
m-141 -28 c3 -4 -3 -16 -13 -25 -24 -21 -38 -4 -15 18 18 18 21 19 28 7z m56
-7 c0 -8 -5 -12 -10 -9 -6 4 -8 11 -5 16 9 14 15 11 15 -7z m534 -9 c-4 -8 -8
-15 -10 -15 -2 0 -4 7 -4 15 0 8 4 15 10 15 5 0 7 -7 4 -15z m-404 -36 c0 -11
-4 -17 -10 -14 -5 3 -10 13 -10 21 0 8 5 14 10 14 6 0 10 -9 10 -21z m820 15
c0 -8 -19 -13 -24 -6 -3 5 1 9 9 9 8 0 15 -2 15 -3z m-913 -66 c6 15 33 16 33
1 0 -5 -4 -7 -10 -4 -5 3 -10 1 -10 -4 0 -6 7 -11 15 -11 8 0 15 -5 15 -10 0
-7 -6 -7 -19 0 -25 13 -31 13 -31 -1 0 -6 -6 -17 -14 -24 -11 -11 -13 -8 -11
23 4 64 6 68 17 42 6 -15 12 -20 15 -12z m937 -4 c3 -8 2 -12 -4 -9 -6 3 -10
10 -10 16 0 14 7 11 14 -7z m-991 -34 c3 -11 1 -20 -4 -20 -5 0 -9 9 -9 20 0
11 2 20 4 20 2 0 6 -9 9 -20z m77 -14 c0 -3 -4 -8 -10 -11 -5 -3 -10 -1 -10 4
0 6 5 11 10 11 6 0 10 -2 10 -4z m942 -31 c3 -13 1 -22 -3 -19 -9 5 -13 44 -5
44 2 0 6 -11 8 -25z m-1016 -12 c-10 -10 -19 5 -10 18 6 11 8 11 12 0 2 -7 1
-15 -2 -18z m114 -23 c0 -5 -4 -12 -10 -15 -5 -3 -10 -4 -10 -1 0 2 -3 12 -6
20 -5 12 -2 15 10 10 9 -3 16 -10 16 -14z m35 -29 c3 -5 1 -12 -5 -16 -5 -3
-10 1 -10 9 0 18 6 21 15 7z m905 -46 c0 -5 -5 -3 -10 5 -5 8 -10 20 -10 25 0
6 5 3 10 -5 5 -8 10 -19 10 -25z m-900 -5 c-19 -13 -30 -13 -30 0 0 6 10 10
23 10 18 0 19 -2 7 -10z m477 -15 c-4 -8 -16 -15 -28 -15 -21 0 -21 0 2 19 26
21 35 20 26 -4z m-147 -5 c0 -5 -5 -10 -11 -10 -5 0 -7 5 -4 10 3 6 8 10 11
10 2 0 4 -4 4 -10z m-243 -22 c-3 -8 -6 -5 -6 6 -1 11 2 17 5 13 3 -3 4 -12 1
-19z m290 -15 c-8 -7 -37 9 -31 19 3 5 12 4 20 -3 8 -6 13 -14 11 -16z m-897
-62 c0 -6 -4 -13 -10 -16 -5 -3 -10 1 -10 9 0 9 5 16 10 16 6 0 10 -4 10 -9z
m1457 -23 c-3 -8 -6 -5 -6 6 -1 11 2 17 5 13 3 -3 4 -12 1 -19z m-1413 -417
c4 -5 -3 -7 -14 -4 -23 6 -26 13 -6 13 8 0 17 -4 20 -9z m2142 -664 c8 3 14 1
14 -5 0 -5 18 -9 41 -9 28 0 37 3 30 10 -6 6 -11 14 -11 17 0 11 60 2 78 -12
16 -12 16 -11 2 6 -14 18 -13 19 3 13 9 -3 29 -1 43 5 20 9 30 9 46 -1 13 -8
37 -10 71 -6 44 6 57 3 87 -17 19 -13 40 -35 47 -48 15 -32 28 -110 15 -92 -5
7 -16 10 -24 7 -11 -4 -17 3 -23 27 -7 28 -9 30 -12 11 -5 -26 -23 -31 -23 -7
0 13 -6 15 -27 9 -27 -7 -47 -25 -37 -34 3 -3 9 1 14 9 7 11 10 7 16 -14 6
-24 10 -27 35 -22 23 4 29 2 29 -12 0 -10 -7 -27 -15 -38 -8 -10 -15 -27 -15
-36 0 -21 -20 -24 -20 -4 0 8 -9 17 -19 21 -22 7 -33 39 -18 54 6 6 7 14 3 18
-4 4 -11 1 -16 -7 -6 -8 -10 -11 -10 -6 0 5 -6 3 -14 -3 -11 -10 -17 -7 -30
11 -9 12 -16 28 -16 34 0 6 -7 17 -15 24 -12 10 -13 7 -5 -21 5 -17 7 -35 5
-40 -3 -4 -1 -10 5 -14 6 -4 8 -11 4 -16 -3 -5 -10 -6 -16 -3 -6 4 -8 3 -5 -2
3 -6 2 -16 -3 -24 -8 -13 -12 -12 -24 5 -14 18 -15 18 -16 3 0 -10 5 -18 10
-18 14 0 12 -23 -4 -46 -20 -27 -30 -11 -27 41 1 33 -2 47 -14 51 -8 3 -15 15
-15 26 0 10 -5 16 -10 13 -6 -4 -8 -11 -4 -16 3 -5 8 -32 10 -60 4 -45 2 -54
-21 -75 -14 -13 -35 -24 -45 -24 -10 0 -21 -4 -25 -10 -3 -5 -13 -6 -22 -3
-13 5 -15 2 -11 -15 4 -12 2 -20 -3 -16 -5 3 -9 0 -9 -5 0 -6 -4 -11 -10 -11
-5 0 -7 7 -4 15 9 23 -12 18 -42 -10 -31 -29 -39 -31 -31 -11 4 10 1 13 -8 9
-8 -3 -13 -9 -10 -13 7 -11 -27 -23 -34 -12 -9 13 -121 15 -121 2 0 -6 -4 -9
-9 -5 -6 3 -6 17 -1 35 10 34 4 38 -16 13 -13 -17 -14 -17 -8 0 3 9 2 17 -3
17 -5 0 -15 -15 -21 -34 -20 -54 -38 -62 -37 -16 0 21 -4 38 -8 37 -5 -1 -12
4 -14 11 -3 6 0 12 6 12 6 0 11 7 11 15 0 8 -4 15 -10 15 -5 0 -10 -4 -10 -9
0 -5 -9 -13 -20 -16 -11 -3 -20 -12 -20 -19 0 -8 -7 -19 -15 -26 -9 -7 -14
-18 -11 -25 2 -6 -5 -17 -16 -24 -18 -11 -20 -11 -15 3 3 8 2 18 -3 21 -6 4
-10 2 -10 -3 0 -6 -7 -13 -16 -16 -12 -4 -15 -2 -10 9 3 8 2 15 -3 15 -15 0
-79 -29 -85 -39 -8 -12 -77 -11 -94 2 -9 7 -17 4 -27 -9 -8 -10 -15 -21 -15
-24 0 -3 -12 -6 -26 -5 -26 0 -27 2 -30 71 -4 124 -29 221 -55 217 -8 -2 -21
7 -28 20 -14 22 -13 22 7 4 12 -11 22 -14 26 -8 4 5 2 12 -3 15 -5 3 -8 20 -7
38 1 28 6 33 30 36 22 3 27 8 23 22 -3 13 0 17 9 13 8 -3 14 -11 14 -18 0 -16
27 -28 35 -15 3 5 12 7 19 4 8 -3 17 0 21 6 4 6 16 8 27 4 14 -4 18 -2 14 5
-8 13 -4 13 81 11 33 -1 85 6 114 14 29 9 74 16 101 16 26 0 48 4 48 9 0 5 34
9 75 8 41 -1 75 -4 75 -7 0 -3 25 -5 55 -5 35 -1 55 3 55 11 0 7 10 9 25 6 16
-3 25 0 26 9 1 8 4 4 6 -8 3 -14 9 -20 19 -16z m-852 -39 c-3 -4 -9 -8 -15 -8
-5 0 -9 4 -9 8 0 5 7 9 15 9 8 0 12 -4 9 -9z m1135 -215 c0 -5 -4 -17 -8 -28
-7 -17 -8 -17 -13 8 -4 19 -1 27 8 27 8 0 14 -3 13 -7z m-1850 -59 c53 -25 90
-48 85 -53 -9 -8 -166 -31 -212 -31 -21 0 -22 5 -22 71 l0 71 28 -6 c15 -4 69
-27 121 -52z m1724 1 c-3 -9 -8 -14 -10 -11 -3 3 -2 9 2 15 9 16 15 13 8 -4z
m-978 -823 c-3 -3 -11 0 -18 7 -9 10 -8 11 6 5 10 -3 15 -9 12 -12z m674 -83
c46 -16 61 -25 57 -36 -3 -8 -6 -21 -6 -29 0 -8 -10 -14 -22 -14 -13 0 -43
-11 -66 -25 -37 -21 -47 -23 -65 -13 -12 7 -76 33 -142 59 -68 27 -113 50
-105 53 84 31 265 33 349 5z m16 -159 c-5 -8 -11 -8 -21 1 -12 10 -12 14 -2
20 16 10 33 -5 23 -21z m-1335 16 c0 -11 -19 -15 -25 -6 -3 5 1 10 9 10 9 0
16 -2 16 -4z m40 -34 c0 -13 -12 -22 -22 -16 -10 6 -1 24 13 24 5 0 9 -4 9 -8z
m-890 -184 c0 -12 -6 -9 -26 13 -19 22 -19 22 4 8 12 -8 22 -17 22 -21z m101
-105 c13 -16 12 -17 -3 -4 -10 7 -18 15 -18 17 0 8 8 3 21 -13z m-86 -13 c3
-5 1 -10 -4 -10 -6 0 -11 5 -11 10 0 6 2 10 4 10 3 0 8 -4 11 -10z m2235 -56
c0 -8 -4 -12 -10 -9 -5 3 -10 10 -10 16 0 5 5 9 10 9 6 0 10 -7 10 -16z m0
-164 c0 -5 -4 -10 -10 -10 -5 0 -10 5 -10 10 0 6 5 10 10 10 6 0 10 -4 10 -10z
m55 0 c3 -5 1 -10 -4 -10 -6 0 -11 5 -11 10 0 6 2 10 4 10 3 0 8 -4 11 -10z
m-1505 -130 c0 -5 -4 -10 -10 -10 -5 0 -10 5 -10 10 0 6 5 10 10 10 6 0 10 -4
10 -10z"/>
<path d="M2050 5280 c0 -19 3 -21 12 -12 9 9 9 15 0 24 -9 9 -12 7 -12 -12z"/>
<path d="M1290 4310 c0 -5 5 -10 10 -10 6 0 10 5 10 10 0 6 -4 10 -10 10 -5 0
-10 -4 -10 -10z"/>
<path d="M1331 4304 c0 -11 3 -14 6 -6 3 7 2 16 -1 19 -3 4 -6 -2 -5 -13z"/>
<path d="M1880 4440 c0 -5 5 -10 10 -10 6 0 10 5 10 10 0 6 -4 10 -10 10 -5 0
-10 -4 -10 -10z"/>
<path d="M1950 4418 c0 -19 2 -20 10 -8 13 19 13 30 0 30 -5 0 -10 -10 -10
-22z"/>
<path d="M1786 4395 c4 -8 8 -15 10 -15 2 0 4 7 4 15 0 8 -4 15 -10 15 -5 0
-7 -7 -4 -15z"/>
<path d="M1886 4395 c-3 -9 0 -15 9 -15 16 0 20 16 6 24 -5 3 -11 -1 -15 -9z"/>
<path d="M1970 4380 c0 -5 4 -10 9 -10 6 0 13 5 16 10 3 6 -1 10 -9 10 -9 0
-16 -4 -16 -10z"/>
<path d="M1911 4234 c0 -11 3 -14 6 -6 3 7 2 16 -1 19 -3 4 -6 -2 -5 -13z"/>
<path d="M1936 4223 c-11 -11 -6 -23 9 -23 8 0 15 4 15 9 0 13 -16 22 -24 14z"/>
<path d="M1896 4201 c-4 -5 -2 -20 3 -33 9 -21 10 -21 10 10 1 32 -3 39 -13
23z"/>
<path d="M1875 4160 c3 -5 8 -10 11 -10 2 0 4 5 4 10 0 6 -5 10 -11 10 -5 0
-7 -4 -4 -10z"/>
<path d="M1915 4119 c4 -6 -1 -16 -11 -23 -17 -13 -11 -42 7 -31 5 4 9 -2 10
-12 0 -11 3 -13 6 -5 3 7 -1 19 -7 27 -7 9 -8 15 -2 15 5 0 12 9 15 20 3 13 0
20 -10 20 -8 0 -11 -5 -8 -11z"/>
<path d="M1830 4071 c0 -16 7 -34 15 -41 13 -11 15 -7 15 23 0 22 -6 37 -15
41 -11 4 -15 -2 -15 -23z"/>
<path d="M1990 4067 c0 -7 9 -18 20 -25 20 -12 21 -12 4 13 -18 28 -24 31 -24
12z"/>
<path d="M1920 4016 c0 -9 5 -16 10 -16 6 0 10 4 10 9 0 6 -4 13 -10 16 -5 3
-10 -1 -10 -9z"/>
<path d="M1830 3806 c0 -19 5 -38 11 -42 15 -9 31 18 19 30 -6 6 -10 18 -10
28 0 10 -4 18 -10 18 -5 0 -10 -15 -10 -34z"/>
<path d="M2195 3820 c-3 -5 -1 -10 4 -10 6 0 11 5 11 10 0 6 -2 10 -4 10 -3 0
-8 -4 -11 -10z"/>
<path d="M1863 3755 c-6 -14 -9 -25 -6 -25 9 0 33 29 33 39 0 19 -15 11 -27
-14z"/>
<path d="M2013 3743 c-20 -8 -15 -22 7 -20 11 1 20 7 20 14 0 14 -6 15 -27 6z"/>
<path d="M2030 3680 c0 -5 5 -10 10 -10 6 0 10 5 10 10 0 6 -4 10 -10 10 -5 0
-10 -4 -10 -10z"/>
<path d="M1820 3666 c0 -8 5 -18 10 -21 8 -5 8 -11 0 -20 -12 -15 5 -26 28
-17 10 3 10 8 1 18 -7 8 -9 17 -6 20 6 6 -16 34 -27 34 -3 0 -6 -6 -6 -14z"/>
<path d="M1995 3659 c-4 -6 -5 -13 -2 -16 7 -7 27 6 27 18 0 12 -17 12 -25 -2z"/>
<path d="M2180 3619 c0 -11 5 -17 10 -14 6 3 10 13 10 21 0 8 -4 14 -10 14 -5
0 -10 -9 -10 -21z"/>
<path d="M2161 3604 c0 -11 3 -14 6 -6 3 7 2 16 -1 19 -3 4 -6 -2 -5 -13z"/>
<path d="M1891 3570 c1 -8 5 -26 9 -40 l8 -25 1 25 c0 14 -4 32 -9 40 -9 13
-10 13 -9 0z"/>
<path d="M3759 2281 c25 -34 31 -38 31 -17 0 7 -12 22 -27 31 l-26 18 22 -32z"/>
<path d="M3805 2290 c10 -11 20 -20 23 -20 3 0 -3 9 -13 20 -10 11 -20 20 -23
20 -3 0 3 -9 13 -20z"/>
<path d="M3711 2225 c1 -31 15 -60 22 -48 4 6 0 24 -8 39 -12 23 -15 25 -14 9z"/>
<path d="M3820 2130 c0 -5 5 -10 11 -10 5 0 7 5 4 10 -3 6 -8 10 -11 10 -2 0
-4 -4 -4 -10z"/>
<path d="M3780 2115 c0 -8 7 -15 15 -15 8 0 15 7 15 15 0 8 -7 15 -15 15 -8 0
-15 -7 -15 -15z"/>
<path d="M2928 2018 c-2 -13 -1 -34 3 -48 5 -19 7 -14 8 23 1 50 -4 62 -11 25z"/>
<path d="M2712 4918 c-8 -10 -4 -16 14 -25 19 -9 24 -8 24 2 0 22 -26 37 -38
23z"/>
<path d="M2670 4600 c0 -5 5 -10 10 -10 6 0 10 5 10 10 0 6 -4 10 -10 10 -5 0
-10 -4 -10 -10z"/>
<path d="M2647 4520 c-4 -15 0 -20 14 -20 21 0 22 1 13 24 -8 22 -21 20 -27
-4z"/>
<path d="M2500 4432 c0 -7 -15 -12 -35 -12 -19 0 -35 -5 -35 -11 0 -7 12 -8
33 -4 36 8 54 21 44 32 -4 3 -7 1 -7 -5z"/>
<path d="M2580 4425 c-10 -12 -10 -19 -2 -27 7 -7 12 -10 13 -7 3 15 5 49 4
49 -2 0 -8 -7 -15 -15z"/>
<path d="M2496 4391 c-4 -5 -2 -12 3 -15 5 -4 12 -2 15 3 4 5 2 12 -3 15 -5 4
-12 2 -15 -3z"/>
<path d="M2545 4390 c-3 -5 -1 -10 4 -10 6 0 11 5 11 10 0 6 -2 10 -4 10 -3 0
-8 -4 -11 -10z"/>
<path d="M2470 4311 c0 -25 6 -27 13 -6 4 8 2 17 -3 20 -6 4 -10 -3 -10 -14z"/>
</g>
</svg>
