<?xml version="1.0" standalone="no"?>
<!DOCTYPE svg PUBLIC "-//W3C//DTD SVG 20010904//EN"
 "http://www.w3.org/TR/2001/REC-SVG-20010904/DTD/svg10.dtd">
<svg version="1.0" xmlns="http://www.w3.org/2000/svg"
 width="523.000000pt" height="573.000000pt" viewBox="0 0 523.000000 573.000000"
 preserveAspectRatio="xMidYMid meet">

<g transform="translate(0.000000,573.000000) scale(0.100000,-0.100000)"
fill="#000000" stroke="none">
<path d="M932 5613 c-36 -2 -60 -8 -57 -13 4 -6 -9 -10 -28 -10 -57 0 -174
-31 -192 -50 -16 -17 -15 -21 10 -64 19 -32 31 -43 43 -40 13 5 14 3 4 -4 -18
-13 132 -239 156 -234 14 3 14 2 1 -15 -20 -26 -42 -42 -57 -43 -7 0 -10 4 -7
10 8 13 -27 1 -40 -14 -23 -27 -61 -46 -91 -46 -50 0 -55 -29 -33 -201 23
-181 24 -215 3 -227 -12 -7 -18 -26 -20 -68 -3 -67 20 -371 36 -466 5 -35 10
-66 10 -70 0 -4 -18 -17 -40 -28 -50 -25 -73 -69 -74 -138 -1 -48 2 -57 32
-83 28 -25 40 -29 92 -29 32 0 62 -4 65 -10 3 -5 15 -10 26 -10 10 0 19 -3 19
-8 0 -11 -185 4 -212 18 -40 22 -57 42 -64 76 -3 19 -10 31 -15 28 -13 -8 -1
-114 22 -201 33 -122 87 -489 75 -518 -2 -7 3 -20 13 -29 10 -9 26 -34 36 -56
16 -35 22 -40 49 -39 17 0 40 4 51 8 34 13 56 1 53 -28 -3 -23 -9 -27 -60 -35
-57 -9 -58 -10 -58 -42 0 -18 4 -35 9 -38 15 -10 125 16 138 32 11 14 17 13
53 -3 l41 -18 -38 -39 c-39 -40 -53 -47 -53 -24 0 11 -8 12 -42 4 -24 -5 -56
-8 -71 -5 -24 3 -29 0 -34 -24 -4 -24 -7 -26 -19 -14 -8 7 -14 17 -14 20 0 4
-10 15 -23 25 -20 17 -20 19 -4 25 33 13 17 27 -28 23 -44 -3 -45 -3 -51 32
-16 88 -70 180 -105 180 -73 0 -60 -276 18 -362 26 -29 62 -23 79 15 14 29 15
30 9 5 -5 -27 -3 -28 32 -29 21 -1 43 -1 50 0 16 2 19 -20 44 -324 11 -143 25
-307 29 -364 8 -90 12 -108 33 -130 17 -18 27 -43 31 -82 9 -71 42 -108 141
-154 52 -25 90 -36 145 -40 41 -4 86 -12 99 -18 19 -9 25 -9 35 5 8 11 43 19
121 28 61 6 148 18 194 26 117 20 128 19 133 -11 3 -14 -3 -36 -13 -52 -24
-35 -24 -39 1 -60 25 -21 26 -43 3 -43 -15 0 -16 -2 -3 -10 13 -8 12 -10 -2
-10 -16 0 -18 -13 -19 -117 0 -65 -3 -112 -6 -105 -2 6 -19 11 -36 11 l-32 -1
30 -8 c18 -5 -5 -7 -60 -4 -49 2 -185 6 -301 9 -239 7 -224 12 -224 -74 0 -51
-18 -75 -59 -78 -36 -3 -64 -36 -70 -84 l-6 -42 -100 -35 c-263 -90 -308 -106
-321 -119 -9 -9 -14 -35 -14 -68 0 -67 -7 -85 -34 -86 -19 -1 -19 -2 4 -9 28
-8 18 -15 -35 -23 -26 -5 -28 -4 -12 8 16 12 16 13 -4 18 -11 3 -18 3 -15 0 3
-3 -1 -11 -10 -17 -15 -11 -17 -19 -30 -97 -8 -50 17 -96 63 -116 48 -20 92
-10 129 28 28 29 29 35 32 137 2 58 7 113 12 122 8 15 127 45 530 136 30 7
145 33 255 59 217 50 287 55 321 20 16 -16 19 -37 21 -139 1 -67 5 -203 9
-303 6 -164 5 -183 -9 -183 -27 0 -37 -34 -37 -128 0 -130 6 -152 41 -152 28
0 29 2 29 45 0 40 2 45 23 45 19 0 25 -7 33 -42 8 -36 13 -43 36 -46 36 -4 40
13 36 153 -3 104 -4 111 -26 120 l-23 10 4 290 c2 211 7 297 16 317 28 55 69
52 453 -37 460 -106 660 -154 664 -158 2 -2 4 -50 5 -108 2 -117 13 -149 62
-179 85 -52 191 18 173 115 -8 42 -57 85 -96 85 -16 0 -32 4 -35 10 -3 5 0 10
7 10 10 0 10 2 -1 9 -9 6 -16 35 -20 77 l-6 68 -35 2 c-19 1 -51 9 -70 18
l-35 16 38 -4 c20 -3 37 -3 37 -2 0 8 -181 67 -189 62 -5 -4 -11 -2 -13 3 -2
6 -114 50 -197 77 -10 3 -12 15 -7 45 4 28 1 51 -10 74 -14 30 -20 34 -42 28
-17 -4 -23 -2 -18 6 4 6 1 11 -7 11 -19 0 -27 22 -27 71 l0 40 -212 -5 c-117
-4 -257 -9 -310 -12 l-98 -6 0 35 c0 35 2 36 98 84 71 35 97 53 97 67 0 22 1
21 -129 81 l-99 45 6 56 c8 75 37 107 113 121 30 5 57 6 59 2 3 -4 0 -9 -7
-11 -19 -7 39 -195 65 -213 42 -29 187 15 187 57 0 10 3 18 7 18 12 0 243
-234 243 -246 0 -17 118 -126 132 -122 6 2 16 12 22 21 9 13 1 26 -39 67 -27
27 -63 56 -79 64 -45 22 -294 276 -301 308 -7 29 -2 31 110 44 97 11 117 28
135 111 13 62 -10 53 299 118 171 36 226 44 270 40 l56 -7 29 53 c40 72 47
178 17 227 -29 46 -65 59 -240 87 -214 35 -291 55 -291 74 0 45 65 361 81 393
27 53 78 76 215 95 64 9 121 22 128 28 6 6 19 14 29 18 13 5 17 15 15 34 -3
26 -4 27 -68 24 -89 -3 -290 -26 -499 -58 -188 -29 -298 -31 -365 -7 -37 12
-42 12 -53 -3 -18 -23 -16 -36 7 -61 33 -35 122 -56 208 -48 112 9 117 -5 83
-218 -11 -65 -22 -120 -25 -123 -6 -6 -79 22 -251 94 -84 35 -96 38 -185 36
-70 -1 -146 -12 -290 -43 -107 -23 -219 -44 -249 -47 -53 -6 -54 -6 -48 18 4
13 7 29 7 36 0 9 21 11 73 9 96 -3 267 9 378 29 155 26 221 74 253 184 52 179
-25 398 -168 477 -46 25 -62 28 -260 40 -399 24 -515 40 -571 78 -44 30 -80
33 -90 9 -7 -19 26 -53 51 -53 8 0 14 -4 14 -9 0 -4 12 -7 28 -4 22 3 24 2 7
-5 -17 -8 -12 -11 25 -17 49 -8 81 -22 92 -39 13 -20 9 -24 -32 -28 -34 -3
-43 0 -56 19 -21 33 -37 28 -19 -7 8 -16 15 -31 15 -35 0 -7 -70 -6 -109 1
l-31 7 0 91 c0 120 5 137 35 126 13 -5 26 -6 29 -3 3 4 6 1 6 -4 0 -6 44 -18
98 -27 53 -9 138 -23 187 -31 137 -23 264 -36 364 -38 86 -2 91 -1 119 26 17
16 32 40 35 54 2 14 -4 88 -14 166 -22 166 -24 335 -7 497 7 63 13 154 13 201
0 76 -4 92 -33 150 -52 105 -129 175 -237 215 -44 17 -81 19 -326 18 -205 0
-284 -4 -308 -13 -37 -16 -40 -14 -50 32 l-8 34 161 12 c89 6 199 14 246 17
103 8 172 32 229 80 108 93 119 228 32 390 -29 55 -62 98 -181 235 -79 91
-167 121 -328 112z m145 -19 c-3 -3 -12 -4 -19 -1 -8 3 -5 6 6 6 11 1 17 -2
13 -5z m0 -110 c-3 -3 -12 -4 -19 -1 -8 3 -5 6 6 6 11 1 17 -2 13 -5z m-40
-10 c-3 -3 -12 -4 -19 -1 -8 3 -5 6 6 6 11 1 17 -2 13 -5z m78 -24 c-18 -8
-18 -9 5 -10 l25 -2 -25 -8 c-14 -4 -34 -8 -45 -8 -16 0 -15 2 5 8 l25 8 -25
2 -25 2 25 8 c34 11 60 11 35 0z m-72 -17 c-7 -2 -19 -2 -25 0 -7 3 -2 5 12 5
14 0 19 -2 13 -5z m112 -13 c-3 -5 -16 -10 -28 -9 -20 1 -20 2 3 9 14 4 26 8
28 9 2 1 0 -3 -3 -9z m-108 -6 c-3 -3 -12 -4 -19 -1 -8 3 -5 6 6 6 11 1 17 -2
13 -5z m46 -11 c-7 -2 -19 -2 -25 0 -7 3 -2 5 12 5 14 0 19 -2 13 -5z m-46 -9
c-3 -3 -12 -4 -19 -1 -8 3 -5 6 6 6 11 1 17 -2 13 -5z m83 -4 c-14 -4 -34 -8
-45 -8 -16 0 -15 2 5 8 14 4 34 8 45 8 16 0 15 -2 -5 -8z m50 -10 c-12 -8 -10
-10 10 -11 l25 -1 -25 -8 c-14 -4 -34 -8 -45 -8 -16 0 -15 2 5 8 45 14 -9 11
-75 -4 -66 -16 -90 -13 -29 3 45 11 124 28 139 30 6 0 3 -4 -5 -9z m-123 -6
c-3 -3 -12 -4 -19 -1 -8 3 -5 6 6 6 11 1 17 -2 13 -5z m18 -40 c-27 -7 -54
-13 -60 -13 -17 2 69 27 90 27 11 0 -2 -6 -30 -14z m143 11 c-7 -7 -159 -37
-164 -32 -3 2 28 11 68 20 81 16 104 19 96 12z m2 -25 c-14 -4 -36 -8 -50 -8
-22 0 -22 1 5 8 17 4 39 8 50 8 16 0 15 -2 -5 -8z m-125 -26 c-27 -7 -57 -13
-65 -13 -21 1 70 27 95 27 11 0 -2 -6 -30 -14z m154 12 c-7 -7 -211 -47 -216
-43 -2 2 38 14 89 25 92 20 135 26 127 18z m6 -23 c-130 -30 -225 -49 -218
-42 10 10 180 47 213 47 20 0 21 -1 5 -5z m34 -17 c-2 -2 -55 -13 -116 -25
-62 -12 -121 -24 -130 -27 -16 -5 -16 -4 -2 5 26 17 264 62 248 47z m-14 -27
c-52 -14 -238 -49 -243 -45 -2 2 29 11 70 20 40 9 91 20 113 25 22 5 51 9 65
9 23 0 22 -1 -5 -9z m32 -15 c-3 -4 -50 -14 -104 -24 -54 -10 -114 -22 -133
-26 -19 -4 -32 -4 -29 0 6 6 226 53 258 55 8 1 12 -2 8 -5z m8 -24 c-3 -5 -16
-10 -28 -10 -12 0 -73 -11 -134 -23 -62 -13 -109 -20 -105 -16 7 8 148 38 265
58 5 0 5 -3 2 -9z m14 -23 c-2 -2 -58 -13 -124 -25 -66 -12 -131 -24 -145 -28
-20 -4 -22 -3 -9 5 9 6 74 21 145 34 113 21 148 25 133 14z m10 -21 c-2 -3
-58 -14 -124 -26 -66 -11 -133 -23 -150 -27 -16 -3 -27 -3 -24 1 9 10 225 54
268 55 19 1 32 -1 30 -3z m-14 -26 c-62 -17 -285 -55 -285 -49 0 6 131 33 250
52 44 7 66 5 35 -3z m20 -19 c-8 -7 -86 -21 -260 -46 -75 -11 46 18 145 35
130 22 126 22 115 11z m-488 -70 c-3 -27 -20 -82 -36 -121 -17 -40 -28 -77
-24 -83 3 -6 1 -7 -5 -3 -7 4 -12 2 -12 -5 0 -8 -3 -9 -8 -3 -5 5 -14 56 -20
113 -10 81 -9 107 0 119 16 19 46 31 82 31 29 1 29 1 23 -48z m453 38 c-158
-27 -237 -41 -255 -46 -11 -3 -16 -2 -12 3 11 11 233 52 282 52 36 0 35 -1
-15 -9z m49 -13 c-7 -7 -230 -38 -235 -33 -3 3 37 11 88 20 94 15 155 20 147
13z m-14 -25 c-11 -5 -51 -11 -90 -14 l-70 -6 65 13 c36 8 76 14 90 14 22 1
23 0 5 -7z m-255 -20 c-21 -6 -16 -9 30 -16 30 -4 49 -10 43 -12 -7 -3 -39 1
-70 8 -46 9 -54 13 -38 20 11 4 29 7 40 7 16 0 15 -2 -5 -7z m258 -3 c-9 -26
-35 -31 -99 -21 l-64 11 70 -3 c39 -1 54 0 35 3 l-35 6 40 6 c22 4 44 8 48 9
5 0 7 -4 5 -11z m-175 -5 c-7 -2 -21 -2 -30 0 -10 3 -4 5 12 5 17 0 24 -2 18
-5z m-66 -29 c-3 -3 -12 -4 -19 -1 -8 3 -5 6 6 6 11 1 17 -2 13 -5z m126 -1
c-7 -2 -21 -2 -30 0 -10 3 -4 5 12 5 17 0 24 -2 18 -5z m-147 -21 c-10 -2 -22
0 -28 6 -6 6 0 7 19 4 21 -5 23 -7 9 -10z m109 8 c27 -7 27 -8 5 -8 -14 0 -36
4 -50 8 -20 6 -21 8 -5 8 11 0 34 -4 50 -8z m113 3 c-10 -2 -28 -2 -40 0 -13
2 -5 4 17 4 22 1 32 -1 23 -4z m-165 -20 c-7 -2 -19 -2 -25 0 -7 3 -2 5 12 5
14 0 19 -2 13 -5z m135 0 c-10 -2 -26 -2 -35 0 -10 3 -2 5 17 5 19 0 27 -2 18
-5z m-161 -19 c-3 -3 -12 -4 -19 -1 -8 3 -5 6 6 6 11 1 17 -2 13 -5z m136 -1
c-7 -2 -21 -2 -30 0 -10 3 -4 5 12 5 17 0 24 -2 18 -5z m-86 -9 c-3 -3 -12 -4
-19 -1 -8 3 -5 6 6 6 11 1 17 -2 13 -5z m131 -231 c-54 -2 -142 -2 -195 0 -54
1 -10 3 97 3 107 0 151 -2 98 -3z m187 -29 c56 -26 116 -85 148 -145 17 -32
17 -32 0 -9 -49 69 -121 132 -178 155 -33 13 -52 25 -42 25 10 0 43 -11 72
-26z m-805 -114 c10 -19 9 -19 -15 -8 -19 8 -22 14 -13 20 17 10 16 11 28 -12z
m378 3 c-10 -2 -26 -2 -35 0 -10 3 -2 5 17 5 19 0 27 -2 18 -5z m240 0 c-10
-2 -28 -2 -40 0 -13 2 -5 4 17 4 22 1 32 -1 23 -4z m-105 -10 c-13 -2 -33 -2
-45 0 -13 2 -3 4 22 4 25 0 35 -2 23 -4z m190 0 c-7 -2 -21 -2 -30 0 -10 3 -4
5 12 5 17 0 24 -2 18 -5z m-345 -10 c-21 -2 -57 -2 -80 0 -24 2 -7 4 37 4 44
0 63 -2 43 -4z m270 0 c-16 -2 -40 -2 -55 0 -16 2 -3 4 27 4 30 0 43 -2 28 -4z
m-120 -10 c-15 -2 -42 -2 -60 0 -18 2 -6 4 27 4 33 0 48 -2 33 -4z m220 0
c-10 -2 -28 -2 -40 0 -13 2 -5 4 17 4 22 1 32 -1 23 -4z m-85 -10 c-13 -2 -35
-2 -50 0 -16 2 -5 4 22 4 28 0 40 -2 28 -4z m-135 -10 c-15 -2 -42 -2 -60 0
-18 2 -6 4 27 4 33 0 48 -2 33 -4z m240 0 c-10 -2 -26 -2 -35 0 -10 3 -2 5 17
5 19 0 27 -2 18 -5z m-90 -10 c-15 -2 -42 -2 -60 0 -18 2 -6 4 27 4 33 0 48
-2 33 -4z m-150 -10 c-21 -2 -57 -2 -80 0 -24 2 -7 4 37 4 44 0 63 -2 43 -4z
m232 -4 c-25 -4 -72 -7 -105 -6 l-60 1 70 6 c39 4 86 7 105 7 31 0 30 0 -10
-8z m-222 -16 c-21 -2 -57 -2 -80 0 -24 2 -7 4 37 4 44 0 63 -2 43 -4z m275 0
c-7 -2 -19 -2 -25 0 -7 3 -2 5 12 5 14 0 19 -2 13 -5z m-85 -10 c-21 -2 -57
-2 -80 0 -24 2 -7 4 37 4 44 0 63 -2 43 -4z m-246 -10 c-50 -2 -134 -2 -185 0
-50 1 -9 3 93 3 102 0 143 -2 92 -3z m338 -3 c-8 -5 -51 -9 -95 -8 l-80 2 75
6 c41 4 84 7 95 8 16 1 17 0 5 -8z m-312 -17 c-49 -2 -127 -2 -175 0 -49 1 -9
3 87 3 96 0 136 -2 88 -3z m285 -10 c-29 -2 -77 -2 -105 0 -29 2 -6 3 52 3 58
0 81 -1 53 -3z m-250 -10 c-51 -2 -136 -2 -190 0 -54 1 -12 3 92 3 105 0 149
-2 98 -3z m275 -10 c-21 -2 -57 -2 -80 0 -24 2 -7 4 37 4 44 0 63 -2 43 -4z
m-230 -10 c-53 -2 -143 -2 -200 0 -57 1 -13 3 97 3 110 0 156 -2 103 -3z m245
-10 c-18 -2 -48 -2 -65 0 -18 2 -4 4 32 4 36 0 50 -2 33 -4z m-215 -10 c-60
-2 -156 -2 -215 0 -60 1 -11 3 107 3 118 0 167 -2 108 -3z m242 -13 c0 -6 -99
-9 -282 -8 l-283 2 265 6 c146 3 273 7 283 8 9 1 17 -2 17 -8z m-138 -27 c-78
-2 -206 -2 -285 0 -78 1 -14 3 143 3 157 0 221 -2 142 -3z m11 -20 c-78 -2
-208 -2 -290 0 -81 1 -17 3 142 3 160 0 226 -2 148 -3z m-510 -10 c-7 -2 -21
-2 -30 0 -10 3 -4 5 12 5 17 0 24 -2 18 -5z m215 -10 c-26 -2 -71 -2 -100 0
-29 2 -8 3 47 3 55 0 79 -1 53 -3z m385 0 c-23 -2 -64 -2 -90 0 -26 2 -7 3 42
3 50 0 71 -1 48 -3z m-416 -20 c-20 -2 -52 -2 -70 0 -17 2 0 4 38 4 39 0 53
-2 32 -4z m-200 -9 c-3 -3 -12 -4 -19 -1 -8 3 -5 6 6 6 11 1 17 -2 13 -5z
m561 -1 c-54 -2 -142 -2 -195 0 -54 1 -10 3 97 3 107 0 151 -2 98 -3z m-385
-10 c-18 -2 -48 -2 -65 0 -18 2 -4 4 32 4 36 0 50 -2 33 -4z m390 -10 c-51 -2
-136 -2 -190 0 -54 1 -12 3 92 3 105 0 149 -2 98 -3z m-410 -10 c-18 -2 -48
-2 -65 0 -18 2 -4 4 32 4 36 0 50 -2 33 -4z m389 -10 c-62 -2 -161 -2 -220 0
-59 1 -8 3 113 3 121 0 169 -2 107 -3z m-394 -10 c-16 -2 -40 -2 -55 0 -16 2
-3 4 27 4 30 0 43 -2 28 -4z m417 -13 c55 -4 7 -5 -125 -2 -118 2 -217 6 -219
8 -7 7 250 2 344 -6z m-437 -7 c-16 -2 -40 -2 -55 0 -16 2 -3 4 27 4 30 0 43
-2 28 -4z m427 -13 l100 -7 -100 0 c-55 0 -161 3 -235 6 l-135 8 135 0 c74 0
180 -3 235 -7z m-432 -7 c-13 -2 -35 -2 -50 0 -16 2 -5 4 22 4 28 0 40 -2 28
-4z m185 -10 c-21 -2 -55 -2 -75 0 -21 2 -4 4 37 4 41 0 58 -2 38 -4z m-190
-10 c-16 -2 -40 -2 -55 0 -16 2 -3 4 27 4 30 0 43 -2 28 -4z m455 0 c-40 -2
-106 -2 -145 0 -40 1 -8 3 72 3 80 0 112 -2 73 -3z m-275 -10 c-27 -2 -69 -2
-95 0 -27 2 -5 3 47 3 52 0 74 -1 48 -3z m-190 -10 c-16 -2 -40 -2 -55 0 -16
2 -3 4 27 4 30 0 43 -2 28 -4z m525 0 c3 -5 -38 -7 -91 -5 -179 5 -198 8 -55
10 78 1 144 -1 146 -5z m-370 -10 c-18 -2 -48 -2 -65 0 -18 2 -4 4 32 4 36 0
50 -2 33 -4z m-170 -10 c-18 -2 -48 -2 -65 0 -18 2 -4 4 32 4 36 0 50 -2 33
-4z m492 -3 c34 -4 -15 -5 -110 -2 -93 3 -172 6 -174 8 -8 7 223 2 284 -6z
m-337 -7 c-21 -2 -55 -2 -75 0 -21 2 -4 4 37 4 41 0 58 -2 38 -4z m-155 -10
c-13 -2 -35 -2 -50 0 -16 2 -5 4 22 4 28 0 40 -2 28 -4z m462 -2 c90 -8 90 -8
20 -8 -38 0 -117 3 -175 7 l-105 7 85 0 c47 1 126 -2 175 -6z m-327 -8 c-15
-2 -42 -2 -60 0 -18 2 -6 4 27 4 33 0 48 -2 33 -4z m-140 -10 c-15 -2 -42 -2
-60 0 -18 2 -6 4 27 4 33 0 48 -2 33 -4z m551 -9 c7 -6 -188 -2 -289 6 -64 5
-33 6 95 3 105 -3 192 -7 194 -9z m-329 -3 c82 -8 83 -8 20 -8 -36 0 -99 3
-140 7 -68 6 -70 7 -20 7 30 1 93 -2 140 -6z m-232 -8 c-15 -2 -42 -2 -60 0
-18 2 -6 4 27 4 33 0 48 -2 33 -4z m-155 -10 c-7 -2 -21 -2 -30 0 -10 3 -4 5
12 5 17 0 24 -2 18 -5z m270 0 c-13 -2 -33 -2 -45 0 -13 2 -3 4 22 4 25 0 35
-2 23 -4z m355 0 c-27 -2 -69 -2 -95 0 -27 2 -5 3 47 3 52 0 74 -1 48 -3z
m-480 -10 c-15 -2 -42 -2 -60 0 -18 2 -6 4 27 4 33 0 48 -2 33 -4z m512 -13
c82 -10 -146 -1 -270 11 -62 5 -46 6 60 2 80 -3 174 -9 210 -13z m53 13 c-7
-2 -19 -2 -25 0 -7 3 -2 5 12 5 14 0 19 -2 13 -5z m-700 -10 c-7 -2 -21 -2
-30 0 -10 3 -4 5 12 5 17 0 24 -2 18 -5z m255 0 c-15 -2 -42 -2 -60 0 -18 2
-6 4 27 4 33 0 48 -2 33 -4z m-130 -10 c-16 -2 -40 -2 -55 0 -16 2 -3 4 27 4
30 0 43 -2 28 -4z m250 0 c-15 -2 -42 -2 -60 0 -18 2 -6 4 27 4 33 0 48 -2 33
-4z m-385 -10 c-7 -2 -19 -2 -25 0 -7 3 -2 5 12 5 14 0 19 -2 13 -5z m250 0
c-13 -2 -33 -2 -45 0 -13 2 -3 4 22 4 25 0 35 -2 23 -4z m372 -3 c39 -5 17 -6
-65 -3 -69 3 -127 7 -129 9 -7 7 131 2 194 -6z m-487 -7 c-15 -2 -42 -2 -60 0
-18 2 -6 4 27 4 33 0 48 -2 33 -4z m346 -3 c76 -6 145 -15 155 -21 14 -9 14
-10 -2 -5 -9 3 -88 10 -175 16 -86 6 -161 13 -167 15 -19 7 50 5 189 -5z m326
0 c11 -8 7 -9 -15 -4 -37 8 -45 14 -19 14 10 0 26 -5 34 -10z m-803 -6 c-3 -3
-12 -4 -19 -1 -8 3 -5 6 6 6 11 1 17 -2 13 -5z m241 -1 c-16 -2 -40 -2 -55 0
-16 2 -3 4 27 4 30 0 43 -2 28 -4z m489 1 c-3 -3 -12 -4 -19 -1 -8 3 -5 6 6 6
11 1 17 -2 13 -5z m-604 -11 c-13 -2 -35 -2 -50 0 -16 2 -5 4 22 4 28 0 40 -2
28 -4z m225 0 c-16 -2 -40 -2 -55 0 -16 2 -3 4 27 4 30 0 43 -2 28 -4z m425 0
c-7 -2 -19 -2 -25 0 -7 3 -2 5 12 5 14 0 19 -2 13 -5z m-550 -10 c-13 -2 -33
-2 -45 0 -13 2 -3 4 22 4 25 0 35 -2 23 -4z m397 -14 c10 -5 2 -6 -20 -2 -19
3 -31 2 -27 -3 9 -10 -360 -137 -374 -128 -5 3 -9 1 -9 -5 0 -21 -169 -55
-187 -38 -3 4 11 7 33 8 31 0 35 2 19 9 -16 7 -14 9 15 9 19 1 53 4 75 8 37 6
38 7 15 14 -21 7 -19 8 12 6 20 -1 40 2 44 6 4 4 19 8 33 8 25 1 25 2 -4 10
-26 7 -24 8 13 5 49 -5 58 11 10 17 -18 3 -6 3 27 1 41 -3 55 -1 45 6 -11 7
-7 10 20 11 47 1 30 7 -55 18 l-70 10 87 -5 c92 -6 168 2 168 16 0 5 -28 11
-62 13 -35 2 -21 3 31 1 52 -2 92 -1 89 2 -3 3 -43 9 -89 14 -78 8 -75 8 31 3
63 -3 122 -9 130 -14z m107 15 c-3 -3 -12 -4 -19 -1 -8 3 -5 6 6 6 11 1 17 -2
13 -5z m-619 -11 c-16 -2 -40 -2 -55 0 -16 2 -3 4 27 4 30 0 43 -2 28 -4z
m220 0 c-16 -2 -40 -2 -55 0 -16 2 -3 4 27 4 30 0 43 -2 28 -4z m-321 -9 c-3
-3 -12 -4 -19 -1 -8 3 -5 6 6 6 11 1 17 -2 13 -5z m216 -1 c-13 -2 -35 -2 -50
0 -16 2 -5 4 22 4 28 0 40 -2 28 -4z m-120 -10 c-13 -2 -33 -2 -45 0 -13 2 -3
4 22 4 25 0 35 -2 23 -4z m220 0 c-13 -2 -35 -2 -50 0 -16 2 -5 4 22 4 28 0
40 -2 28 -4z m-115 -10 c-10 -2 -28 -2 -40 0 -13 2 -5 4 17 4 22 1 32 -1 23
-4z m215 0 c-13 -2 -35 -2 -50 0 -16 2 -5 4 22 4 28 0 40 -2 28 -4z m-315 -10
c-16 -2 -40 -2 -55 0 -16 2 -3 4 27 4 30 0 43 -2 28 -4z m105 -10 c-13 -2 -33
-2 -45 0 -13 2 -3 4 22 4 25 0 35 -2 23 -4z m-110 -10 c-13 -2 -33 -2 -45 0
-13 2 -3 4 22 4 25 0 35 -2 23 -4z m195 0 c-10 -2 -28 -2 -40 0 -13 2 -5 4 17
4 22 1 32 -1 23 -4z m-90 -10 c-10 -2 -28 -2 -40 0 -13 2 -5 4 17 4 22 1 32
-1 23 -4z m-105 -10 c-13 -2 -35 -2 -50 0 -16 2 -5 4 22 4 28 0 40 -2 28 -4z
m95 -10 c-10 -2 -28 -2 -40 0 -13 2 -5 4 17 4 22 1 32 -1 23 -4z m-100 -10
c-10 -2 -26 -2 -35 0 -10 3 -2 5 17 5 19 0 27 -2 18 -5z m100 -10 c-10 -2 -28
-2 -40 0 -13 2 -5 4 17 4 22 1 32 -1 23 -4z m-95 -10 c-13 -2 -35 -2 -50 0
-16 2 -5 4 22 4 28 0 40 -2 28 -4z m-5 -20 c-10 -2 -26 -2 -35 0 -10 3 -2 5
17 5 19 0 27 -2 18 -5z m547 -128 l100 -13 -85 5 c-47 3 -130 11 -185 19
l-100 13 85 -5 c47 -3 130 -11 185 -19z m-85 -11 c164 -16 227 -28 100 -19
-41 3 -109 8 -150 10 l-75 4 95 -14 c52 -7 118 -14 147 -14 28 -1 54 -5 57
-10 6 -9 -18 -8 -219 15 -71 7 -155 16 -185 19 -52 4 -53 4 -13 -5 37 -8 394
-50 424 -50 7 0 10 -2 7 -5 -3 -3 -76 1 -162 10 -86 9 -162 15 -169 12 -6 -2
42 -10 108 -17 66 -6 145 -16 175 -21 113 -17 -111 1 -265 22 -160 22 -278 43
-180 33 131 -13 144 -12 55 5 -65 13 -84 19 -60 21 30 1 32 3 15 11 -18 8 -17
9 5 5 14 -3 57 -7 95 -10 l70 -5 -70 14 c-68 14 -68 14 -15 9 30 -2 125 -11
210 -20z m-367 -41 c-7 -2 -19 -2 -25 0 -7 3 -2 5 12 5 14 0 19 -2 13 -5z
m302 -38 c237 -29 269 -34 263 -40 -2 -2 -80 5 -173 16 -94 11 -183 17 -199
14 -16 -3 -26 -2 -22 2 4 5 -30 16 -76 25 -93 19 -97 19 207 -17z m-312 18
c-7 -2 -19 -2 -25 0 -7 3 -2 5 12 5 14 0 19 -2 13 -5z m60 -10 c-7 -2 -21 -2
-30 0 -10 3 -4 5 12 5 17 0 24 -2 18 -5z m-346 -11 c28 -17 35 -65 23 -150
-15 -99 -24 -97 -51 15 -24 102 -25 143 -1 143 9 0 22 -4 29 -8z m406 1 c-7
-2 -19 -2 -25 0 -7 3 -2 5 12 5 14 0 19 -2 13 -5z m100 -240 c-7 -2 -21 -2
-30 0 -10 3 -4 5 12 5 17 0 24 -2 18 -5z m364 -29 c-3 -3 -12 -4 -19 -1 -8 3
-5 6 6 6 11 1 17 -2 13 -5z m218 -23 c48 -21 116 -99 148 -171 16 -35 21 -66
21 -140 1 -95 -4 -140 -15 -150 -3 -3 -18 -26 -33 -52 -25 -43 -60 -83 -42
-47 4 8 0 5 -8 -5 -9 -11 -16 -16 -16 -10 0 5 -4 4 -8 -2 -18 -28 -346 -69
-492 -62 -78 4 -91 23 -35 53 36 20 42 29 25 40 -27 17 -52 103 -56 195 l-4
95 15 -99 c8 -55 18 -102 22 -105 4 -3 9 -15 11 -25 6 -32 44 -75 73 -81 15
-3 56 -1 91 5 34 7 81 12 103 12 28 -1 35 2 25 9 -10 6 0 7 30 3 35 -4 42 -3
30 6 -12 9 -5 10 28 5 30 -5 42 -3 42 5 0 7 8 10 19 7 11 -3 28 3 38 13 11 9
25 19 33 22 8 3 -5 8 -30 12 -88 12 -94 15 -20 11 48 -3 68 -1 55 5 -11 5 -40
9 -65 10 -49 1 -137 17 -105 19 11 0 58 -4 105 -9 46 -5 88 -6 92 -2 19 19
-15 30 -107 35 -69 4 -86 3 -55 -3 25 -5 66 -9 92 -9 26 -1 49 -5 52 -9 6 -10
-127 3 -242 23 -92 16 -133 18 -92 5 20 -6 21 -8 5 -8 -11 0 -31 4 -45 8 l-25
8 25 2 c23 1 24 2 5 11 -17 8 -15 8 8 4 15 -3 48 -8 75 -10 34 -4 25 0 -33 14
-154 36 -247 68 -162 56 26 -4 28 -4 12 5 -16 7 -11 8 20 5 l40 -5 -35 14
c-23 9 -30 15 -20 18 8 3 2 4 -15 2 -16 -1 -24 0 -16 3 11 5 11 7 0 15 -11 8
-10 9 3 5 9 -3 34 -8 55 -12 28 -4 33 -3 18 4 -25 12 -1 12 35 1 l25 -8 -25
-2 c-38 -3 62 -28 135 -34 l60 -5 -60 13 c-47 10 -53 14 -30 16 l30 2 -30 9
c-20 5 -9 6 30 2 71 -7 84 -13 29 -14 l-39 -1 49 -10 c27 -5 90 -13 140 -18
l91 -9 -110 4 c-79 2 -97 1 -65 -5 25 -5 65 -10 90 -11 34 -1 38 -3 16 -6 -16
-3 -83 3 -148 12 -66 10 -121 15 -124 12 -5 -5 164 -30 279 -43 32 -3 57 -8
54 -10 -7 -7 -190 13 -292 33 -65 12 -83 18 -65 23 20 5 14 8 -33 19 -32 7
-61 10 -64 8 -3 -3 12 -9 33 -13 35 -7 37 -8 14 -14 -34 -8 94 -36 277 -60 76
-10 121 -18 99 -19 -51 -1 -230 25 -334 50 -89 20 -122 24 -83 8 47 -19 267
-58 364 -65 l97 -7 1 29 c1 16 1 40 1 54 0 25 13 40 36 40 6 0 12 -5 12 -10 0
-6 -3 -9 -7 -9 -28 5 -31 -3 -10 -23 13 -13 23 -33 22 -45 -1 -13 2 -23 7 -23
4 0 7 21 7 48 -1 26 0 60 1 76 1 15 -1 31 -6 35 -5 3 -10 19 -11 35 -1 16 -6
32 -10 35 -4 3 -15 19 -23 34 -19 38 -65 83 -105 102 -18 8 -71 22 -116 30
l-84 15 78 -5 c46 -3 97 -13 122 -24z m-102 -108 c-13 -2 -33 -2 -45 0 -13 2
-3 4 22 4 25 0 35 -2 23 -4z m100 0 c-7 -2 -21 -2 -30 0 -10 3 -4 5 12 5 17 0
24 -2 18 -5z m-1088 -31 c12 -9 25 -24 30 -32 6 -9 3 -8 -7 2 -9 10 -29 25
-45 33 -15 8 -21 15 -13 15 8 0 24 -8 35 -18z m892 -8 c-3 -3 -12 -4 -19 -1
-8 3 -5 6 6 6 11 1 17 -2 13 -5z m231 -1 c-10 -2 -28 -2 -40 0 -13 2 -5 4 17
4 22 1 32 -1 23 -4z m-110 -10 c-10 -2 -26 -2 -35 0 -10 3 -2 5 17 5 19 0 27
-2 18 -5z m15 -20 c-13 -2 -33 -2 -45 0 -13 2 -3 4 22 4 25 0 35 -2 23 -4z
m-505 -93 c0 -34 0 -34 -9 9 -4 23 -11 53 -14 65 -2 12 2 8 10 -9 8 -16 14
-46 13 -65z m299 84 c-3 -3 -12 -4 -19 -1 -8 3 -5 6 6 6 11 1 17 -2 13 -5z
m121 -1 c-10 -2 -26 -2 -35 0 -10 3 -2 5 17 5 19 0 27 -2 18 -5z m-71 -9 c-3
-3 -12 -4 -19 -1 -8 3 -5 6 6 6 11 1 17 -2 13 -5z m171 -1 c-10 -2 -26 -2 -35
0 -10 3 -2 5 17 5 19 0 27 -2 18 -5z m-101 -9 c-3 -3 -12 -4 -19 -1 -8 3 -5 6
6 6 11 1 17 -2 13 -5z m-240 -10 c-3 -3 -12 -4 -19 -1 -8 3 -5 6 6 6 11 1 17
-2 13 -5z m80 0 c-3 -3 -12 -4 -19 -1 -8 3 -5 6 6 6 11 1 17 -2 13 -5z m100 0
c-3 -3 -12 -4 -19 -1 -8 3 -5 6 6 6 11 1 17 -2 13 -5z m176 -1 c-13 -2 -35 -2
-50 0 -16 2 -5 4 22 4 28 0 40 -2 28 -4z m-316 -9 c-3 -3 -12 -4 -19 -1 -8 3
-5 6 6 6 11 1 17 -2 13 -5z m86 -1 c-7 -2 -19 -2 -25 0 -7 3 -2 5 12 5 14 0
19 -2 13 -5z m125 0 c-10 -2 -26 -2 -35 0 -10 3 -2 5 17 5 19 0 27 -2 18 -5z
m195 0 c-7 -2 -21 -2 -30 0 -10 3 -4 5 12 5 17 0 24 -2 18 -5z m-446 -9 c-3
-3 -12 -4 -19 -1 -8 3 -5 6 6 6 11 1 17 -2 13 -5z m80 0 c-3 -3 -12 -4 -19 -1
-8 3 -5 6 6 6 11 1 17 -2 13 -5z m106 -1 c-7 -2 -19 -2 -25 0 -7 3 -2 5 12 5
14 0 19 -2 13 -5z m170 0 c-13 -2 -35 -2 -50 0 -16 2 -5 4 22 4 28 0 40 -2 28
-4z m163 -2 c-4 -5 0 -12 6 -14 8 -3 6 -6 -4 -6 -18 -1 -24 10 -11 22 9 10 15
8 9 -2z m-393 -8 c-7 -2 -19 -2 -25 0 -7 3 -2 5 12 5 14 0 19 -2 13 -5z m125
0 c-10 -2 -26 -2 -35 0 -10 3 -2 5 17 5 19 0 27 -2 18 -5z m190 0 c-10 -2 -26
-2 -35 0 -10 3 -2 5 17 5 19 0 27 -2 18 -5z m34 -9 c-14 -10 -37 -14 -65 -11
l-42 4 47 1 c26 1 50 7 53 12 3 6 11 10 18 10 6 0 1 -7 -11 -16z m-139 -1
c-13 -2 -33 -2 -45 0 -13 2 -3 4 22 4 25 0 35 -2 23 -4z m-210 -10 c-7 -2 -19
-2 -25 0 -7 3 -2 5 12 5 14 0 19 -2 13 -5z m336 -19 c8 -7 -92 -3 -144 6 -36
6 -23 7 45 3 52 -3 97 -7 99 -9z m1074 -41 c-7 -2 -19 -2 -25 0 -7 3 -2 5 12
5 14 0 19 -2 13 -5z m-1523 -17 c34 -11 39 -15 20 -16 -23 -1 -24 -2 -5 -11
15 -6 11 -7 -15 -3 -19 4 -48 13 -65 20 -16 8 -21 12 -10 8 11 -3 34 -7 50
-10 29 -4 29 -4 -5 10 -46 19 -28 20 30 2z m447 8 c-3 -3 -12 -4 -19 -1 -8 3
-5 6 6 6 11 1 17 -2 13 -5z m-513 -45 c-19 -7 -19 -8 1 -9 11 -1 15 -4 8 -6
-7 -3 -20 -1 -30 5 -11 6 -13 11 -5 11 7 0 11 4 8 9 -4 5 4 7 16 3 21 -5 21
-6 2 -13z m53 -5 c-3 -3 -12 -4 -19 -1 -8 3 -5 6 6 6 11 1 17 -2 13 -5z m78
-18 c36 -10 43 -15 25 -16 l-25 -2 25 -8 c20 -6 21 -8 5 -8 -11 0 -31 4 -45 8
l-25 8 25 2 c21 1 18 4 -15 15 -54 17 -33 18 30 1z m-60 -6 c13 -5 14 -9 5 -9
-8 0 -24 4 -35 9 -13 5 -14 9 -5 9 8 0 24 -4 35 -9z m158 3 c-7 -2 -19 -2 -25
0 -7 3 -2 5 12 5 14 0 19 -2 13 -5z m60 -10 c-7 -2 -21 -2 -30 0 -10 3 -4 5
12 5 17 0 24 -2 18 -5z m-246 -9 c-3 -3 -12 -4 -19 -1 -8 3 -5 6 6 6 11 1 17
-2 13 -5z m218 -4 c27 -7 27 -8 5 -8 -14 0 -38 4 -55 8 -27 7 -27 8 -5 8 14 0
39 -4 55 -8z m-178 -6 c-3 -3 -12 -4 -19 -1 -8 3 -5 6 6 6 11 1 17 -2 13 -5z
m-40 -10 c-3 -3 -12 -4 -19 -1 -8 3 -5 6 6 6 11 1 17 -2 13 -5z m80 0 c-3 -3
-12 -4 -19 -1 -8 3 -5 6 6 6 11 1 17 -2 13 -5z m96 -1 c-7 -2 -19 -2 -25 0 -7
3 -2 5 12 5 14 0 19 -2 13 -5z m125 0 c-10 -2 -26 -2 -35 0 -10 3 -2 5 17 5
19 0 27 -2 18 -5z m-261 -9 c-3 -3 -12 -4 -19 -1 -8 3 -5 6 6 6 11 1 17 -2 13
-5z m86 -1 c-7 -2 -19 -2 -25 0 -7 3 -2 5 12 5 14 0 19 -2 13 -5z m110 0 c-7
-2 -21 -2 -30 0 -10 3 -4 5 12 5 17 0 24 -2 18 -5z m-236 -9 c-3 -3 -12 -4
-19 -1 -8 3 -5 6 6 6 11 1 17 -2 13 -5z m80 0 c-3 -3 -12 -4 -19 -1 -8 3 -5 6
6 6 11 1 17 -2 13 -5z m96 -1 c-7 -2 -19 -2 -25 0 -7 3 -2 5 12 5 14 0 19 -2
13 -5z m125 0 c-10 -2 -26 -2 -35 0 -10 3 -2 5 17 5 19 0 27 -2 18 -5z m-261
-9 c-3 -3 -12 -4 -19 -1 -8 3 -5 6 6 6 11 1 17 -2 13 -5z m90 0 c-3 -3 -12 -4
-19 -1 -8 3 -5 6 6 6 11 1 17 -2 13 -5z m106 -1 c-7 -2 -21 -2 -30 0 -10 3 -4
5 12 5 17 0 24 -2 18 -5z m145 0 c-10 -2 -28 -2 -40 0 -13 2 -5 4 17 4 22 1
32 -1 23 -4z m-301 -9 c-3 -3 -12 -4 -19 -1 -8 3 -5 6 6 6 11 1 17 -2 13 -5z
m90 0 c-3 -3 -12 -4 -19 -1 -8 3 -5 6 6 6 11 1 17 -2 13 -5z m126 -1 c-7 -2
-21 -2 -30 0 -10 3 -4 5 12 5 17 0 24 -2 18 -5z m-256 -9 c-3 -3 -12 -4 -19
-1 -8 3 -5 6 6 6 11 1 17 -2 13 -5z m90 0 c-3 -3 -12 -4 -19 -1 -8 3 -5 6 6 6
11 1 17 -2 13 -5z m88 -4 c-16 -4 -39 -8 -50 -8 -16 0 -15 2 5 8 14 4 36 8 50
8 22 0 22 -1 -5 -8z m163 3 c-10 -2 -26 -2 -35 0 -10 3 -2 5 17 5 19 0 27 -2
18 -5z m-291 -9 c-3 -3 -12 -4 -19 -1 -8 3 -5 6 6 6 11 1 17 -2 13 -5z m216
-1 c-7 -2 -21 -2 -30 0 -10 3 -4 5 12 5 17 0 24 -2 18 -5z m-66 -9 c-3 -3 -12
-4 -19 -1 -8 3 -5 6 6 6 11 1 17 -2 13 -5z m-150 -10 c-3 -3 -12 -4 -19 -1 -8
3 -5 6 6 6 11 1 17 -2 13 -5z m90 0 c-3 -3 -12 -4 -19 -1 -8 3 -5 6 6 6 11 1
17 -2 13 -5z m-40 -10 c-3 -3 -12 -4 -19 -1 -8 3 -5 6 6 6 11 1 17 -2 13 -5z
m-616 -37 c-8 -8 -11 -7 -11 4 0 20 13 34 18 19 3 -7 -1 -17 -7 -23z m-178 16
c-7 -2 -21 -2 -30 0 -10 3 -4 5 12 5 17 0 24 -2 18 -5z m342 -100 c-3 -8 -5
-29 -5 -46 0 -49 -12 -58 -81 -67 -35 -4 -65 -7 -66 -6 0 0 -4 30 -8 66 l-7
65 87 1 c71 1 85 -2 80 -13z m-90 -673 c-6 -9 148 -90 171 -90 39 0 2 -20
-102 -54 -124 -41 -133 -40 -134 12 0 15 8 26 25 32 23 9 25 15 25 65 0 36 4
54 10 50 6 -4 8 -10 5 -15z m808 -167 c-7 -2 -21 -2 -30 0 -10 3 -4 5 12 5 17
0 24 -2 18 -5z m-411 -95 c-11 -11 -32 -3 -32 12 0 12 34 18 39 7 2 -5 -1 -13
-7 -19z m418 -288 c8 -5 11 -10 5 -10 -5 0 -17 5 -25 10 -8 5 -10 10 -5 10 6
0 17 -5 25 -10z m-638 -246 c38 -9 67 -19 64 -22 -4 -3 -37 -16 -74 -28 -65
-21 -68 -21 -84 -3 -30 30 -22 86 10 74 8 -3 46 -12 84 -21z m1148 17 c0 -6
-10 -26 -21 -46 -24 -40 -34 -41 -114 -6 l-40 17 80 21 c97 26 95 25 95 14z
m270 -222 c18 -11 -34 -1 -65 13 -13 5 -9 6 15 2 19 -4 42 -10 50 -15z m150
-40 c0 -4 21 -12 47 -20 26 -7 43 -14 37 -16 -5 -1 -43 8 -84 21 -62 20 -68
24 -38 22 21 0 38 -4 38 -7z m-2273 -65 c-3 -3 -12 -4 -19 -1 -8 3 -5 6 6 6
11 1 17 -2 13 -5z m1280 -571 c-3 -10 -5 -2 -5 17 0 19 2 27 5 18 2 -10 2 -26
0 -35z m-97 -34 c0 -14 -5 -19 -17 -17 -23 4 -28 25 -6 31 10 3 19 5 21 6 1 0
2 -8 2 -20z m140 -4 c0 -23 -2 -24 -20 -15 -25 13 -26 27 -2 33 9 3 18 5 20 6
1 0 2 -10 2 -24z"/>
<path d="M1880 2970 c0 -5 6 -10 13 -10 8 0 7 -4 -3 -10 -8 -5 -10 -10 -4 -10
16 0 23 10 17 26 -6 16 -23 19 -23 4z"/>
<path d="M1613 2903 c9 -2 25 -2 35 0 9 3 1 5 -18 5 -19 0 -27 -2 -17 -5z"/>
<path d="M3540 5597 c0 -14 17 -60 37 -103 48 -101 51 -172 10 -251 -15 -29
-27 -57 -27 -63 0 -6 16 -18 35 -26 19 -8 36 -19 37 -24 5 -33 3 -34 -103 -31
l-106 2 -26 -31 c-47 -56 -59 -155 -36 -315 9 -67 8 -79 -6 -95 -13 -15 -14
-27 -5 -81 5 -35 10 -67 10 -71 0 -3 13 -11 29 -16 23 -8 30 -19 40 -58 7 -27
23 -68 37 -91 20 -35 30 -43 54 -43 28 0 29 -2 29 -42 0 -24 1 -56 3 -73 2
-24 -2 -32 -27 -44 -38 -18 -45 -28 -45 -68 0 -32 0 -32 58 -36 48 -3 53 -5
32 -12 l-25 -9 30 -8 c30 -7 -18 -5 -150 7 -64 6 -92 -3 -82 -28 7 -19 73 -34
177 -38 30 -2 36 -4 18 -6 -32 -5 -31 -3 -18 -37 6 -16 6 -67 -1 -143 -15
-188 -18 -201 -39 -208 -37 -12 -50 -35 -50 -86 0 -47 29 -131 49 -143 5 -3
12 -21 15 -40 5 -26 16 -41 44 -58 35 -22 45 -23 192 -21 l155 2 -30 -24 c-16
-14 -40 -25 -52 -25 -26 0 -284 -55 -328 -69 -16 -6 -43 -14 -60 -18 -24 -6
-15 -9 42 -11 109 -4 326 46 396 93 53 35 54 35 121 26 87 -12 111 -33 119
-102 6 -53 1 -82 -14 -73 -5 3 -9 -1 -9 -9 0 -16 -118 -113 -156 -127 -14 -6
-77 -10 -140 -10 l-114 0 0 -29 c0 -16 -7 -36 -15 -44 -8 -8 -11 -17 -8 -21 4
-3 -5 -6 -19 -6 -31 0 -45 -16 -50 -55 -3 -29 -8 -32 -133 -75 -71 -25 -136
-49 -142 -53 -7 -5 -13 -26 -13 -48 0 -32 -4 -41 -22 -49 -21 -8 -22 -9 -3
-10 12 -1 15 -4 7 -7 -7 -3 -19 0 -26 7 -37 30 -65 -100 -28 -133 9 -8 29 -19
44 -22 22 -6 33 -1 58 23 28 28 30 36 30 101 0 65 2 72 23 81 12 5 161 41 332
80 317 73 366 79 380 42 3 -9 9 -101 12 -205 6 -169 4 -189 -11 -200 -25 -18
-19 -170 7 -175 12 -3 19 5 23 27 7 33 34 43 34 13 0 -21 33 -56 43 -45 4 3 7
44 7 89 0 67 -3 85 -17 92 -15 9 -16 30 -10 208 7 225 8 230 82 221 82 -11
650 -149 657 -160 4 -7 8 -42 8 -78 0 -76 17 -105 65 -115 42 -8 85 26 85 68
0 37 -29 100 -42 92 -5 -3 -1 -12 9 -20 16 -12 14 -12 -14 -2 -18 7 -30 14
-28 16 2 3 -2 14 -10 26 -8 11 -15 32 -15 46 0 22 -6 28 -46 38 -25 7 -42 17
-39 22 3 6 -3 10 -15 10 -12 0 -40 9 -63 19 -23 10 -66 27 -94 37 -53 19 -53
19 -53 62 0 39 -3 44 -29 53 -23 8 -31 17 -33 42 l-3 32 -203 0 -202 0 0 78
c0 50 -4 76 -10 72 -21 -13 -9 22 15 45 19 18 25 34 25 67 0 24 4 43 10 43 14
0 32 -73 19 -80 -7 -5 -4 -29 7 -73 l16 -67 43 0 c50 0 105 17 105 33 0 42
-22 130 -35 143 -29 29 -19 44 33 44 84 0 236 28 324 60 200 73 312 177 312
291 0 53 -18 80 -67 106 -39 20 -167 43 -238 43 -32 0 -59 3 -59 8 1 4 18 93
39 197 23 118 34 192 28 196 -18 13 28 27 73 23 67 -6 160 16 160 38 0 15 -7
16 -48 11 -27 -3 -72 0 -100 6 -28 6 -123 16 -211 23 -131 10 -162 10 -175 -1
-9 -8 -16 -17 -16 -22 0 -11 66 -29 106 -29 20 0 39 -9 54 -25 l24 -25 -29
-185 c-15 -101 -31 -189 -35 -195 -4 -7 -41 -5 -119 7 -105 15 -116 16 -179 0
-68 -17 -383 -67 -421 -67 -20 0 -21 5 -21 105 l0 105 34 0 c68 0 465 89 517
116 65 33 83 170 35 267 -47 97 -31 92 -332 91 -197 0 -264 2 -264 11 0 17 93
25 287 25 127 0 171 3 193 15 17 9 30 21 31 28 0 6 2 77 3 157 1 80 8 189 16
242 15 111 7 156 -37 208 -56 67 -102 78 -430 95 -121 7 -133 9 -133 26 0 18
10 19 152 19 131 0 157 3 193 20 74 36 97 119 61 219 -22 61 -110 176 -149
194 -31 15 -202 40 -364 53 l-83 7 0 -26z m366 -112 c10 -8 15 -14 9 -14 -5 0
-19 6 -29 14 -11 8 -15 15 -10 15 6 0 19 -7 30 -15z m70 0 c25 -19 14 -19 -22
0 -16 8 -22 15 -13 15 8 0 24 -7 35 -15z m33 -62 c14 -12 22 -26 18 -30 -4 -4
-14 3 -23 15 -8 12 -21 22 -28 22 -8 0 -16 9 -19 21 -6 22 0 19 52 -28z m-338
14 c-13 -13 -26 -3 -16 12 3 6 11 8 17 5 6 -4 6 -10 -1 -17z m243 7 c4 -11 1
-14 -11 -12 -9 2 -18 9 -21 16 -6 18 25 15 32 -4z m-224 -39 c0 -8 -7 -15 -15
-15 -16 0 -20 12 -8 23 11 12 23 8 23 -8z m190 0 c0 -8 -4 -15 -10 -15 -5 0
-10 7 -10 15 0 8 5 15 10 15 6 0 10 -7 10 -15z m80 1 c0 -8 -7 -16 -15 -20
-10 -4 -15 1 -15 14 0 11 7 20 15 20 8 0 15 -6 15 -14z m-274 -41 c-11 -8 -22
-12 -25 -9 -6 6 19 24 34 24 6 -1 1 -7 -9 -15z m210 0 c-22 -17 -36 -19 -36
-7 0 14 12 22 34 22 21 -1 21 -1 2 -15z m94 6 c0 -5 -13 -14 -30 -20 -16 -6
-44 -16 -60 -22 -17 -7 -33 -9 -37 -6 -3 4 3 9 13 12 10 3 35 14 54 24 39 21
60 25 60 12z m65 -1 c6 -10 -57 -45 -119 -65 -22 -7 -50 -16 -60 -20 -13 -6
-17 -5 -13 2 4 6 41 23 82 38 41 15 80 34 86 41 14 17 16 17 24 4z m10 -51
c-4 -5 -11 -9 -17 -9 -7 0 -30 -8 -52 -19 -49 -23 -128 -42 -120 -30 3 5 13 9
23 9 9 0 26 7 37 15 10 8 26 15 34 15 8 0 31 8 50 19 34 18 56 19 45 0z m5
-28 c0 -5 -17 -15 -37 -22 -21 -6 -47 -18 -58 -25 -11 -8 -26 -14 -35 -14 -21
1 26 40 49 40 9 0 25 7 35 15 22 17 46 20 46 6z m-12 -47 c-9 -9 -24 -14 -34
-12 -16 3 -14 7 11 20 35 19 46 15 23 -8z m-558 -238 c0 -9 -30 -14 -35 -6 -4
6 3 10 14 10 12 0 21 -2 21 -4z m97 -2 c-3 -3 -12 -4 -19 -1 -8 3 -5 6 6 6 11
1 17 -2 13 -5z m-57 -33 c0 -5 -14 -11 -31 -15 -51 -10 -66 -5 -29 9 42 16 60
18 60 6z m639 -7 c2 -2 2 -6 0 -9 -8 -7 -49 7 -49 17 0 8 38 2 49 -8z m-624
-40 c-27 -7 -70 -13 -95 -13 l-45 1 55 13 c30 7 73 12 95 13 l40 0 -50 -14z
m640 -1 c16 -10 1 -12 -85 -12 -58 0 -127 4 -154 8 -27 5 -63 5 -80 1 -39 -8
-106 -1 -106 12 0 15 399 6 425 -9z m-580 -32 c-31 -13 -183 -23 -197 -14 -15
9 62 19 157 21 39 0 53 -2 40 -7z m350 -10 c-3 -6 -14 -9 -25 -8 -24 2 -15 17
11 17 11 0 18 -4 14 -9z m-315 -20 c0 -11 -76 -21 -166 -21 -110 0 -90 19 24
23 53 1 107 4 120 5 12 1 22 -2 22 -7z m570 -1 c0 -12 -17 -12 -45 0 -17 7
-15 9 13 9 17 1 32 -3 32 -9z m-570 -40 c0 -6 -46 -10 -115 -10 -63 0 -115 3
-115 8 0 4 52 8 115 9 71 2 115 -1 115 -7z m318 3 c-15 -2 -42 -2 -60 0 -18 2
-6 4 27 4 33 0 48 -2 33 -4z m252 -3 c0 -6 -36 -10 -89 -10 -50 0 -93 5 -96
10 -4 6 28 10 89 10 57 0 96 -4 96 -10z m-622 -37 c-32 -2 -84 -2 -115 0 -32
2 -6 3 57 3 63 0 89 -1 58 -3z m590 0 c17 -3 32 -10 32 -16 0 -7 -35 -8 -107
-2 -60 4 -164 11 -233 15 -120 7 -118 7 75 7 110 0 215 -2 233 -4z m-715 -30
c-7 -2 -21 -2 -30 0 -10 3 -4 5 12 5 17 0 24 -2 18 -5z m155 -10 c-16 -2 -40
-2 -55 0 -16 2 -3 4 27 4 30 0 43 -2 28 -4z m585 -13 c10 -10 -16 -11 -128 -5
-298 14 -342 23 -107 20 163 -1 226 -5 235 -15z m-583 -14 c19 -1 -16 -3 -77
-4 -62 -1 -113 1 -113 6 0 6 107 6 190 -2z m458 -12 c56 -3 105 -10 108 -15 7
-12 -126 -11 -241 1 -49 5 -118 10 -152 12 -34 1 -59 6 -56 10 4 8 78 6 341
-8z m-239 -29 c146 -8 266 -17 269 -19 12 -13 -77 -17 -150 -7 -46 6 -150 13
-233 16 -198 7 -287 13 -293 20 -9 9 135 5 407 -10z m-106 -32 c141 -9 257
-21 257 -26 0 -6 -23 -7 -52 -4 -29 3 -153 12 -275 18 -123 7 -223 16 -223 21
0 11 -1 11 293 -9z m-48 -34 c99 -7 187 -16 195 -21 10 -6 6 -7 -15 -4 -16 3
-100 8 -185 11 -175 7 -230 13 -230 26 0 5 12 7 28 4 15 -2 108 -9 207 -16z
m23 -36 c41 -3 69 -9 64 -12 -16 -9 -265 7 -293 19 -24 11 50 8 229 -7z m387
-53 c18 -8 18 -9 -5 -9 -14 0 -43 4 -65 8 l-40 9 45 0 c25 0 54 -3 65 -8z
m-53 -31 c9 -5 29 -9 45 -10 15 0 22 -3 15 -6 -19 -7 -181 17 -188 29 -7 11
102 0 128 -13z m141 14 c-13 -2 -33 -2 -45 0 -13 2 -3 4 22 4 25 0 35 -2 23
-4z m-178 -55 c7 -7 -5 -9 -38 -5 -27 2 -54 10 -60 17 -10 10 -1 11 38 5 28
-3 55 -11 60 -17z m195 12 c0 -5 -11 -10 -24 -10 -14 0 -28 5 -31 10 -4 6 7
10 24 10 17 0 31 -4 31 -10z m-515 -40 l20 -9 -20 1 c-11 0 -33 4 -50 8 l-30
8 30 0 c17 0 39 -3 50 -8z m478 3 c-7 -2 -21 -2 -30 0 -10 3 -4 5 12 5 17 0
24 -2 18 -5z m-483 -118 c0 -16 -35 -21 -45 -6 -4 8 9 15 38 20 4 0 7 -6 7
-14z m419 -79 c-2 -2 -15 -9 -29 -16 -23 -12 -24 -12 -11 3 7 10 20 17 29 17
8 0 13 -2 11 -4z m48 -13 c-9 -9 -20 -13 -24 -9 -4 4 -1 11 7 16 25 16 35 11
17 -7z m63 7 c0 -5 -5 -10 -11 -10 -5 0 -7 5 -4 10 3 6 8 10 11 10 2 0 4 -4 4
-10z m60 -5 c0 -8 -4 -15 -10 -15 -5 0 -10 7 -10 15 0 8 5 15 10 15 6 0 10 -7
10 -15z m-250 -40 c0 -8 -7 -15 -15 -15 -16 0 -20 12 -8 23 11 12 23 8 23 -8z
m80 0 c0 -8 -4 -15 -9 -15 -13 0 -22 16 -14 24 11 11 23 6 23 -9z m74 -1 c4
-10 1 -14 -6 -12 -15 5 -23 28 -10 28 5 0 13 -7 16 -16z m77 0 c12 -14 11 -16
-5 -13 -11 2 -21 10 -24 17 -5 17 13 15 29 -4z m70 0 c12 -14 11 -16 -5 -13
-11 2 -21 10 -24 17 -5 17 13 15 29 -4z m-247 -33 c3 -5 39 -25 80 -45 41 -19
78 -41 82 -47 4 -6 3 -10 -2 -8 -35 15 -204 101 -204 105 0 8 39 4 44 -5z m86
-6 c17 -20 -7 -20 -34 0 -19 15 -19 15 1 15 11 0 26 -7 33 -15z m80 0 c10 -12
10 -15 -3 -15 -8 0 -20 7 -27 15 -10 12 -10 15 3 15 8 0 20 -7 27 -15z m64 9
c17 -6 22 -24 8 -24 -5 0 -17 7 -28 15 -19 15 -8 20 20 9z m-219 -58 c17 -9
35 -16 41 -16 6 0 17 -7 24 -15 15 -19 1 -20 -25 -2 -11 7 -41 21 -67 31 -27
10 -48 22 -48 27 0 9 27 0 75 -25z m155 3 c0 -15 -16 -10 -41 11 l-24 20 33
-11 c17 -6 32 -15 32 -20z m65 10 c11 -17 0 -20 -21 -4 -17 13 -17 14 -2 15 9
0 20 -5 23 -11z m-268 -30 c18 -6 35 -15 39 -20 8 -13 -23 -5 -73 17 -34 15
-47 32 -15 19 9 -4 31 -11 49 -16z m253 1 c4 0 10 -7 14 -15 8 -21 -7 -19 -35
7 -18 16 -19 19 -6 15 10 -4 22 -7 27 -7z m50 0 c0 -5 -2 -10 -4 -10 -3 0 -8
5 -11 10 -3 6 -1 10 4 10 6 0 11 -4 11 -10z m-285 -50 c3 -5 -1 -10 -9 -10 -8
0 -18 5 -21 10 -3 6 1 10 9 10 8 0 18 -4 21 -10z m70 0 c3 -5 2 -10 -4 -10 -5
0 -13 5 -16 10 -3 6 -2 10 4 10 5 0 13 -4 16 -10z m150 0 c3 -5 -1 -10 -9 -10
-9 0 -16 5 -16 10 0 6 4 10 9 10 6 0 13 -4 16 -10z m-450 -34 c71 2 82 0 50
-7 -60 -12 -122 -11 -200 5 l-70 15 65 -7 c36 -4 106 -6 155 -6z m-238 -52
c-3 -3 -12 -4 -19 -1 -8 3 -5 6 6 6 11 1 17 -2 13 -5z m582 -860 c-27 -33 -29
36 -2 78 5 8 9 -1 11 -25 2 -21 -2 -45 -9 -53z m-111 -171 c-3 -48 -3 -48 -42
-51 -72 -6 -76 5 -21 54 27 24 53 44 58 44 4 0 7 -21 5 -47z m-253 -135 c4 -3
-8 -11 -27 -16 -18 -5 -40 -13 -49 -17 -12 -4 -19 2 -27 24 -6 16 -8 31 -6 34
6 5 100 -16 109 -25z m703 -9 l-13 -25 -45 17 c-47 18 -45 21 25 36 46 10 51
6 33 -28z"/>
<path d="M1798 1283 c12 -2 30 -2 40 0 9 3 -1 5 -23 4 -22 0 -30 -2 -17 -4z"/>
<path d="M1613 825 c0 -22 2 -30 4 -17 2 12 2 30 0 40 -3 9 -5 -1 -4 -23z"/>
<path d="M1752 810 c0 -19 2 -27 5 -17 2 9 2 25 0 35 -3 9 -5 1 -5 -18z"/>
</g>
</svg>
